<svg xmlns="http://www.w3.org/2000/svg" id="{{ include.id }}" viewBox="0 0 512 512" width="512" height="512">
  <path fill="{{ include.colorSquare }}" d="M-140.7 250L196.7 348.5 98.1 685.8 -239.2 587.3z"/>
  <path fill="{{ include.colorFi }}" d="M87.8,445.1C87.8,445.1,87.8,445.1,87.8,445.1c1,0,2.1-0.2,3.1-0.3c4.9-0.5,9.6-1.9,14-3.9	c3.5-1.6,6.7-3.6,9.7-6c2.8-2.2,5.2-4.7,7.4-7.5c1.4-1.9,2.7-3.9,4-5.9c2.4-3.7,4-7.8,5.1-12c1.4-5,2-10.2,1.6-15.5	c-0.2-2.6-0.5-5.1-1.1-7.6c-1-4-2.5-7.9-4.9-11.3c-1.1-1.5-2.3-3-3.7-4c-5.6-3.8-11.9-3.1-17,1.3c-3.4,2.9-5.9,6.6-7.9,10.6	c-1.2,2.4-2.2,4.9-3.2,7.4c-0.9,2.2-1.7,4.4-2.4,6.6c-1.7,5.9-3.3,11.9-4.2,18c-0.3,2.1-0.7,4.1-1,6.2c-0.3,2.2-0.5,4.3-0.7,6.5	c-0.3,2.9-0.6,5.7-0.8,8.6c-0.2,2.3-0.2,4.7-0.3,7c-0.1,2-0.1,2.1,2,2.1C87.6,445.1,87.7,445.1,87.8,445.1 M81.9,334.6	c1.3,0.5,2.6,0.9,3.9,1.5c3.5,1.9,5.5,4.8,6.1,8.8c0.5,3.6-0.7,6.9-2.4,9.9c-1.9,3.5-4.4,6.6-7.1,9.6c-1.1,1.2-2.2,2.4-3.3,3.6	c-1.9,2.1-4.4,2.9-7.1,2.6c-4-0.4-6.6-2.7-7.8-6.4c-0.5-1.6-0.4-3.3,0.1-5c0.2-0.7,0.5-1.3,0.7-2c0-0.1,0-0.3,0-0.4	c-0.1-0.1-0.3-0.1-0.4,0c-0.3,0.1-0.6,0.3-0.9,0.4c-3.8,2.1-7.2,4.5-10.3,7.5c-3.5,3.4-6.6,7.2-8.9,11.5c-1.9,3.6-3.4,7.5-4.4,11.5	c-1.2,5-1.3,9.9-1.1,15c0.1,2.5,0.8,5,1.3,7.5c0.6,2.7,1.6,5.2,2.7,7.7c1.4,3.1,3.2,6.1,5.3,8.8c1.4,1.8,3,3.6,4.6,5.2	c2.9,2.8,6.1,5.4,9.8,7.2c1.4,0.7,2.7,1.4,4.1,2c0.7,0.3,0.9,0.2,1-0.6c0,0,0-0.1,0-0.1c0.1-2.5,0.2-5.1,0.3-7.6	c0.1-1.8,0.3-3.6,0.5-5.5c0.1-1.3,0.2-2.7,0.4-4c0.4-3.3,0.9-6.6,1.4-9.9c0.4-2.6,0.8-5.3,1.3-7.9c0.4-2,1-4.1,1.4-6.1	c0.9-4.3,2.3-8.5,3.7-12.7c2.3-6.7,5.2-13.1,9.2-19c2-2.9,4.2-5.7,6.8-8.1c4.4-4,9.5-7.1,15.4-8.4c4.5-1,9-1.1,13.6,0	c3.4,0.8,6.6,1.9,9.6,3.7c3.1,1.9,5.8,4.2,8,7.1c1.2,1.7,2.6,3.3,3.6,5.1c1.1,1.9,2,3.9,2.9,5.9c1.4,3,2.3,6.1,3.1,9.3	c0.6,2.6,0.9,5.2,1.3,7.8c0.3,2.1,0.5,4.1,0.5,6.2c0,2-0.1,4-0.3,5.9c-0.3,2.7-0.7,5.3-1.1,7.9c-0.3,1.6-0.7,3.1-1.2,4.6	c-0.9,2.6-1.8,5.3-2.8,7.9c-2.2,5.3-5.1,10.1-8.4,14.7c-1.2,1.7-2.5,3.2-3.9,4.7c-1.8,1.9-3.7,3.6-5.7,5.2c-1.8,1.5-3.7,3-5.6,4.4	c-3,2.2-6.2,4-9.5,5.5c-4.8,2.1-9.8,3.7-14.9,4.6c-3.4,0.6-6.8,0.8-10.2,1.1c-0.9,0.1-1,0.3-0.9,1.2c0.4,3.2,0.6,6.4,1.2,9.6	c0.9,4.8,1.8,9.5,3.2,14.2c1.1,3.8,0.5,6.8-2.7,9.6c-1.2,1.1-2.7,1.6-4.2,2.2h-3.3c-0.1-0.1-0.2-0.2-0.4-0.2	c-3.5-0.8-5.6-3.1-6.6-6.4c-0.5-1.6-0.9-3.2-1.3-4.7c-0.5-2.1-1.1-4.2-1.5-6.4c-0.5-3.1-0.9-6.3-1.3-9.4c-0.4-3.5-0.8-7.1-1.1-10.6	c-0.1-0.9-0.3-1.3-1.2-1.6c-1.8-0.5-3.5-1-5.2-1.8c-2.6-1.1-5.2-2.4-7.8-3.7c-3.4-1.8-6.6-4-9.6-6.5c-2.6-2.2-5-4.6-7.3-7	c-1.5-1.6-2.9-3.4-4.2-5.2c-2.5-3.5-4.6-7.3-6.4-11.2c-2.6-5.7-4.3-11.6-5-17.8c-0.1-1.1-0.4-2.1-0.6-3.2v-11.1	c0.1-0.3,0.2-0.6,0.3-1c0.2-1.2,0.2-2.4,0.4-3.5c0.8-3.5,1.4-7,2.6-10.4c1.5-4.5,3.6-8.7,5.9-12.8c1.7-3,3.8-5.7,6-8.3	c4.4-5.1,9.4-9.4,15.1-12.9c5.8-3.6,11.9-6.3,18.6-7.8c2-0.5,4-1,6.1-1.4L81.9,334.6L81.9,334.6z"/>
</svg>
