<svg xmlns="http://www.w3.org/2000/svg" id="{{ include.id }}" viewBox="0 0 512 512" width="512" height="512">
  <path id="path4541" fill="{{ include.colorBackground }}" d="m -26.079057,426.48071 556.864567,-69.54324 0,185.74377 -556.864567,0 z" />
  <path
     fill="{{ include.colorFi }}"
     d="m 434.25779,442.58056 c 0,0 0,0 0,0 0.99649,0 2.09263,-0.19931 3.08912,-0.29895 4.88278,-0.49827 9.56629,-1.89334 13.95084,-3.88631 3.48772,-1.5944 6.67649,-3.58737 9.66596,-5.97893 2.79016,-2.1923 5.18175,-4.68354 7.37404,-7.47367 1.39507,-1.89335 2.69052,-3.88633 3.98593,-5.87932 2.39159,-3.68701 3.98597,-7.77261 5.08213,-11.95788 1.39508,-4.98245 1.99296,-10.1642 1.59437,-15.44558 -0.19929,-2.59088 -0.49823,-5.08212 -1.09615,-7.57333 -0.99648,-3.98597 -2.49121,-7.87226 -4.88277,-11.26033 -1.09616,-1.49474 -2.29195,-2.98947 -3.68703,-3.98596 -5.58036,-3.78666 -11.85821,-3.08912 -16.94034,1.29543 -3.38806,2.88982 -5.87928,6.57683 -7.87226,10.56278 -1.1958,2.3916 -2.19227,4.88283 -3.18878,7.37403 -0.89684,2.1923 -1.69402,4.38457 -2.39158,6.57684 -1.69403,5.87929 -3.28842,11.85821 -4.18525,17.93682 -0.29894,2.09263 -0.69754,4.08562 -0.99648,6.17824 -0.29895,2.19229 -0.49823,4.28491 -0.69754,6.47718 -0.29895,2.88982 -0.59791,5.67999 -0.79719,8.56982 -0.19931,2.29191 -0.19931,4.68351 -0.29896,6.97542 -0.0996,1.99299 -0.0996,2.09262 1.99297,2.09262 0.0996,-0.29892 0.1993,-0.29892 0.29897,-0.29892 M 428.3785,332.46841 c 1.29543,0.49823 2.59087,0.89685 3.88631,1.49472 3.4877,1.89334 5.4807,4.78317 6.07858,8.76912 0.49824,3.58738 -0.69754,6.87579 -2.39157,9.86527 -1.89334,3.4877 -4.38456,6.57681 -7.07509,9.56629 -1.09614,1.19579 -2.19228,2.39157 -3.28842,3.58737 -1.89332,2.09262 -4.38455,2.88982 -7.07507,2.59086 -3.98595,-0.39858 -6.57683,-2.69052 -7.77261,-6.37752 -0.49826,-1.59439 -0.3986,-3.28842 0.0996,-4.98246 0.19931,-0.69754 0.49825,-1.29543 0.69753,-1.99297 0,-0.0996 0,-0.29894 0,-0.3986 -0.0996,-0.0996 -0.29894,-0.0996 -0.39858,0 -0.29895,0.0996 -0.5979,0.29895 -0.89685,0.3986 -3.78666,2.09261 -7.17472,4.48419 -10.26384,7.47367 -3.4877,3.38807 -6.57683,7.17471 -8.86874,11.45964 -1.89335,3.58736 -3.38809,7.47367 -4.38457,11.45963 -1.1958,4.98246 -1.29543,9.86523 -1.09615,14.94733 0.0996,2.49123 0.79721,4.98247 1.29544,7.47368 0.59789,2.69052 1.59439,5.18178 2.69051,7.67298 1.39509,3.08912 3.18877,6.07859 5.28141,8.76913 1.39508,1.79367 2.98945,3.58734 4.58384,5.18172 2.88983,2.79019 6.0786,5.38106 9.76561,7.17475 1.39507,0.69754 2.69052,1.39508 4.08561,1.99297 0.69754,0.29895 0.89686,0.19928 0.99648,-0.59789 0,0 0,-0.0996 0,-0.0996 0.0996,-2.4912 0.1993,-5.08209 0.29895,-7.57331 0.0996,-1.79368 0.29897,-3.58737 0.49826,-5.48072 0.0996,-1.29541 0.19929,-2.6905 0.39859,-3.98592 0.3986,-3.28843 0.89684,-6.57686 1.39508,-9.86527 0.3986,-2.59087 0.79719,-5.28138 1.29545,-7.87228 0.39859,-1.99296 0.99649,-4.08559 1.39508,-6.07859 0.89685,-4.28489 2.29192,-8.47014 3.68702,-12.65541 2.29192,-6.67647 5.18174,-13.05402 9.16769,-18.93331 1.993,-2.88982 4.18527,-5.67999 6.77613,-8.07157 4.38457,-3.98595 9.46666,-7.07508 15.34595,-8.37053 4.48422,-0.99646 8.96841,-1.09613 13.55227,0 3.38806,0.79721 6.57682,1.89335 9.56629,3.68704 3.08912,1.89333 5.77964,4.18524 7.97194,7.07507 1.19577,1.69403 2.59087,3.28841 3.58734,5.08209 1.09616,1.89335 1.993,3.88632 2.88983,5.87931 1.39508,2.98946 2.29193,6.07857 3.08912,9.26734 0.5979,2.59088 0.89684,5.18176 1.29545,7.77262 0.29894,2.09264 0.49824,4.08562 0.49824,6.17825 0,1.99298 -0.0996,3.98596 -0.29895,5.87929 -0.29895,2.69052 -0.69754,5.28139 -1.09613,7.87227 -0.29895,1.59437 -0.69754,3.08913 -1.1958,4.58386 -0.89685,2.59087 -1.79366,5.28139 -2.79016,7.87227 -2.19228,5.28138 -5.0821,10.06453 -8.37052,14.64839 -1.19581,1.69403 -2.49124,3.18877 -3.8863,4.6835 -1.79369,1.89333 -3.68703,3.58736 -5.68,5.18175 -1.79369,1.49474 -3.68702,2.98946 -5.58035,4.38455 -2.98947,2.1923 -6.17824,3.98597 -9.46666,5.4807 -4.78315,2.09264 -9.7656,3.68701 -14.84769,4.58385 -3.38807,0.5979 -6.77613,0.79719 -10.1642,1.09614 -0.89685,0.0996 -0.99649,0.29894 -0.89685,1.1958 0.3986,3.18875 0.5979,6.37753 1.1958,9.5663 0.89683,4.78313 1.79368,9.46664 3.18877,14.15015 1.09612,3.78666 0.49822,6.77613 -2.69052,9.56632 -1.19578,1.09613 -2.69054,1.59436 -4.18526,2.19226 l -3.28842,0 c -0.0996,-0.0996 -0.19931,-0.1993 -0.39859,-0.1993 -3.48772,-0.79719 -5.58035,-3.08911 -6.57685,-6.37753 -0.49824,-1.59438 -0.89683,-3.18876 -1.29544,-4.6835 -0.49823,-2.09264 -1.09613,-4.18526 -1.49472,-6.37754 -0.49826,-3.08911 -0.89684,-6.27788 -1.29544,-9.36701 -0.3986,-3.48771 -0.79719,-7.07507 -1.09615,-10.56278 -0.0996,-0.89685 -0.29895,-1.29545 -1.19579,-1.59438 -1.79367,-0.49826 -3.48771,-0.99649 -5.18174,-1.79368 -2.59088,-1.09615 -5.18174,-2.39159 -7.77262,-3.68703 -3.38806,-1.79368 -6.57683,-3.98596 -9.56628,-6.47719 -2.59089,-2.19227 -4.98247,-4.58383 -7.27439,-6.97542 -1.49473,-1.59438 -2.88984,-3.38805 -4.18525,-5.18174 -2.49124,-3.48772 -4.58385,-7.27437 -6.37755,-11.1607 -2.59088,-5.67997 -4.2849,-11.55927 -4.98244,-17.73751 -0.0996,-1.09613 -0.3986,-2.09264 -0.59791,-3.18877 l 0,-11.06104 c 0.0996,-0.29893 0.19931,-0.59789 0.29896,-0.99647 0.19928,-1.19581 0.19928,-2.3916 0.39858,-3.48773 0.79721,-3.48772 1.39508,-6.97542 2.59089,-10.3635 1.49472,-4.4842 3.58735,-8.66946 5.87927,-12.75506 1.69405,-2.98949 3.78669,-5.68 5.97896,-8.27087 4.38455,-5.08211 9.36699,-9.36701 15.04697,-12.85473 5.77966,-3.58737 11.85825,-6.27789 18.53473,-7.77262 1.99297,-0.49826 3.98596,-0.99649 6.0786,-1.39509 l 5.87929,-0.0996 0,0 z" />
  <g
     transform="matrix(0.99232303,-0.12367294,0.12367294,0.99232303,0,0)">
    <path
       fill="{{ include.colorText }}"
       d="m -35.630567,442.77782 9.859626,0 0,24.98088 13.936203,0 0,8.24795 -23.795829,0 0,-33.22883 z" />
    <path
       fill="{{ include.colorText }}"
       d="m -8.4114204,442.77782 27.1613744,0 0,7.58432 -17.301748,0 0,5.21423 15.690079,0 0,7.58433 -15.690079,0 0,5.26162 17.775769,0 0,7.58433 -27.6353954,0 0,-33.22883 z m 14.9790478,-10.76027 7.4895236,2.74932 -7.2525133,5.78305 -6.25707062,-0.47402 6.02006032,-8.05835 z" />
    <path
       fill="{{ include.colorText }}"
       d="m 45.702462,458.79971 8.484967,0 0,13.50958 q -2.701917,1.89608 -6.683689,3.12854 -3.981772,1.23245 -7.536926,1.23245 -5.072019,0 -9.148595,-2.22789 -4.076577,-2.2753 -6.399277,-6.20967 -2.322701,-3.93437 -2.322701,-8.86419 0,-4.88241 2.370103,-8.81678 2.417504,-3.93437 6.636287,-6.16226 4.266184,-2.2279 9.527812,-2.2279 3.792164,0 7.584328,1.37466 3.792164,1.37466 6.446679,3.74476 l -5.593442,6.73109 q -1.706474,-1.65907 -4.029174,-2.65451 -2.275299,-0.99545 -4.455793,-0.99545 -2.370103,0 -4.313587,1.18506 -1.896082,1.18505 -2.986329,3.27074 -1.090247,2.03828 -1.090247,4.55059 0,2.55971 1.090247,4.6454 1.137649,2.08569 3.081133,3.27075 1.943484,1.18505 4.313587,1.18505 2.133092,0 5.024617,-1.37466 l 0,-8.29536 z" />
    <path
       fill="{{ include.colorText }}"
       d="m 59.08095,442.77782 9.859627,0 0,33.22883 -9.859627,0 0,-33.22883 z" />
    <path
       fill="{{ include.colorText }}"
       d="m 98.432796,453.49068 q -2.654515,-1.56427 -5.830453,-2.65452 -3.175937,-1.09024 -5.214225,-1.09024 -1.279855,0 -2.038288,0.52142 -0.711031,0.47402 -0.711031,1.42206 0,1.32726 1.422062,2.08569 1.422061,0.71103 4.503194,1.56427 3.507752,0.99544 5.78305,2.03829 2.275299,0.99544 3.934375,3.08113 1.70647,2.08569 1.70647,5.49864 0,3.46035 -1.84868,5.87785 -1.801279,2.3701 -4.929814,3.55516 -3.081133,1.18505 -6.920699,1.18505 -4.266185,0 -8.579771,-1.42206 -4.266185,-1.46947 -7.39472,-3.98178 l 3.69736,-7.48952 q 2.512309,2.18049 6.114864,3.69736 3.649958,1.46946 6.257071,1.46946 1.61167,0 2.512309,-0.61622 0.900639,-0.61623 0.900639,-1.75388 0,-1.37466 -1.469464,-2.08569 -1.469464,-0.75843 -4.550597,-1.56427 -3.460349,-0.90064 -5.735648,-1.84868 -2.275298,-0.99544 -3.93437,-3.03373 -1.659072,-2.03829 -1.659072,-5.35643 0,-3.22334 1.706474,-5.59344 1.706474,-2.41751 4.787607,-3.69736 3.128535,-1.27986 7.252514,-1.27986 3.744762,0 7.442122,1.09025 3.69736,1.04285 6.446675,2.79672 l -3.649954,7.58433 z" />
    <path
       fill="{{ include.colorText }}"
       d="m 105.55718,442.77782 9.85962,0 0,24.98088 13.93621,0 0,8.24795 -23.79583,0 0,-33.22883 z" />
    <path
       fill="{{ include.colorText }}"
       d="m 157.18617,476.00665 -1.94349,-5.30903 -13.41478,0 -1.99088,5.30903 -10.14404,0 14.17321,-33.22883 10.14404,0 13.69919,33.22883 -10.52325,0 z m -12.60895,-12.51414 8.05835,0 -3.98177,-10.85507 -4.07658,10.85507 z" />
    <path
       fill="{{ include.colorText }}"
       d="m 163.87133,442.77782 29.19966,0 0,7.86874 -9.67002,0 0,25.36009 -9.90702,0 0,-25.36009 -9.62262,0 0,-7.86874 z" />
    <path
       id="path4664"
       style="font-style:normal;font-variant:normal;font-weight:800;font-stretch:normal;font-family:Montserrat;-inkscape-font-specification:'Montserrat Ultra-Bold';fill:{{ include.colorText }};fill-opacity:1"
       d="m 196.19509,442.77782 9.85962,0 0,33.22883 -9.85962,0 0,-33.22883 z" />
    <path
       fill="{{ include.colorText }}"
       d="m 208.71737,442.77782 10.52326,0 7.58432,22.98999 7.58433,-22.98999 10.09664,0 -12.84596,33.22883 -10.23884,0 -12.70375,-33.22883 z" />
    <path
       fill="{{ include.colorText }}"
       d="m 247.11525,442.77782 27.16138,0 0,7.58432 -17.30175,0 0,5.21423 15.69008,0 0,7.58433 -15.69008,0 0,5.26162 17.77577,0 0,7.58433 -27.6354,0 0,-33.22883 z" />
    <path
       fill="{{ include.colorText }}"
       d="m 303.40963,453.49068 q -2.65451,-1.56427 -5.83045,-2.65452 -3.17594,-1.09024 -5.21422,-1.09024 -1.27986,0 -2.03829,0.52142 -0.71103,0.47402 -0.71103,1.42206 0,1.32726 1.42206,2.08569 1.42206,0.71103 4.50319,1.56427 3.50775,0.99544 5.78305,2.03829 2.2753,0.99544 3.93437,3.08113 1.70648,2.08569 1.70648,5.49864 0,3.46035 -1.84868,5.87785 -1.80128,2.3701 -4.92982,3.55516 -3.08113,1.18505 -6.9207,1.18505 -4.26618,0 -8.57977,-1.42206 -4.26618,-1.46947 -7.39472,-3.98178 l 3.69736,-7.48952 q 2.51231,2.18049 6.11487,3.69736 3.64996,1.46946 6.25707,1.46946 1.61167,0 2.51231,-0.61622 0.90064,-0.61623 0.90064,-1.75388 0,-1.37466 -1.46947,-2.08569 -1.46946,-0.75843 -4.55059,-1.56427 -3.46035,-0.90064 -5.73565,-1.84868 -2.2753,-0.99544 -3.93437,-3.03373 -1.65907,-2.03829 -1.65907,-5.35643 0,-3.22334 1.70647,-5.59344 1.70647,-2.41751 4.78761,-3.69736 3.12853,-1.27986 7.25251,-1.27986 3.74476,0 7.44212,1.09025 3.69736,1.04285 6.44668,2.79672 l -3.64996,7.58433 z" />
  </g>
  <g
     transform="matrix(0.99232303,-0.12367294,0.12367294,0.99232303,0,0)">
    <path
       fill="{{ include.colorText }}"
       d="m 226.73887,514.95386 0,7.67914 -25.69191,0 -0.0474,-6.30448 11.85051,-12.22973 q 1.27986,-1.27985 2.03829,-2.55971 0.80583,-1.32725 0.80583,-2.2753 0,-1.13764 -0.80583,-1.70647 -0.75843,-0.61623 -2.1805,-0.61623 -1.94348,0 -4.36098,1.13765 -2.37011,1.09025 -4.78761,3.08114 l -3.69736,-7.11031 q 7.39472,-5.07202 14.31542,-5.07202 3.41295,0 6.06746,1.13765 2.70192,1.09025 4.21878,3.08113 1.56427,1.99089 1.56427,4.598 0,2.60711 -1.70647,5.35643 -1.65908,2.70192 -4.78761,5.83046 l -5.97266,5.97265 13.17777,0 z" />
    <path
       fill="{{ include.colorText }}"
       d="m 245.00199,489.11975 q 7.20511,0 11.09208,4.36098 3.88697,4.36099 3.88697,12.51415 0,8.15315 -3.88697,12.56154 -3.88697,4.40839 -11.09208,4.40839 -7.29991,0 -11.18688,-4.36099 -3.83957,-4.40839 -3.83957,-12.60894 0,-8.15316 3.83957,-12.51415 3.88697,-4.36098 11.18688,-4.36098 z m 0,7.15771 q -2.65451,0 -3.79216,2.22789 -1.13765,2.1805 -1.13765,7.48953 0,5.30903 1.13765,7.53692 1.13765,2.2279 3.79216,2.2279 2.60712,0 3.69736,-2.2279 1.13765,-2.22789 1.13765,-7.53692 0,-5.30903 -1.13765,-7.48953 -1.09024,-2.22789 -3.69736,-2.22789 z" />
    <path
       fill="{{ include.colorText }}"
       d="m 260.51061,489.40416 15.92709,0 0,33.22884 -9.85963,0 0,-25.3601 -6.06746,0 0,-7.86874 z" />
    <path
       fill="{{ include.colorText }}"
       d="m 281.84449,489.40416 27.01917,0 0,6.63629 -11.99272,26.59255 -10.38105,0 11.4713,-25.54971 -7.39472,0 0,4.6454 -8.72198,0 0,-12.32453 z" />
  </g>
</svg>
