<svg xmlns="http://www.w3.org/2000/svg" viewBox="0 0 835 315">
  <style>
    .st0{fill:#FFFFFF;fill-opacity:0.711;}
    .st1{fill:#FFFFFF;}
    .st2{fill:#00AFCC;}
    .st3{fill:#C9452E;}
    .st4{fill:#001E5B;}
    .st5{font-family:'Montserrat';font-weight:bold;/* extrabold */}
    .st6{font-size:20.7192px;}
    .st7{font-family:'Montserrat';font-weight:bold;/* semibold */}
    .st8{font-size:14.907px;}
    .st9{font-size:35.8779px;}
    .st10{font-size:28.7067px;}
    .st11{font-size:17.725px;}
    .st12{font-size:11.5213px;}
    .st13{font-family:'Montserrat';font-weight:bold;}
    .st14{font-size:32.6112px;}
    .st15{font-size:25.4759px;}
  </style>
  <path d="M-22.2 95.8h635.4V214H-22.2z" class="st0"/>
  <path d="M358.67791 458.5343l586.1932-367.7288 378.99448 604.15172-586.1932 367.7288z" class="st1"/>
  <path d="M392.16882-120.00906l586.1932-367.7288 378.99448 604.15172-586.1932 367.7288z" class="st1"/>
  <path d="M944.8 90.9L732 224.4l-5.5 55.3L709 272l-13.5-24.7-52.3 32.8 128 204.1L1072.8 295l-128-204.1z" class="st2"/>
  <path d="M731.3 270.1c.7 0 1.4-.1 2.1-.2 3.3-.3 6.5-1.3 9.5-2.7 2.4-1.1 4.6-2.5 6.6-4.1 1.9-1.5 3.6-3.2 5-5.1 1-1.3 1.8-2.7 2.7-4 1.6-2.5 2.7-5.3 3.5-8.2.9-3.4 1.4-6.9 1.1-10.5-.1-1.8-.3-3.5-.8-5.2-.7-2.8-1.7-5.4-3.4-7.7-.7-1-1.5-2-2.5-2.7-3.8-2.6-8.1-2.1-11.6.9-2.3 2-4 4.5-5.4 7.2-.8 1.6-1.5 3.3-2.2 5-.6 1.5-1.2 3-1.6 4.5-1.2 4-2.2 8.1-2.9 12.2-.2 1.4-.5 2.8-.7 4.2-.2 1.5-.3 3-.5 4.4-.2 1.9-.4 3.9-.5 5.9-.1 1.6-.1 3.2-.2 4.8-.1 1.4-.1 1.4 1.4 1.4.3-.1.4-.1.4-.1m-4-75.3c.9.3 1.8.6 2.6 1 2.4 1.3 3.8 3.3 4.1 6 .3 2.5-.5 4.7-1.6 6.8-1.3 2.4-3 4.5-4.8 6.5-.7.8-1.5 1.7-2.2 2.5-1.3 1.4-3 2-4.9 1.8-2.7-.3-4.5-1.9-5.3-4.4-.4-1.1-.3-2.3.1-3.4.1-.5.3-.9.5-1.3v-.3h-.3l-.6.3c-2.6 1.4-4.9 3.1-7 5.1-2.4 2.3-4.5 4.9-6.1 7.8-1.3 2.5-2.3 5.1-3 7.9-.8 3.4-.9 6.8-.7 10.2.1 1.7.6 3.4.9 5.1.4 1.8 1.1 3.6 1.9 5.3 1 2.1 2.2 4.2 3.6 6 1 1.3 2 2.5 3.2 3.6 2 1.9 4.2 3.7 6.7 4.9.9.5 1.9 1 2.8 1.4.5.2.6.1.7-.4v-.1c.1-1.7.1-3.4.2-5.2.1-1.2.2-2.5.3-3.7.1-.9.1-1.8.2-2.7.3-2.2.6-4.5.9-6.7l.9-5.4c.3-1.4.7-2.8 1-4.2.6-2.9 1.6-5.8 2.5-8.7 1.6-4.6 3.6-8.9 6.3-12.9 1.3-2 2.9-3.9 4.6-5.5 3-2.8 6.5-4.8 10.5-5.7 3.1-.7 6.2-.7 9.3 0 2.3.5 4.5 1.3 6.5 2.5 2.1 1.3 4 2.8 5.4 4.8.8 1.1 1.7 2.3 2.5 3.5.8 1.3 1.3 2.7 2 4 1 2 1.6 4.2 2.1 6.4.4 1.7.6 3.5.9 5.3.2 1.4.3 2.8.4 4.2 0 1.3-.1 2.7-.2 4-.2 1.8-.5 3.6-.8 5.4-.2 1.1-.5 2.1-.8 3.1-.6 1.8-1.2 3.6-1.9 5.4-1.5 3.6-3.5 6.9-5.8 10-.8 1.1-1.7 2.2-2.7 3.2-1.2 1.3-2.5 2.4-3.9 3.6-1.2 1.1-2.5 2.1-3.8 3-2 1.5-4.2 2.7-6.5 3.7-3.3 1.4-6.6 2.5-10.2 3.1-2.3.4-4.6.6-6.9.8-.6.1-.7.2-.6.8.3 2.2.4 4.4.8 6.5.6 3.3 1.2 6.5 2.2 9.7.8 2.6.3 4.6-1.8 6.5-.8.8-1.8 1.1-2.9 1.5h-2.2c-.1-.1-.2-.1-.3-.2-2.4-.6-3.8-2.1-4.5-4.4-.3-1.1-.6-2.1-.9-3.2-.4-1.4-.8-2.9-1-4.3-.4-2.1-.6-4.3-.9-6.4-.3-2.4-.5-4.8-.8-7.2-.1-.6-.2-.9-.8-1.1-1.2-.4-2.4-.7-3.6-1.2-1.8-.8-3.6-1.6-5.3-2.5-2.3-1.2-4.5-2.7-6.5-4.4-1.7-1.5-3.4-3.1-5-4.8-1-1.1-2-2.3-2.8-3.5-1.7-2.4-3.1-5-4.4-7.7-1.8-3.9-2.9-7.9-3.4-12.2-.1-.7-.3-1.4-.4-2.2v-7.5c.1-.2.2-.4.2-.7.1-.8.1-1.6.3-2.4.5-2.4 1-4.8 1.8-7.1 1-3.1 2.4-6 4-8.7 1.2-2 2.6-3.9 4.1-5.7 3-3.5 6.4-6.4 10.3-8.8 3.9-2.5 8.1-4.3 12.7-5.3 1.4-.3 2.8-.6 4.1-1l4-.1z" class="st2"/>
  <path d="M733.3 272s.1 0 0 0c.7 0 1.4-.1 2.1-.2 3.3-.3 6.5-1.3 9.5-2.7 2.4-1.1 4.6-2.5 6.6-4.1 1.9-1.5 3.6-3.2 5-5.1 1-1.3 1.8-2.7 2.7-4 1.6-2.5 2.7-5.3 3.5-8.2.9-3.4 1.4-6.9 1.1-10.5-.1-1.8-.3-3.5-.8-5.2-.7-2.8-1.7-5.4-3.4-7.7-.7-1-1.5-2-2.5-2.7-3.8-2.6-8.1-2.1-11.6.9-2.3 2-4 4.5-5.4 7.2-.8 1.6-1.5 3.3-2.2 5-.6 1.5-1.2 3-1.6 4.5-1.2 4-2.2 8.1-2.9 12.2-.2 1.4-.5 2.8-.7 4.2-.2 1.5-.3 3-.5 4.4-.2 1.9-.4 3.9-.5 5.9-.1 1.6-.1 3.2-.2 4.8-.1 1.4-.1 1.4 1.4 1.4.3-.1.4-.1.4-.1m-4-75.3c.9.3 1.8.6 2.6 1 2.4 1.3 3.8 3.3 4.1 6 .3 2.5-.5 4.7-1.6 6.8-1.3 2.4-3 4.5-4.8 6.5-.7.8-1.5 1.7-2.2 2.5-1.3 1.4-3 2-4.9 1.8-2.7-.3-4.5-1.9-5.3-4.4-.4-1.1-.3-2.3.1-3.4.1-.5.3-.9.5-1.3v-.3h-.3l-.6.3c-2.6 1.4-4.9 3.1-7 5.1-2.4 2.3-4.5 4.9-6.1 7.8-1.3 2.5-2.3 5.1-3 7.9-.8 3.4-.9 6.8-.7 10.2.1 1.7.6 3.4.9 5.1.4 1.8 1.1 3.6 1.9 5.3 1 2.1 2.2 4.2 3.6 6 1 1.3 2 2.5 3.2 3.6 2 1.9 4.2 3.7 6.7 4.9.9.5 1.9 1 2.8 1.4.5.2.6.1.7-.4v-.1c.1-1.7.1-3.4.2-5.2.1-1.2.2-2.5.3-3.7.1-.9.1-1.8.2-2.7.3-2.2.6-4.5.9-6.7l.9-5.4c.3-1.4.7-2.8 1-4.2.6-2.9 1.6-5.8 2.5-8.7 1.6-4.6 3.6-8.9 6.3-12.9 1.3-2 2.9-3.9 4.6-5.5 3-2.8 6.5-4.8 10.5-5.7 3.1-.7 6.2-.7 9.3 0 2.3.5 4.5 1.3 6.5 2.5 2.1 1.3 4 2.8 5.4 4.8.8 1.1 1.7 2.3 2.5 3.5.8 1.3 1.3 2.7 2 4 1 2 1.6 4.2 2.1 6.4.4 1.7.6 3.5.9 5.3.2 1.4.3 2.8.4 4.2 0 1.3-.1 2.7-.2 4-.2 1.8-.5 3.6-.8 5.4-.2 1.1-.5 2.1-.8 3.1-.6 1.8-1.2 3.6-1.9 5.4-1.5 3.6-3.5 6.9-5.8 10-.8 1.1-1.7 2.2-2.7 3.2-1.2 1.3-2.5 2.4-3.9 3.6-1.2 1.1-2.5 2.1-3.8 3-2 1.5-4.2 2.7-6.5 3.7-3.3 1.4-6.6 2.5-10.2 3.1-2.3.4-4.6.6-6.9.8-.6.1-.7.2-.6.8.3 2.2.4 4.4.8 6.5.6 3.3 1.2 6.5 2.2 9.7.8 2.6.3 4.6-1.8 6.5-.8.8-1.8 1.1-2.9 1.5h-2.2c-.1-.1-.2-.1-.3-.2-2.4-.6-3.8-2.1-4.5-4.4-.3-1.1-.6-2.1-.9-3.2-.4-1.4-.8-2.9-1-4.3-.4-2.1-.6-4.3-.9-6.4-.3-2.4-.5-4.8-.8-7.2-.1-.6-.2-.9-.8-1.1-1.2-.4-2.4-.7-3.6-1.2-1.8-.8-3.6-1.6-5.3-2.5-2.3-1.2-4.5-2.7-6.5-4.4-1.7-1.5-3.4-3.1-5-4.8-1-1.1-2-2.3-2.8-3.5-1.7-2.4-3.1-5-4.4-7.7-1.8-3.9-2.9-7.9-3.4-12.2-.1-.7-.3-1.4-.4-2.2v-7.5c.1-.2.2-.4.2-.7.1-.8.1-1.6.3-2.4.5-2.4 1-4.8 1.8-7.1 1-3.1 2.4-6 4-8.7 1.2-2 2.6-3.9 4.1-5.7 3-3.5 6.4-6.4 10.3-8.8 3.9-2.5 8.1-4.3 12.7-5.3 1.4-.3 2.8-.6 4.1-1l4-.1z" class="st3"/>
  <text text-anchor="end" x="820" y="27" class="st4 st5 st6">
    L’AVENIR
  </text>
  <text text-anchor="end" x="820" y="46" class="st4 st5 st6">
    EN COMMUN
  </text>
  <text text-anchor="end" x="820" y="70" class="st2 st7 st8">
    avec <tspan class="fbcover-candidate-firstname">Charlotte</tspan>
  </text>
  <text class="fbcover-candidate-lastname st3 st7 st9" text-anchor="end" x="820" y="102">
    RARGIS
  </text>
  <text text-anchor="end" x="820" y="128" class="st2 st7 st8">
    et <tspan class="fbcover-substitute-firstname">Alexis</tspan>
  </text>
  <text class="fbcover-substitute-lastname st3 st7 st10" text-anchor="end" x="820" y="156">
    BIERECORD
  </text>
  <text class="fbcover-circonscription st1 st5 st11" text-anchor="end" x="600" y="295">
    Val-du-Rhône, 5e circonscription
  </text>
  <text class="fbcover-title st3 st13 st14" text-anchor="start" x="30" y="152">
    Poursuivons ensemble
  </text>
  <text class="fbcover-subtitle st3 st13 st15" text-anchor="start" x="30" y="184">
    Redonnons le pouvoir au peuple !
  </text>
</svg>
