<?xml version="1.0" encoding="UTF-8" standalone="no"?>
<svg
   xmlns:dc="http://purl.org/dc/elements/1.1/"
   xmlns:cc="http://creativecommons.org/ns#"
   xmlns:rdf="http://www.w3.org/1999/02/22-rdf-syntax-ns#"
   xmlns:svg="http://www.w3.org/2000/svg"
   xmlns="http://www.w3.org/2000/svg"
   width="512"
   height="512"
   viewBox="0 0 512.00001 512.00001"
   id="svg9705"
   version="1.1">
  <defs
     id="defs9707" />
  <metadata
     id="metadata9710">
    <rdf:RDF>
      <cc:Work
         rdf:about="">
        <dc:format>image/svg+xml</dc:format>
        <dc:type
           rdf:resource="http://purl.org/dc/dcmitype/StillImage" />
        <dc:title></dc:title>
      </cc:Work>
    </rdf:RDF>
  </metadata>
  <g
     id="layer1"
     transform="translate(0,-540.36216)" />
  <style
     id="style10573">.st0{fill:#7289DA;}</style>
  <g
     transform="matrix(0.4285788,0,0,0.4285788,-353.14448,387.73977)"
     id="g5932">
    <path
       style="fill:#ffffff;fill-opacity:0.47843137"
       d="m 1320.325,-656.4584 c -2.6801,-2.14011 -4.1654,-4.94622 -4.4888,-8.4806 l -0.1587,-1.73547 31.4063,-88.45982 31.4064,-88.45982 1.4489,-1.46614 c 1.8483,-1.87026 4.7604,-3.25635 7.3774,-3.51148 l 2.0516,-0.19999 88.4598,31.4064 88.4597,31.40635 1.4662,1.4489 c 1.8703,1.84832 3.2563,4.76034 3.5115,7.37744 l 0.1999,2.05155 -31.4063,88.45982 -31.4065,88.45976 -1.2396,1.27077 c -1.686,1.72739 -4.0512,3.10173 -5.9695,3.46853 -3.5763,0.68379 -2.8413,0.89822 -30.1982,-8.81033 l -25.2426,-8.95777 13.2642,-37.35997 13.2641,-37.35998 12.4841,4.4323 c 11.6218,4.12619 12.5084,4.39892 12.8378,3.94941 0.1947,-0.26563 0.9481,-1.67988 1.6742,-3.14312 1.6702,-3.3652 6.4972,-12.86788 9.3201,-18.34813 1.19,-2.31023 2.3097,-4.61156 2.4881,-5.11411 l 0.3244,-0.9138 -14.383,-5.10651 -14.383,-5.10644 4.2639,-11.61108 c 3.6854,-10.03554 4.4186,-11.81196 5.4036,-13.09173 2.5992,-3.37688 5.4635,-4.65091 9.9446,-4.42301 1.2867,0.0654 4.1963,0.91874 11.8083,3.46313 l 10.1009,3.37636 4.6236,-12.76593 c 2.5427,-7.0213 4.5546,-12.90623 4.4693,-13.0782 -0.5005,-1.01599 -19.8386,-8.90727 -25.5375,-10.42102 -10.3311,-2.74424 -19.3064,-2.20126 -27.281,1.65064 -5.9616,2.8796 -10.291,6.77864 -14.524,13.08071 -2.7805,4.13964 -5.1444,9.64203 -9.9404,23.1391 l -3.5353,9.9575 -12.5048,-4.43962 -12.5048,-4.43969 -5.207,14.66609 -5.2069,14.66617 12.5047,4.43962 12.5048,4.43962 -13.2642,37.35998 -13.2641,37.35997 -47.0051,-16.69994 c -44.4168,-15.78037 -47.0826,-16.76174 -48.4137,-17.82468 z"
       id="path4588" />
    <path
       style="fill:#ffffff;fill-opacity:0.47843137"
       d="m 1797.2963,-498.65963 c -14.4973,-0.60733 -32.4135,-4.1425 -46.9681,-9.26775 -11.3785,-4.00672 -20.8774,-8.40029 -30.513,-14.11315 l -4.3146,-2.55804 10.3839,0.2126 c 11.6433,0.23843 16.7847,-0.19935 27.246,-2.31985 16.422,-3.32871 30.771,-9.56567 44.7644,-19.45732 2.1372,-1.51074 3.8858,-2.90486 3.8858,-3.09808 0,-0.19325 -1.009,-0.39414 -2.2422,-0.44645 -10.3835,-0.44061 -22.4763,-4.86827 -31.2139,-11.42877 -4.3062,-3.23311 -9.4588,-8.44829 -12.7631,-12.91802 -2.3847,-3.22561 -7.2437,-12.52674 -7.8521,-15.03041 -0.3073,-1.26394 -0.2754,-1.28764 1.2697,-0.94409 0.8717,0.19382 5.0899,0.34592 9.3737,0.33798 5.9524,-0.0103 8.6791,-0.22478 11.565,-0.90679 l 3.7764,-0.89245 -3.0683,-0.80152 c -22.2534,-5.81326 -39.2322,-24.31847 -43.2027,-47.08661 -0.6763,-3.87869 -0.9565,-10.4837 -0.4446,-10.4837 0.1381,0 0.723,0.29635 1.2981,0.65855 3.9008,2.45703 14.5851,5.53795 21.3434,6.15453 l 3.3042,0.30145 -1.8685,-1.55108 c -9.3031,-7.723 -14.6927,-14.45693 -18.8087,-23.50109 -7.0715,-15.53814 -6.7163,-34.91341 0.9191,-50.15457 1.6186,-3.23058 2.1789,-3.72376 2.8591,-2.51599 0.9931,1.76354 11.0651,12.365 15.8144,16.64584 16.9815,15.3065 32.9775,25.13224 54.6614,33.57634 12.1279,4.72269 32.7591,9.27016 46.2051,10.18422 l 3.9571,0.26903 -0.3324,-2.2323 c -1.1902,-7.99193 -1.0865,-18.76083 0.2305,-23.88788 3.1731,-12.35347 8.2409,-21.3719 16.6569,-29.64205 22.1705,-21.78618 57.8822,-22.3116 80.8979,-1.19021 l 3.3323,3.05808 6.0716,-1.56629 c 10.1497,-2.61816 18.1369,-5.68582 26.4572,-10.16141 2.3846,-1.28276 4.4503,-2.33227 4.5906,-2.33227 0.7847,0 -3.7936,9.65656 -6.7139,14.1613 -3.008,4.63982 -11.2035,13.0776 -15.3956,15.85064 -3.6546,2.41753 -2.8627,2.51036 6.013,0.70485 7.3921,-1.50377 13.9584,-3.42691 19.5285,-5.71953 1.8642,-0.76731 3.625,-1.39511 3.9129,-1.39511 0.7061,0 -3.9431,6.26703 -8.8478,11.92669 -4.5545,5.25558 -8.8445,9.34907 -15.0211,14.33312 l -4.2933,3.46437 -0.2879,10.51022 c -0.9227,33.69169 -10.895,64.91483 -29.7407,93.11773 -9.8843,14.79219 -23.5965,29.37179 -37.3837,39.74899 -25.5111,19.20135 -55.1346,29.89765 -89.2162,32.21382 -6.6457,0.45159 -12.0411,0.49857 -19.8258,0.17243 z"
       id="path4601" />
    <g
       id="text4149"
       style="font-style:normal;font-weight:normal;font-size:74.41827393px;line-height:125%;font-family:sans-serif;text-align:start;letter-spacing:0px;word-spacing:0px;text-anchor:start;fill:#ffffff;fill-opacity:1;stroke:none;stroke-width:1px;stroke-linecap:butt;stroke-linejoin:miter;stroke-opacity:1">
      <path
         id="path12323"
         style="font-style:normal;font-variant:normal;font-weight:bold;font-stretch:normal;font-size:74.41827393px;font-family:Montserrat;-inkscape-font-specification:'Montserrat Bold';fill:#ffffff;fill-opacity:1"
         d="m 1133.8059,17.039497 -16.2976,0 -13.693,-20.2417701 -6.5488,7.2929908 0,12.9487793 -13.6185,0 0,-52.16721 13.6185,0 0,22.623156 19.572,-22.623156 15.7767,0 -19.3488,21.506882 20.5395,30.660328 z" />
      <path
         id="path12325"
         style="font-style:normal;font-variant:normal;font-weight:bold;font-stretch:normal;font-size:74.41827393px;font-family:Montserrat;-inkscape-font-specification:'Montserrat Bold';fill:#ffffff;fill-opacity:1"
         d="m 1139.3163,-35.127713 13.6186,0 0,52.16721 -13.6186,0 0,-52.16721 z" />
      <path
         id="path12327"
         style="font-style:normal;font-variant:normal;font-weight:bold;font-stretch:normal;font-size:74.41827393px;font-family:Montserrat;-inkscape-font-specification:'Montserrat Bold';fill:#ffffff;fill-opacity:1"
         d="m 1158.4686,-35.127713 44.7254,0 0,11.23716 -15.6279,0 0,40.93005 -13.6185,0 0,-40.93005 -15.479,0 0,-11.23716 z" />
      <path
         id="path12329"
         style="font-style:normal;font-variant:normal;font-weight:bold;font-stretch:normal;font-size:74.41827393px;font-family:Montserrat;-inkscape-font-specification:'Montserrat Bold';fill:#ffffff;fill-opacity:1"
         d="m 1247.6914,-35.127713 q 8.186,0 14.4372,3.274404 6.3255,3.274404 9.8232,9.227866 3.4976,5.879044 3.4976,13.5441262 0,7.6650822 -3.572,13.6185442 -3.4977,5.9534616 -9.9721,9.2278656 -6.4,3.274404 -14.7348,3.274404 l -21.9534,0 0,-52.16721 22.4743,0 z m 0.3721,41.1533058 q 3.9442,0 6.9953,-1.8604568 3.0512,-1.8604569 4.7628,-5.2836975 1.7116,-3.4232406 1.7116,-7.8139187 0,-4.4650968 -1.8604,-7.8883368 -1.7861,-3.423241 -4.9861,-5.283698 -3.1999,-1.934875 -7.2929,-1.934875 l -8.5582,0 0,30.0649828 9.2279,0 z" />
      <path
         id="path12331"
         style="font-style:normal;font-variant:normal;font-weight:bold;font-stretch:normal;font-size:74.41827393px;font-family:Montserrat;-inkscape-font-specification:'Montserrat Bold';fill:#ffffff;fill-opacity:1"
         d="m 1282.1936,-35.127713 41.1533,0 0,10.865068 -27.5348,0 0,9.748794 24.8557,0 0,10.79065 -24.8557,0.074418 0,9.8232122 28.279,0 0,10.8650676 -41.8975,0 0,-52.16721 z" />
      <path
         id="path12333"
         style="font-style:normal;font-variant:normal;font-weight:bold;font-stretch:normal;font-size:74.41827393px;font-family:Montserrat;-inkscape-font-specification:'Montserrat Bold';fill:#ffffff;fill-opacity:1"
         d="m 1386.7838,-17.416163 q -2.5302,-3.199986 -6.0279,-5.060443 -3.4976,-1.934875 -6.9209,-1.934875 -3.9441,0 -7.2185,2.009293 -3.2,1.934875 -5.0605,5.432534 -1.8604,3.423241 -1.8604,7.6650824 0,4.2418416 1.8604,7.7395005 1.8605,3.4232406 5.0605,5.432534 3.2744,1.9348751 7.2185,1.9348751 3.2,0 6.6977,-1.637202 3.4976,-1.637202 6.2511,-4.46509645 l 7.9628,8.55810155 q -4.2419,4.4650959 -10.1209,7.1441539 -5.8046,2.60464 -11.5348,2.60464 -7.7395,0 -13.9907,-3.572077 -6.2511,-3.572077 -9.8232,-9.7487941 -3.5721,-6.1767167 -3.5721,-13.8417989 0,-7.590664 3.6465,-13.692962 3.6465,-6.102299 9.9721,-9.599958 6.4,-3.497659 14.2883,-3.497659 5.8046,0 11.4604,2.455803 5.6558,2.381385 9.6,6.548808 l -7.8884,9.52554 z" />
      <path
         id="path12335"
         style="font-style:normal;font-variant:normal;font-weight:bold;font-stretch:normal;font-size:74.41827393px;font-family:Montserrat;-inkscape-font-specification:'Montserrat Bold';fill:#ffffff;fill-opacity:1"
         d="m 1438.2511,17.039497 -3.5721,-9.2278656 -22.5488,0 -3.6465,9.2278656 -13.9906,0 22.3999,-52.16721 13.9906,0 21.879,52.16721 -14.5115,0 z m -22.0279,-19.6464239 14.4372,0 -7.1442,-18.6045681 -7.293,18.6045681 z" />
      <path
         id="path12337"
         style="font-style:normal;font-variant:normal;font-weight:bold;font-stretch:normal;font-size:74.41827393px;font-family:Montserrat;-inkscape-font-specification:'Montserrat Bold';fill:#ffffff;fill-opacity:1"
         d="m 1457.4835,-35.127713 14.8092,0 15.107,30.5114927 15.0324,-30.5114927 14.8093,0 0,52.16721 -12.0558,0 -0.074,-33.041713 -13.3209,27.832434 -8.7813,0 -13.3953,-27.832434 0,33.041713 -12.1302,0 0,-52.16721 z" />
      <path
         id="path12339"
         style="font-style:normal;font-variant:normal;font-weight:bold;font-stretch:normal;font-size:74.41827393px;font-family:Montserrat;-inkscape-font-specification:'Montserrat Bold';fill:#ffffff;fill-opacity:1"
         d="m 1550.3168,-35.127713 q 9.9721,0 15.479,4.837188 5.507,4.76277 5.507,13.469708 0,9.2278657 -5.507,14.3627266 -5.5069,5.0604426 -15.479,5.0604426 l -9.3022,0 0,14.4371448 -13.6186,0 0,-52.16721 22.9208,0 z m -0.6697,26.8649972 q 4.1674,0 6.3999,-2.0837112 2.307,-2.083712 2.307,-6.027881 0,-3.795332 -2.307,-5.804625 -2.2325,-2.083712 -6.3999,-2.083712 l -8.6325,0 0,15.9999292 8.6325,0 z" />
      <path
         id="path12341"
         style="font-style:normal;font-variant:normal;font-weight:bold;font-stretch:normal;font-size:74.41827393px;font-family:Montserrat;-inkscape-font-specification:'Montserrat Bold';fill:#ffffff;fill-opacity:1"
         d="m 1612.3782,17.039497 -3.5721,-9.2278656 -22.5487,0 -3.6465,9.2278656 -13.9907,0 22.3999,-52.16721 13.9907,0 21.879,52.16721 -14.5116,0 z m -22.0278,-19.6464239 14.4371,0 -7.1441,-18.6045681 -7.293,18.6045681 z" />
      <path
         id="path12343"
         style="font-style:normal;font-variant:normal;font-weight:bold;font-stretch:normal;font-size:74.41827393px;font-family:Montserrat;-inkscape-font-specification:'Montserrat Bold';fill:#ffffff;fill-opacity:1"
         d="m 1664.6873,-9.6022447 11.758,0 0,20.7626987 q -4.1674,3.051149 -10.2697,4.986024 -6.0279,1.860457 -11.4604,1.860457 -7.8883,0 -14.2883,-3.497659 -6.3255,-3.572077 -9.972,-9.7487938 -3.6465,-6.1767168 -3.6465,-13.841799 0,-7.5906642 3.7209,-13.6929622 3.7953,-6.176717 10.3441,-9.674376 6.6232,-3.497659 14.7348,-3.497659 5.8047,0 11.6093,2.15813 5.8046,2.083712 9.8232,5.655789 l -7.7395,9.525539 q -2.8279,-2.679058 -6.5488,-4.241841 -3.6465,-1.562784 -7.2186,-1.562784 -4.1674,0 -7.5162,2.009293 -3.3489,2.009294 -5.2837,5.506952 -1.9349,3.497659 -1.9349,7.8139192 0,4.3906782 1.9349,7.9627553 1.9348,3.4976589 5.3581,5.5069523 3.4232,2.0092934 7.5907,2.0092934 3.9441,0 9.0046,-2.5302213 l 0,-13.4697076 z" />
      <path
         id="path12345"
         style="font-style:normal;font-variant:normal;font-weight:bold;font-stretch:normal;font-size:74.41827393px;font-family:Montserrat;-inkscape-font-specification:'Montserrat Bold';fill:#ffffff;fill-opacity:1"
         d="m 1721.0358,-35.127713 12.6511,0 0,52.16721 -11.9069,0 -23.665,-31.181256 0,31.181256 -12.7255,0 0,-52.16721 11.9813,0 23.7395,31.404512 -0.074,-31.404512 z" />
      <path
         id="path12347"
         style="font-style:normal;font-variant:normal;font-weight:bold;font-stretch:normal;font-size:74.41827393px;font-family:Montserrat;-inkscape-font-specification:'Montserrat Bold';fill:#ffffff;fill-opacity:1"
         d="m 1743.8195,-35.127713 41.1533,0 0,10.865068 -27.5348,0 0,9.748794 24.8557,0 0,10.79065 -24.8557,0.074418 0,9.8232122 28.279,0 0,10.8650676 -41.8975,0 0,-52.16721 z" />
    </g>
    <g
       id="text4744"
       style="font-style:normal;font-weight:normal;font-size:111.16351318px;line-height:125%;font-family:sans-serif;text-align:start;letter-spacing:0px;word-spacing:0px;text-anchor:start;fill:#ffffff;fill-opacity:1;stroke:none;stroke-width:1px;stroke-linecap:butt;stroke-linejoin:miter;stroke-opacity:1">
      <path
         id="path12304"
         style="font-style:normal;font-variant:normal;font-weight:bold;font-stretch:normal;font-size:111.16351318px;font-family:Montserrat;-inkscape-font-specification:'Montserrat Bold';fill:#ffffff;fill-opacity:1"
         d="m 1136.8952,55.167578 18.8978,0 0,77.925622 -17.7862,0 -35.35,-46.577511 0,46.577511 -19.0089,0 0,-77.925622 17.8973,0 35.4612,46.911002 -0.1112,-46.911002 z" />
      <path
         id="path12306"
         style="font-style:normal;font-variant:normal;font-weight:bold;font-stretch:normal;font-size:111.16351318px;font-family:Montserrat;-inkscape-font-specification:'Montserrat Bold';fill:#ffffff;fill-opacity:1"
         d="m 1189.9375,100.96695 q 0,7.33679 4.3354,11.78333 4.3354,4.44654 11.0052,4.44654 6.5587,0 10.5605,-4.33538 4.1131,-4.44654 4.1131,-11.89449 l 0,-45.799372 20.3429,0 0,45.799372 q 0,10.11588 -4.3354,17.78616 -4.2242,7.55912 -12.2279,11.67217 -7.8927,4.11305 -18.5644,4.11305 -10.6716,0 -18.7866,-4.11305 -8.0038,-4.11305 -12.4503,-11.67217 -4.3354,-7.67028 -4.3354,-17.78616 l 0,-45.799372 20.3429,0 0,45.799372 z" />
      <path
         id="path12308"
         style="font-style:normal;font-variant:normal;font-weight:bold;font-stretch:normal;font-size:111.16351318px;font-family:Montserrat;-inkscape-font-specification:'Montserrat Bold';fill:#ffffff;fill-opacity:1"
         d="m 1254.0841,55.167578 22.1216,0 22.5661,45.577042 22.4551,-45.577042 22.1215,0 0,77.925622 -18.0085,0 -0.1111,-49.356599 -19.8983,41.575149 -13.1173,0 -20.0094,-41.575149 0,49.356599 -18.1197,0 0,-77.925622 z" />
      <path
         id="path12310"
         style="font-style:normal;font-variant:normal;font-weight:bold;font-stretch:normal;font-size:111.16351318px;font-family:Montserrat;-inkscape-font-specification:'Montserrat Bold';fill:#ffffff;fill-opacity:1"
         d="m 1358.517,55.167578 61.4734,0 0,16.229873 -41.1305,0 0,14.56242 37.1286,0 0,16.118709 -37.1286,0.11116 0,14.67359 42.2422,0 0,16.22987 -62.5851,0 0,-77.925622 z m 34.5719,-24.567136 16.341,6.225156 -16.1187,12.783804 -13.562,-1.111635 13.3397,-17.897325 z" />
      <path
         id="path12312"
         style="font-style:normal;font-variant:normal;font-weight:bold;font-stretch:normal;font-size:111.16351318px;font-family:Montserrat;-inkscape-font-specification:'Montserrat Bold';fill:#ffffff;fill-opacity:1"
         d="m 1480.4391,133.0932 -11.3387,-21.56572 -0.4447,0 -14.6735,0 0,21.56572 -20.343,0 0,-77.925622 35.0165,0 q 15.4518,0 23.9002,7.225628 8.5596,7.114465 8.5596,20.120596 0,8.781918 -3.5573,15.229401 -3.5572,6.336317 -10.3382,9.893557 l 16.2299,25.45644 -23.0108,0 z m -26.4569,-37.795594 14.7847,0 q 6.2252,0 9.5601,-3.112578 3.446,-3.112579 3.446,-9.004245 0,-5.669339 -3.446,-8.670754 -3.3349,-3.112578 -9.5601,-3.112578 l -14.7847,0 0,23.900155 z" />
      <path
         id="path12314"
         style="font-style:normal;font-variant:normal;font-weight:bold;font-stretch:normal;font-size:111.16351318px;font-family:Montserrat;-inkscape-font-specification:'Montserrat Bold';fill:#ffffff;fill-opacity:1"
         d="m 1514.1894,55.167578 20.3429,0 0,77.925622 -20.3429,0 0,-77.925622 z" />
      <path
         id="path12316"
         style="font-style:normal;font-variant:normal;font-weight:bold;font-stretch:normal;font-size:111.16351318px;font-family:Montserrat;-inkscape-font-specification:'Montserrat Bold';fill:#ffffff;fill-opacity:1"
         d="m 1632.7296,142.98675 q -4.4465,4.00189 -10.6717,6.33632 -6.114,2.33444 -12.0057,2.33444 -7.8926,0 -14.4512,-4.55771 -6.5587,-4.5577 -10.4494,-12.56147 -11.561,-0.33349 -20.7876,-5.66934 -9.2265,-5.44701 -14.5624,-14.56242 -5.2247,-9.11541 -5.2247,-20.342926 0,-11.338678 5.447,-20.454086 5.5582,-9.115408 15.1183,-14.340094 9.6712,-5.224685 21.5657,-5.224685 11.8945,0 21.4546,5.224685 9.6712,5.224686 15.1182,14.340094 5.5582,9.115408 5.5582,20.454086 0,12.894966 -6.8922,22.899686 -6.8921,10.00471 -18.4531,14.56242 4.113,4.78003 8.7819,4.78003 2.6679,0 6.114,-1.55629 3.5572,-1.55629 7.2256,-4.22421 l 7.1145,12.56147 z m -67.2539,-48.911942 q 0,6.447482 2.8902,11.783332 3.0014,5.22469 7.8926,8.33726 4.8912,3.00142 10.6717,3.00142 5.7805,0 10.5606,-3.00142 4.8912,-3.11257 7.6702,-8.33726 2.7791,-5.33585 2.7791,-11.783332 0,-6.336321 -2.7791,-11.561006 -2.779,-5.335848 -7.6702,-8.337263 -4.7801,-3.001415 -10.5606,-3.001415 -5.7805,0 -10.7828,3.001415 -4.8912,3.001415 -7.7815,8.337263 -2.8902,5.224685 -2.8902,11.561006 z" />
      <path
         id="path12318"
         style="font-style:normal;font-variant:normal;font-weight:bold;font-stretch:normal;font-size:111.16351318px;font-family:Montserrat;-inkscape-font-specification:'Montserrat Bold';fill:#ffffff;fill-opacity:1"
         d="m 1658.4744,100.96695 q 0,7.33679 4.3354,11.78333 4.3353,4.44654 11.0052,4.44654 6.5586,0 10.5605,-4.33538 4.113,-4.44654 4.113,-11.89449 l 0,-45.799372 20.343,0 0,45.799372 q 0,10.11588 -4.3354,17.78616 -4.2242,7.55912 -12.228,11.67217 -7.8926,4.11305 -18.5643,4.11305 -10.6717,0 -18.7866,-4.11305 -8.0038,-4.11305 -12.4504,-11.67217 -4.3353,-7.67028 -4.3353,-17.78616 l 0,-45.799372 20.3429,0 0,45.799372 z" />
      <path
         id="path12320"
         style="font-style:normal;font-variant:normal;font-weight:bold;font-stretch:normal;font-size:111.16351318px;font-family:Montserrat;-inkscape-font-specification:'Montserrat Bold';fill:#ffffff;fill-opacity:1"
         d="m 1722.6209,55.167578 61.4735,0 0,16.229873 -41.1305,0 0,14.56242 37.1286,0 0,16.118709 -37.1286,0.11116 0,14.67359 42.2421,0 0,16.22987 -62.5851,0 0,-77.925622 z" />
    </g>
    <g
       id="text4165"
       style="font-style:normal;font-weight:normal;font-size:66.21674347px;line-height:125%;font-family:sans-serif;text-align:start;letter-spacing:0px;word-spacing:0px;text-anchor:start;fill:#ffffff;fill-opacity:1;stroke:none;stroke-width:1px;stroke-linecap:butt;stroke-linejoin:miter;stroke-opacity:1">
      <path
         id="path12275"
         style="font-style:normal;font-variant:normal;font-weight:bold;font-stretch:normal;font-size:76.36448669px;font-family:Montserrat;-inkscape-font-specification:'Montserrat Bold';fill:#ffffff;fill-opacity:1"
         d="m 1107.3421,170.29891 q 10.2328,0 15.8838,4.96369 5.651,4.88733 5.651,13.82197 0,9.4692 -5.651,14.73835 -5.651,5.19278 -15.8838,5.19278 l -9.5456,0 0,14.81471 -13.9747,0 0,-53.5315 23.5203,0 z m -0.6873,27.56758 q 4.2764,0 6.5673,-2.13821 2.3673,-2.1382 2.3673,-6.18552 0,-3.89459 -2.3673,-5.95643 -2.2909,-2.13821 -6.5673,-2.13821 l -8.8583,0 0,16.41837 8.8583,0 z" />
      <path
         id="path12277"
         style="font-style:normal;font-variant:normal;font-weight:bold;font-stretch:normal;font-size:76.36448669px;font-family:Montserrat;-inkscape-font-specification:'Montserrat Bold';fill:#ffffff;fill-opacity:1"
         d="m 1161.2315,169.4589 q 8.171,0 14.7384,3.58913 6.6437,3.58913 10.3856,9.85102 3.8182,6.26189 3.8182,14.05106 0,7.86555 -3.8182,14.2038 -3.7419,6.33825 -10.3856,10.00375 -6.5674,3.66549 -14.7384,3.66549 -8.171,0 -14.8147,-3.58913 -6.5673,-3.66549 -10.3855,-10.00375 -3.7419,-6.41461 -3.7419,-14.28016 0,-7.78917 3.7419,-14.05106 3.8182,-6.26189 10.3855,-9.85102 6.6437,-3.58913 14.8147,-3.58913 z m 0.1528,11.83649 q -3.971,0 -7.4074,2.06185 -3.36,2.06184 -5.3455,5.72733 -1.9855,3.58913 -1.9855,7.94191 0,4.42914 1.9855,8.09463 2.0618,3.58914 5.4219,5.72734 3.36,2.06184 7.331,2.06184 3.9709,0 7.2546,-2.06184 3.36,-2.1382 5.2691,-5.72734 1.9092,-3.66549 1.9092,-8.09463 0,-4.35278 -1.9092,-7.94191 -1.9091,-3.66549 -5.2691,-5.72733 -3.2837,-2.06185 -7.2546,-2.06185 z" />
      <path
         id="path12279"
         style="font-style:normal;font-variant:normal;font-weight:bold;font-stretch:normal;font-size:76.36448669px;font-family:Montserrat;-inkscape-font-specification:'Montserrat Bold';fill:#ffffff;fill-opacity:1"
         d="m 1210.2337,201.76108 q 0,5.04005 2.9782,8.09463 2.9782,3.05458 7.5601,3.05458 4.5055,0 7.2546,-2.97821 2.8255,-3.05458 2.8255,-8.171 l 0,-31.46217 13.9747,0 0,31.46217 q 0,6.94917 -2.9782,12.21832 -2.9019,5.19278 -8.4001,8.01827 -5.4219,2.82548 -12.7529,2.82548 -7.331,0 -12.9056,-2.82548 -5.4982,-2.82549 -8.5528,-8.01827 -2.9782,-5.26915 -2.9782,-12.21832 l 0,-31.46217 13.9747,0 0,31.46217 z" />
      <path
         id="path12281"
         style="font-style:normal;font-variant:normal;font-weight:bold;font-stretch:normal;font-size:76.36448669px;font-family:Montserrat;-inkscape-font-specification:'Montserrat Bold';fill:#ffffff;fill-opacity:1"
         d="m 1286.449,223.83041 -7.7892,-14.81471 -0.3054,0 -10.0801,0 0,14.81471 -13.9747,0 0,-53.5315 24.0548,0 q 10.6146,0 16.4183,4.96369 5.8801,4.88733 5.8801,13.82197 0,6.0328 -2.4437,10.46194 -2.4436,4.35277 -7.1019,6.79644 l 11.1493,17.48746 -15.8075,0 z m -18.1747,-25.96392 10.1564,0 q 4.2765,0 6.5674,-2.13821 2.3673,-2.1382 2.3673,-6.18552 0,-3.89459 -2.3673,-5.95643 -2.2909,-2.13821 -6.5674,-2.13821 l -10.1564,0 0,16.41837 z" />
      <path
         id="path12283"
         style="font-style:normal;font-variant:normal;font-weight:bold;font-stretch:normal;font-size:76.36448669px;font-family:Montserrat;-inkscape-font-specification:'Montserrat Bold';fill:#ffffff;fill-opacity:1"
         d="m 1326.637,170.29891 13.9747,0 0,53.5315 -13.9747,0 0,-53.5315 z" />
      <path
         id="path12285"
         style="font-style:normal;font-variant:normal;font-weight:bold;font-stretch:normal;font-size:76.36448669px;font-family:Montserrat;-inkscape-font-specification:'Montserrat Bold';fill:#ffffff;fill-opacity:1"
         d="m 1387.527,170.29891 12.9819,0 0,53.5315 -12.2183,0 -24.2839,-31.99672 0,31.99672 -13.0583,0 0,-53.5315 12.2947,0 24.3602,32.22581 -0.076,-32.22581 z" />
      <path
         id="path12287"
         style="font-style:normal;font-variant:normal;font-weight:bold;font-stretch:normal;font-size:76.36448669px;font-family:Montserrat;-inkscape-font-specification:'Montserrat Bold';fill:#ffffff;fill-opacity:1"
         d="m 1447.7905,186.41182 q -4.2765,-2.52003 -9.1638,-4.12369 -4.8109,-1.60365 -8.0946,-1.60365 -2.5964,0 -4.1237,0.99274 -1.4509,0.91637 -1.4509,2.74912 0,1.75638 1.2982,2.97821 1.2982,1.14547 3.2073,1.90912 1.9091,0.68728 5.651,1.83274 5.5746,1.60366 9.1637,3.20731 3.6655,1.60366 6.2619,4.96369 2.5964,3.28368 2.5964,8.62919 0,5.34551 -2.8255,9.16374 -2.8255,3.74186 -7.7892,5.65097 -4.8873,1.90911 -10.9201,1.90911 -6.6437,0 -13.2874,-2.29093 -6.5674,-2.3673 -11.3783,-6.41462 l 5.4218,-10.92012 q 4.0474,3.58913 9.5456,5.88007 5.5746,2.29093 9.851,2.29093 3.131,0 4.8873,-1.14547 1.8328,-1.14546 1.8328,-3.36003 0,-1.83275 -1.3746,-3.05458 -1.2982,-1.22184 -3.36,-1.90912 -1.9855,-0.76364 -5.651,-1.75638 -5.4982,-1.52729 -9.0874,-3.05458 -3.5891,-1.60365 -6.1855,-4.7346 -2.52,-3.20731 -2.52,-8.47646 0,-4.96369 2.5964,-8.70555 2.6727,-3.74186 7.4837,-5.72733 4.8873,-2.06184 11.3019,-2.06184 5.8037,0 11.4547,1.68001 5.651,1.60366 9.9274,4.35278 l -5.2691,11.14922 z" />
      <path
         id="path12289"
         style="font-style:normal;font-variant:normal;font-weight:bold;font-stretch:normal;font-size:76.36448669px;font-family:Montserrat;-inkscape-font-specification:'Montserrat Bold';fill:#ffffff;fill-opacity:1"
         d="m 1485.7806,169.4589 q 8.171,0 14.7384,3.58913 6.6437,3.58913 10.3855,9.85102 3.8183,6.26189 3.8183,14.05106 0,7.86555 -3.8183,14.2038 -3.7418,6.33825 -10.3855,10.00375 -6.5674,3.66549 -14.7384,3.66549 -8.171,0 -14.8147,-3.58913 -6.5673,-3.66549 -10.3856,-10.00375 -3.7418,-6.41461 -3.7418,-14.28016 0,-7.78917 3.7418,-14.05106 3.8183,-6.26189 10.3856,-9.85102 6.6437,-3.58913 14.8147,-3.58913 z m 0.1527,11.83649 q -3.9709,0 -7.4073,2.06185 -3.36,2.06184 -5.3455,5.72733 -1.9855,3.58913 -1.9855,7.94191 0,4.42914 1.9855,8.09463 2.0618,3.58914 5.4219,5.72734 3.36,2.06184 7.3309,2.06184 3.971,0 7.2547,-2.06184 3.36,-2.1382 5.2691,-5.72734 1.9091,-3.66549 1.9091,-8.09463 0,-4.35278 -1.9091,-7.94191 -1.9091,-3.66549 -5.2691,-5.72733 -3.2837,-2.06185 -7.2547,-2.06185 z" />
      <path
         id="path12291"
         style="font-style:normal;font-variant:normal;font-weight:bold;font-stretch:normal;font-size:76.36448669px;font-family:Montserrat;-inkscape-font-specification:'Montserrat Bold';fill:#ffffff;fill-opacity:1"
         d="m 1534.7827,201.76108 q 0,5.04005 2.9782,8.09463 2.9783,3.05458 7.5601,3.05458 4.5055,0 7.2547,-2.97821 2.8254,-3.05458 2.8254,-8.171 l 0,-31.46217 13.9747,0 0,31.46217 q 0,6.94917 -2.9782,12.21832 -2.9018,5.19278 -8.4001,8.01827 -5.4218,2.82548 -12.7528,2.82548 -7.331,0 -12.9056,-2.82548 -5.4983,-2.82549 -8.5529,-8.01827 -2.9782,-5.26915 -2.9782,-12.21832 l 0,-31.46217 13.9747,0 0,31.46217 z" />
      <path
         id="path12293"
         style="font-style:normal;font-variant:normal;font-weight:bold;font-stretch:normal;font-size:76.36448669px;font-family:Montserrat;-inkscape-font-specification:'Montserrat Bold';fill:#ffffff;fill-opacity:1"
         d="m 1578.8486,170.29891 15.1966,0 15.502,31.30944 15.4256,-31.30944 15.1965,0 0,53.5315 -12.371,0 -0.076,-33.90583 -13.6692,28.56032 -9.011,0 -13.7457,-28.56032 0,33.90583 -12.4474,0 0,-53.5315 z" />
      <path
         id="path12295"
         style="font-style:normal;font-variant:normal;font-weight:bold;font-stretch:normal;font-size:76.36448669px;font-family:Montserrat;-inkscape-font-specification:'Montserrat Bold';fill:#ffffff;fill-opacity:1"
         d="m 1650.5895,170.29891 13.9747,0 0,53.5315 -13.9747,0 0,-53.5315 z" />
      <path
         id="path12297"
         style="font-style:normal;font-variant:normal;font-weight:bold;font-stretch:normal;font-size:76.36448669px;font-family:Montserrat;-inkscape-font-specification:'Montserrat Bold';fill:#ffffff;fill-opacity:1"
         d="m 1711.7849,186.41182 q -4.2764,-2.52003 -9.1637,-4.12369 -4.811,-1.60365 -8.0947,-1.60365 -2.5964,0 -4.1237,0.99274 -1.4509,0.91637 -1.4509,2.74912 0,1.75638 1.2982,2.97821 1.2982,1.14547 3.2073,1.90912 1.9091,0.68728 5.651,1.83274 5.5746,1.60366 9.1637,3.20731 3.6655,1.60366 6.2619,4.96369 2.5964,3.28368 2.5964,8.62919 0,5.34551 -2.8255,9.16374 -2.8255,3.74186 -7.7891,5.65097 -4.8874,1.90911 -10.9202,1.90911 -6.6437,0 -13.2874,-2.29093 -6.5673,-2.3673 -11.3783,-6.41462 l 5.4219,-10.92012 q 4.0473,3.58913 9.5455,5.88007 5.5746,2.29093 9.8511,2.29093 3.1309,0 4.8873,-1.14547 1.8327,-1.14546 1.8327,-3.36003 0,-1.83275 -1.3745,-3.05458 -1.2982,-1.22184 -3.3601,-1.90912 -1.9854,-0.76364 -5.6509,-1.75638 -5.4983,-1.52729 -9.0874,-3.05458 -3.5891,-1.60365 -6.1855,-4.7346 -2.5201,-3.20731 -2.5201,-8.47646 0,-4.96369 2.5964,-8.70555 2.6728,-3.74186 7.4838,-5.72733 4.8873,-2.06184 11.3019,-2.06184 5.8037,0 11.4547,1.68001 5.6509,1.60366 9.9274,4.35278 l -5.2692,11.14922 z" />
      <path
         id="path12299"
         style="font-style:normal;font-variant:normal;font-weight:bold;font-stretch:normal;font-size:76.36448669px;font-family:Montserrat;-inkscape-font-specification:'Montserrat Bold';fill:#ffffff;fill-opacity:1"
         d="m 1727.9348,194.35372 q 3.1309,0 5.1164,2.06184 2.0618,1.98548 2.0618,5.19279 0,3.13094 -2.0618,5.19278 -1.9855,2.06184 -5.1164,2.06184 -3.131,0 -5.1928,-2.06184 -1.9855,-2.06184 -1.9855,-5.19278 0,-3.20731 1.9855,-5.19279 2.0618,-2.06184 5.1928,-2.06184 z" />
      <path
         id="path12301"
         style="font-style:normal;font-variant:normal;font-weight:bold;font-stretch:normal;font-size:76.36448669px;font-family:Montserrat;-inkscape-font-specification:'Montserrat Bold';fill:#ffffff;fill-opacity:1"
         d="m 1742.1672,170.29891 42.2296,0 0,11.14921 -28.2549,0 0,10.00375 25.5058,0 0,11.07285 -25.5058,0.0764 0,10.08011 29.0185,0 0,11.14921 -42.9932,0 0,-53.5315 z" />
    </g>
    <path
       style="fill:#ffffff;fill-opacity:0.47843137"
       d="m 1107.3148,-516.14681 c -13.0351,-5.91021 -36.8908,-17.20735 -50.3378,-23.83808 -3.0365,-1.4973 -5.4931,-2.63135 -5.4589,-2.51999 0.057,0.18457 11.0701,17.0288 12.4004,18.96549 0.5431,0.79053 -2.7135,1.82917 -69.72854,22.23809 l -70.29812,21.40883 -4.6477,-0.69236 c -8.2999,-1.23643 -15.4999,-6.19574 -19.2067,-13.22965 -1.911,-3.62612 -51.65292,-165.80772 -52.1036,-169.88176 -1.05224,-9.51176 4.18519,-19.98637 12.35505,-24.70956 2.91314,-1.68416 166.81211,-51.95276 170.16861,-52.19151 9.4456,-0.67192 19.6909,5.10821 24.1173,13.60633 0.9158,1.75813 12.6288,39.46808 34.1592,109.97559 l 32.7655,107.30003 -14.1847,-6.43145 z m -68.9661,-59.92713 c 7.5764,-4.76938 14.9533,-13.23596 17.717,-20.33412 l 1.3125,-3.37095 -2.3592,-6.38014 c -2.8523,-7.71341 -7.1125,-16.7933 -11.5412,-24.59813 -4.248,-7.48607 -13.642,-20.6548 -19.585,-27.45433 -4.6142,-5.27918 -4.7281,-5.365 -8.7472,-6.58851 -9.0327,-2.74967 -19.74174,-3.52047 -28.76284,-2.07025 -3.7249,0.59882 -4.3022,0.81616 -4.9198,1.85199 -0.3849,0.64547 -0.4713,1.27372 -0.1921,1.3961 0.2792,0.12238 2.574,0.2923 5.0994,0.37761 6.2397,0.2108 15.49594,1.67049 21.33834,3.36505 2.6575,0.77081 4.8662,1.51324 4.908,1.64983 0.042,0.1366 -1.7199,0.0176 -3.9151,-0.2645 -15.86684,-2.03877 -29.84374,-0.96841 -43.98156,3.36807 -6.3417,1.94517 -16.3193,6.05863 -21.6827,8.93909 -6.234,3.34806 -15.4781,10.03501 -20.5704,14.88019 -1.3906,1.32304 -2.5668,2.28012 -2.6138,2.12683 -0.047,-0.15328 1.5016,-2.1801 3.4414,-4.50405 4.2098,-5.04357 11.0608,-11.39629 16.8091,-15.58656 2.2978,-1.67507 4.4748,-3.26746 4.8375,-3.53862 0.5663,-0.42326 0.5174,-0.56849 -0.3447,-1.02598 -0.8474,-0.44957 -1.6134,-0.24936 -4.8987,1.28043 -8.1186,3.78049 -16.2041,10.03956 -22.2306,17.20886 -3.2927,3.91702 -3.7097,5.41485 -4.7473,17.05015 -1.7171,19.25354 0.2893,42.73153 4.9503,57.92871 l 1.1543,3.76367 4.2576,2.50284 c 9.6841,5.69289 23.0807,7.50706 33.3612,4.51784 l 4.14,-1.20375 2.3562,-5.78029 2.3561,-5.78028 -4.5961,-0.3947 c -5.8552,-0.50285 -11.48,-2.12471 -16.2028,-4.67191 -2.046,-1.10349 -3.5336,-2.06349 -3.3059,-2.13334 0.2277,-0.0698 1.9757,0.24076 3.8843,0.69023 8.3404,1.96416 21.6044,2.43768 31.7016,1.13171 13.15302,-1.70118 26.69006,-6.78055 37.16866,-13.94638 5.2037,-3.55857 12.1335,-9.32168 15.1607,-12.60816 1.5921,-1.72842 3.005,-3.08406 3.1399,-3.01245 0.3489,0.18508 -3.7591,7.64594 -5.1938,9.43295 -1.8554,2.31102 -6.2108,6.44488 -8.6384,8.19908 -1.2069,0.87205 -2.2108,1.76569 -2.231,1.98585 -0.02,0.22015 2.2768,1.95839 5.1043,3.86276 l 5.1409,3.46254 4.1611,-1.72976 c 2.2885,-0.95137 5.7804,-2.7492 7.7598,-3.99522 z m -81.12966,-6.26454 c -2.7265,-0.35317 -6.4697,-2.48933 -8.4563,-4.82587 -1.7686,-2.07991 -3.5061,-7.74511 -3.2078,-10.45891 1.0009,-9.10822 9.7203,-14.19058 17.9609,-10.46905 3.8863,1.75512 5.8252,4.29722 6.926,9.08103 1.1747,5.10534 0.2542,9.2478 -2.8213,12.69592 -1.8445,2.06792 -2.8034,2.70349 -5.1485,3.4126 -1.655,0.5002 -3.8914,0.74064 -5.253,0.56428 z m 42.77482,-13.33751 c -10.6434,-2.07882 -14.8736,-16.63931 -6.9291,-23.84979 1.6709,-1.51647 2.7901,-2.07394 5.4244,-2.70191 4.09274,-0.9756 7.55504,-0.0296 11.02804,3.01321 2.1402,1.87506 2.4709,2.45636 3.727,6.55199 1.2561,4.09563 1.3083,4.76234 0.5874,7.51492 -1.2045,4.59926 -3.5064,7.217 -7.6937,8.74926 -2.8595,1.0464 -3.8743,1.16553 -6.14404,0.72232 z"
       id="path4614" />
    <path
       style="opacity:1;fill:#ffffff;fill-opacity:1;stroke:none;stroke-width:3;stroke-linecap:round;stroke-linejoin:round;stroke-miterlimit:4;stroke-dasharray:none;stroke-dashoffset:0;stroke-opacity:1"
       d="m 1123.5678,-538.04786 c -22.4799,0 -40.5764,18.0964 -40.5764,40.57627 l 0,144.46179 202.5892,0 0,-9.2839 c 0.2095,-0.72423 0.518,-1.43491 0.6122,-2.1741 0.3379,-2.62947 0.3549,-5.32294 0.9428,-7.89081 1.7724,-7.75192 3.2193,-15.56698 5.7413,-23.16581 3.3369,-10.05314 7.988,-19.47197 13.2241,-28.5659 3.7927,-6.58771 8.4058,-12.7088 13.4104,-18.52209 9.7575,-11.33178 20.9723,-20.89209 33.6037,-28.85437 12.864,-8.10833 26.6207,-14.05495 41.4663,-17.44209 4.5119,-1.0296 9.0113,-2.12069 13.5161,-3.18374 l 13.3119,0 0,0 c 2.8767,1.09676 5.9036,1.91521 8.6014,3.34909 7.8655,4.17826 12.3386,10.74835 13.488,19.67951 1.0418,8.1057 -1.4965,15.33701 -5.2523,22.17024 -4.2743,7.77745 -9.7598,14.74613 -15.7324,21.31535 -2.4489,2.69281 -4.869,5.41349 -7.3489,8.07726 -4.2944,4.61385 -9.7731,6.44792 -15.8626,5.83279 -8.8283,-0.89232 -14.6658,-6.07871 -17.4211,-14.27944 -1.1729,-3.49098 -0.9002,-7.46298 0.2077,-11.15547 0.4455,-1.48192 1.0973,-2.90147 1.6076,-4.36579 0.092,-0.26137 0.061,-0.72727 -0.1099,-0.87597 -0.1783,-0.15851 -0.6279,-0.14698 -0.8936,-0.0421 -0.7199,0.28511 -1.4234,0.63126 -2.1038,1.00262 -8.382,4.58394 -16.1124,10.03817 -23.0038,16.70331 -7.8539,7.59794 -14.7367,15.96686 -19.8485,25.61431 -4.3032,8.1233 -7.5994,16.65585 -9.7272,25.69875 -2.5969,11.03435 -2.9466,22.17078 -2.3394,33.33274 0.3026,5.5748 1.8349,11.0951 2.9657,16.60832 1.2304,5.99634 3.55,11.61838 6.1037,17.17119 3.2103,6.97931 7.0402,13.59343 11.7253,19.64786 3.1733,4.09992 6.6223,8.04351 10.3569,11.63391 6.5569,6.30522 13.6801,11.94811 21.8465,16.11581 3.0536,1.55761 6.1029,3.12577 9.2171,4.55576 1.5321,0.70401 1.9313,0.35981 2.1426,-1.30164 0.018,-0.11005 0.018,-0.22333 0.018,-0.33421 0.2464,-5.63466 0.4134,-11.27533 0.7635,-16.90382 0.2534,-4.07354 0.758,-8.13031 1.1328,-12.1968 0.2747,-2.97177 0.4123,-5.96212 0.8021,-8.91805 0.9652,-7.33129 1.9782,-14.65688 3.0923,-21.96618 0.8977,-5.88987 1.8548,-11.77476 3.0078,-17.61798 0.8993,-4.56017 2.2147,-9.03679 3.2119,-13.57936 2.1155,-9.63602 5.1501,-18.99864 8.3199,-28.31963 5.0837,-14.94595 11.651,-29.19239 20.4958,-42.31411 4.4054,-6.53489 9.3254,-12.70382 15.1589,-18.01199 9.8947,-9.00419 21.1072,-15.83796 34.3071,-18.74022 10.0365,-2.20704 20.139,-2.39084 30.2899,-0.0668 7.5328,1.72481 14.7574,4.19551 21.3188,8.17577 6.8436,4.15097 12.9557,9.30386 17.7411,15.83789 2.743,3.74529 5.6862,7.38279 8.049,11.35951 2.4772,4.16857 4.3964,8.67364 6.5083,13.05517 3.1944,6.62378 5.2355,13.66142 6.846,20.78416 1.2891,5.6989 2.0778,11.52148 2.8424,17.32245 0.6047,4.59186 1.0845,9.22935 1.1611,13.85377 0,0.39098 0,0.78359 0,1.17499 l 202.9443,0 0,-144.46179 c 0,-22.47983 -18.0999,-40.57623 -40.5797,-40.57623 l -613.8887,0 z m 372.4647,121.63374 c -7.3651,-0.0108 -14.6608,2.89549 -21.0655,8.33406 -7.6069,6.45921 -13.1935,14.61111 -17.5547,23.5317 -2.6162,5.35305 -4.8879,10.88664 -7.0958,16.42538 -1.9255,4.82945 -3.7843,9.70935 -5.2523,14.69103 -3.8791,13.16661 -7.2661,26.46219 -9.4142,40.04151 -0.726,4.58657 -1.5924,9.15461 -2.1987,13.75525 -0.6354,4.81803 -1.0638,9.6628 -1.5337,14.50106 -0.6205,6.37649 -1.2873,12.75331 -1.7555,19.14125 -0.3793,5.18322 -0.4784,10.38555 -0.7318,15.57756 -0.2226,4.56193 -0.1891,4.61644 4.4362,4.60151 0.2226,-8.9e-4 0.4431,0 0.665,0 -2e-4,0.0634 0.022,0.12662 0.029,0.18995 2.3003,-0.28248 4.5949,-0.62431 6.9022,-0.83727 10.9392,-1.00849 21.2902,-4.1855 31.2114,-8.73511 7.7703,-3.56402 14.9703,-8.10758 21.6778,-13.44919 6.1907,-4.92978 11.6917,-10.53003 16.4429,-16.81587 3.1945,-4.2249 6.0151,-8.7387 8.9111,-13.18183 5.3733,-8.24475 8.8143,-17.38034 11.4016,-26.76821 3.0957,-11.23147 4.4553,-22.70873 3.606,-34.44089 -0.4172,-5.76582 -1.1294,-11.44423 -2.459,-17.04457 -2.1429,-9.02266 -5.5781,-17.54849 -10.9585,-25.11828 -2.3417,-3.2956 -5.0509,-6.65204 -8.3342,-8.90044 -5.4293,-3.71797 -11.2,-5.49038 -16.9283,-5.4986 z m -413.0411,114.35152 0,156.47565 c 0,22.47986 18.0965,40.57633 40.5764,40.57633 l 613.8886,0 c 22.4799,0 40.5798,-18.09647 40.5798,-40.57633 l 0,-156.47565 -212.7526,0 c -0.7974,2.20046 -1.6178,4.3928 -2.5011,6.55749 -4.7961,11.75242 -11.3676,22.49672 -18.8247,32.76284 -2.6718,3.6784 -5.6138,7.10439 -8.6894,10.36744 -3.923,4.16065 -8.2848,7.92998 -12.6435,11.65151 -4.0331,3.44256 -8.2183,6.72629 -12.503,9.85031 -6.6283,4.83118 -13.7718,8.86856 -21.2554,12.17214 -10.6639,4.70636 -21.7335,8.17889 -33.2554,10.2971 -7.5389,1.38512 -15.1342,1.86244 -22.7261,2.54707 -1.9237,0.17328 -2.2297,0.60304 -1.9912,2.5786 0.8597,7.12807 1.3889,14.31143 2.649,21.36817 1.9017,10.65157 4.0271,21.24064 7.1203,31.68273 2.4833,8.38818 1.0595,15.09206 -5.9171,21.41752 -2.7202,2.46566 -6.049,3.55844 -9.3403,4.81604 l -7.3208,0 c -0.2772,-0.17688 -0.5319,-0.44417 -0.8338,-0.5137 -7.7755,-1.8057 -12.4284,-6.9094 -14.8211,-14.24767 -1.1317,-3.4682 -1.9986,-7.02521 -2.8848,-10.56799 -1.1802,-4.7204 -2.5112,-9.42279 -3.3279,-14.20912 -1.1888,-6.96163 -2.07,-13.97983 -2.9095,-20.99514 -0.9442,-7.88745 -1.7936,-15.79291 -2.4626,-23.70756 -0.1657,-1.97574 -0.7131,-2.95577 -2.6314,-3.52855 -3.917,-1.17042 -7.8762,-2.32355 -11.6163,-3.94715 -5.8908,-2.55644 -11.687,-5.35622 -17.3929,-8.30605 -7.6824,-3.97132 -14.775,-8.93232 -21.3294,-14.51858 -5.7208,-4.87698 -11.0794,-10.20862 -16.2776,-15.64792 -3.4153,-3.57192 -6.4433,-7.56217 -9.3191,-11.59522 -5.5994,-7.85137 -10.2684,-16.25231 -14.3076,-25.0233 -1.7045,-3.70287 -3.2009,-7.45974 -4.5381,-11.26101 l -210.4414,0 z"
       id="rect4175" />
    <path
       style="fill:none;fill-rule:evenodd;stroke:#ffffff;stroke-width:45.02997589;stroke-linecap:butt;stroke-linejoin:round;stroke-miterlimit:4;stroke-dasharray:none;stroke-opacity:1"
       d="m 1193.9808,-478.00416 101.4754,-122.2689 275.1582,0 105.3608,124.51221"
       id="path4575" />
  </g>
</svg>
