<?xml version="1.0" encoding="UTF-8" standalone="no"?>
<svg
   xmlns:dc="http://purl.org/dc/elements/1.1/"
   xmlns:cc="http://creativecommons.org/ns#"
   xmlns:rdf="http://www.w3.org/1999/02/22-rdf-syntax-ns#"
   xmlns:svg="http://www.w3.org/2000/svg"
   xmlns="http://www.w3.org/2000/svg"
   width="512"
   height="512"
   viewBox="0 0 512.00001 512.00001"
   id="svg9705"
   version="1.1">
  <defs
     id="defs9707" />
  <metadata
     id="metadata9710">
    <rdf:RDF>
      <cc:Work
         rdf:about="">
        <dc:format>image/svg+xml</dc:format>
        <dc:type
           rdf:resource="http://purl.org/dc/dcmitype/StillImage" />
        <dc:title></dc:title>
      </cc:Work>
    </rdf:RDF>
  </metadata>
  <style
     id="style10573">.st0{fill:#7289DA;}</style>
  <g
     transform="matrix(0.8863258,0.46306218,-0.46306218,0.8863258,-423.78222,-471.57827)"
     id="g10724">
    <rect
       ry="3.1074901e-06"
       y="232"
       x="967.89099"
       height="256"
       width="192"
       id="rect10726"
       style="opacity:1;fill:#ffffff;fill-opacity:1;stroke:#b3b3b3;stroke-width:16;stroke-linecap:round;stroke-linejoin:miter;stroke-miterlimit:4;stroke-dasharray:none;stroke-dashoffset:0;stroke-opacity:1" />
    <rect
       ry="3.1074901e-06"
       y="256"
       x="991.89099"
       height="16"
       width="40.109013"
       id="rect10728"
       style="opacity:1;fill:#00afcc;fill-opacity:1;stroke:none;stroke-width:15.78199959;stroke-linecap:round;stroke-linejoin:miter;stroke-miterlimit:4;stroke-dasharray:none;stroke-dashoffset:0;stroke-opacity:1" />
    <rect
       ry="3.1074901e-06"
       y="256"
       x="1081.2346"
       height="16"
       width="54.656338"
       id="rect10730"
       style="opacity:1;fill:#00afcc;fill-opacity:1;stroke:none;stroke-width:15.78199959;stroke-linecap:round;stroke-linejoin:miter;stroke-miterlimit:4;stroke-dasharray:none;stroke-dashoffset:0;stroke-opacity:1" />
    <path
       id="path10732"
       d="m 975.89102,451.52406 176.00008,-19.12206 0,47.598 -176.00008,0 z"
       style="fill:#00afcc;fill-opacity:1;fill-rule:evenodd;stroke:none;stroke-width:1px;stroke-linecap:butt;stroke-linejoin:miter;stroke-opacity:1" />
    <path
       style="opacity:1;fill:none;fill-opacity:1;stroke:#c9452e;stroke-width:15.78199959;stroke-linecap:round;stroke-linejoin:round;stroke-miterlimit:4;stroke-dasharray:none;stroke-dashoffset:0;stroke-opacity:1"
       d="m 1052.5556,313.31418 c 8.1593,-7.8575 10.4584,-12.6563 8.1127,-15.25938 -2.3458,-2.60306 -16.4467,2.49163 -23.1256,6.34012 -13.8729,7.99384 -22.6974,22.86777 -22.6974,40.84556 0,27.09511 21.9649,49.06001 49.06,49.06001 27.0951,0 48.5118,-21.03681 49.06,-49.06001 0.5483,-28.02319 -18.3924,-42.54727 -34.7229,-29.33858 -20.9396,16.9366 -28.9692,67.54465 -17.4697,110.48576"
       id="path10734" />
  </g>
  <g
     id="g10736"
     transform="matrix(0.97081099,-0.23984584,0.23984584,0.97081099,-267.63378,316.93351)">
    <rect
       ry="3.1074901e-06"
       y="104"
       x="280"
       height="112"
       width="176"
       id="rect10738"
       style="opacity:1;fill:#ffffff;fill-opacity:1;stroke:#b3b3b3;stroke-width:16;stroke-linecap:round;stroke-linejoin:miter;stroke-miterlimit:4;stroke-dasharray:none;stroke-dashoffset:0;stroke-opacity:1" />
    <rect
       ry="3.1074901e-06"
       y="128"
       x="304"
       height="16"
       width="48"
       id="rect10740"
       style="opacity:1;fill:#00afcc;fill-opacity:1;stroke:none;stroke-width:16;stroke-linecap:round;stroke-linejoin:miter;stroke-miterlimit:4;stroke-dasharray:none;stroke-dashoffset:0;stroke-opacity:1" />
    <rect
       ry="3.1074901e-06"
       y="128"
       x="376"
       height="16"
       width="56"
       id="rect10742"
       style="opacity:1;fill:#00afcc;fill-opacity:1;stroke:none;stroke-width:16;stroke-linecap:round;stroke-linejoin:miter;stroke-miterlimit:4;stroke-dasharray:none;stroke-dashoffset:0;stroke-opacity:1" />
    <circle
       r="16"
       cy="176"
       cx="368"
       id="circle10744"
       style="opacity:1;fill:#c9452e;fill-opacity:1;stroke:none;stroke-width:16;stroke-linecap:round;stroke-linejoin:miter;stroke-miterlimit:4;stroke-dasharray:none;stroke-dashoffset:0;stroke-opacity:1" />
  </g>
  <g
     id="g10712"
     transform="matrix(0.98153393,-0.19128812,0.19128812,0.98153393,-961.60503,18.759732)">
    <rect
       style="opacity:1;fill:#ffffff;fill-opacity:1;stroke:#b3b3b3;stroke-width:16;stroke-linecap:round;stroke-linejoin:miter;stroke-miterlimit:4;stroke-dasharray:none;stroke-dashoffset:0;stroke-opacity:1"
       id="rect10714"
       width="192"
       height="256"
       x="967.89099"
       y="232"
       ry="3.1074901e-06" />
    <rect
       style="opacity:1;fill:#00afcc;fill-opacity:1;stroke:none;stroke-width:15.78199959;stroke-linecap:round;stroke-linejoin:miter;stroke-miterlimit:4;stroke-dasharray:none;stroke-dashoffset:0;stroke-opacity:1"
       id="rect10716"
       width="40.109013"
       height="16"
       x="991.89099"
       y="256"
       ry="3.1074901e-06" />
    <rect
       style="opacity:1;fill:#00afcc;fill-opacity:1;stroke:none;stroke-width:15.78199959;stroke-linecap:round;stroke-linejoin:miter;stroke-miterlimit:4;stroke-dasharray:none;stroke-dashoffset:0;stroke-opacity:1"
       id="rect10718"
       width="54.656338"
       height="16"
       x="1081.2346"
       y="256"
       ry="3.1074901e-06" />
    <path
       style="fill:#00afcc;fill-opacity:1;fill-rule:evenodd;stroke:none;stroke-width:1px;stroke-linecap:butt;stroke-linejoin:miter;stroke-opacity:1"
       d="m 975.89102,451.52406 176.00008,-19.12206 0,47.598 -176.00008,0 z"
       id="path10720" />
    <path
       id="path10722"
       d="m 1052.5556,313.31418 c 8.1593,-7.8575 10.4584,-12.6563 8.1127,-15.25938 -2.3458,-2.60306 -16.4467,2.49163 -23.1256,6.34012 -13.8729,7.99384 -22.6974,22.86777 -22.6974,40.84556 0,27.09511 21.9649,49.06001 49.06,49.06001 27.0951,0 48.5118,-21.03681 49.06,-49.06001 0.5483,-28.02319 -18.3924,-42.54727 -34.7229,-29.33858 -20.9396,16.9366 -28.9692,67.54465 -17.4697,110.48576"
       style="opacity:1;fill:none;fill-opacity:1;stroke:#c9452e;stroke-width:15.78199959;stroke-linecap:round;stroke-linejoin:round;stroke-miterlimit:4;stroke-dasharray:none;stroke-dashoffset:0;stroke-opacity:1" />
  </g>
  <g
     transform="matrix(0.99156589,-0.12960354,0.12960354,0.99156589,-12.945715,-6.9317071)"
     id="g10706">
    <rect
       style="opacity:1;fill:#ffffff;fill-opacity:1;stroke:#b3b3b3;stroke-width:16;stroke-linecap:round;stroke-linejoin:miter;stroke-miterlimit:4;stroke-dasharray:none;stroke-dashoffset:0;stroke-opacity:1"
       id="rect10679"
       width="176"
       height="112"
       x="280"
       y="104"
       ry="3.1074901e-06" />
    <rect
       style="opacity:1;fill:#00afcc;fill-opacity:1;stroke:none;stroke-width:16;stroke-linecap:round;stroke-linejoin:miter;stroke-miterlimit:4;stroke-dasharray:none;stroke-dashoffset:0;stroke-opacity:1"
       id="rect10698"
       width="48"
       height="16"
       x="304"
       y="128"
       ry="3.1074901e-06" />
    <rect
       style="opacity:1;fill:#00afcc;fill-opacity:1;stroke:none;stroke-width:16;stroke-linecap:round;stroke-linejoin:miter;stroke-miterlimit:4;stroke-dasharray:none;stroke-dashoffset:0;stroke-opacity:1"
       id="rect10700"
       width="56"
       height="16"
       x="376"
       y="128"
       ry="3.1074901e-06" />
    <circle
       style="opacity:1;fill:#c9452e;fill-opacity:1;stroke:none;stroke-width:16;stroke-linecap:round;stroke-linejoin:miter;stroke-miterlimit:4;stroke-dasharray:none;stroke-dashoffset:0;stroke-opacity:1"
       id="path10702"
       cx="368"
       cy="176"
       r="16" />
  </g>
  <g
     id="g10746"
     transform="matrix(0.96768477,0.25216302,-0.25216302,0.96768477,62.237048,-56.798077)">
    <rect
       ry="3.1074901e-06"
       y="104"
       x="280"
       height="112"
       width="176"
       id="rect10748"
       style="opacity:1;fill:#ffffff;fill-opacity:1;stroke:#b3b3b3;stroke-width:16;stroke-linecap:round;stroke-linejoin:miter;stroke-miterlimit:4;stroke-dasharray:none;stroke-dashoffset:0;stroke-opacity:1" />
    <rect
       ry="3.1074901e-06"
       y="128"
       x="304"
       height="16"
       width="48"
       id="rect10750"
       style="opacity:1;fill:#00afcc;fill-opacity:1;stroke:none;stroke-width:16;stroke-linecap:round;stroke-linejoin:miter;stroke-miterlimit:4;stroke-dasharray:none;stroke-dashoffset:0;stroke-opacity:1" />
    <rect
       ry="3.1074901e-06"
       y="128"
       x="376"
       height="16"
       width="56"
       id="rect10752"
       style="opacity:1;fill:#00afcc;fill-opacity:1;stroke:none;stroke-width:16;stroke-linecap:round;stroke-linejoin:miter;stroke-miterlimit:4;stroke-dasharray:none;stroke-dashoffset:0;stroke-opacity:1" />
    <circle
       r="16"
       cy="176"
       cx="368"
       id="circle10754"
       style="opacity:1;fill:#c9452e;fill-opacity:1;stroke:none;stroke-width:16;stroke-linecap:round;stroke-linejoin:miter;stroke-miterlimit:4;stroke-dasharray:none;stroke-dashoffset:0;stroke-opacity:1" />
  </g>
  <g
     transform="matrix(0.9828443,0.18443718,-0.18443718,0.9828443,-711.0794,-297.94731)"
     id="g8185">
    <rect
       ry="3.1074901e-06"
       y="232"
       x="967.89099"
       height="256"
       width="192"
       id="rect8175"
       style="opacity:1;fill:#ffffff;fill-opacity:1;stroke:#b3b3b3;stroke-width:16;stroke-linecap:round;stroke-linejoin:miter;stroke-miterlimit:4;stroke-dasharray:none;stroke-dashoffset:0;stroke-opacity:1" />
    <rect
       ry="3.1074901e-06"
       y="256"
       x="991.89099"
       height="16"
       width="40.109013"
       id="rect8177"
       style="opacity:1;fill:#00afcc;fill-opacity:1;stroke:none;stroke-width:15.78199959;stroke-linecap:round;stroke-linejoin:miter;stroke-miterlimit:4;stroke-dasharray:none;stroke-dashoffset:0;stroke-opacity:1" />
    <rect
       ry="3.1074901e-06"
       y="256"
       x="1081.2346"
       height="16"
       width="54.656338"
       id="rect8179"
       style="opacity:1;fill:#00afcc;fill-opacity:1;stroke:none;stroke-width:15.78199959;stroke-linecap:round;stroke-linejoin:miter;stroke-miterlimit:4;stroke-dasharray:none;stroke-dashoffset:0;stroke-opacity:1" />
    <path
       id="path8181"
       d="m 975.89102,451.52406 176.00008,-19.12206 0,47.598 -176.00008,0 z"
       style="fill:#00afcc;fill-opacity:1;fill-rule:evenodd;stroke:none;stroke-width:1px;stroke-linecap:butt;stroke-linejoin:miter;stroke-opacity:1" />
    <path
       style="opacity:1;fill:none;fill-opacity:1;stroke:#c9452e;stroke-width:15.78199959;stroke-linecap:round;stroke-linejoin:round;stroke-miterlimit:4;stroke-dasharray:none;stroke-dashoffset:0;stroke-opacity:1"
       d="m 1052.5556,313.31418 c 8.1593,-7.8575 10.4584,-12.6563 8.1127,-15.25938 -2.3458,-2.60306 -16.4467,2.49163 -23.1256,6.34012 -13.8729,7.99384 -22.6974,22.86777 -22.6974,40.84556 0,27.09511 21.9649,49.06001 49.06,49.06001 27.0951,0 48.5118,-21.03681 49.06,-49.06001 0.5483,-28.02319 -18.3924,-42.54727 -34.7229,-29.33858 -20.9396,16.9366 -28.9692,67.54465 -17.4697,110.48576"
       id="path4886" />
  </g>
</svg>
