<?xml version="1.0" encoding="UTF-8" standalone="no"?>
<svg
   xmlns:dc="http://purl.org/dc/elements/1.1/"
   xmlns:cc="http://creativecommons.org/ns#"
   xmlns:rdf="http://www.w3.org/1999/02/22-rdf-syntax-ns#"
   xmlns:svg="http://www.w3.org/2000/svg"
   xmlns="http://www.w3.org/2000/svg"
   version="1.1"
   id="svg9705"
   viewBox="0 0 512.00001 512.00001"
   height="512"
   width="512">
  <defs
     id="defs9707" />
  <metadata
     id="metadata9710">
    <rdf:RDF>
      <cc:Work
         rdf:about="">
        <dc:format>image/svg+xml</dc:format>
        <dc:type
           rdf:resource="http://purl.org/dc/dcmitype/StillImage" />
        <dc:title></dc:title>
      </cc:Work>
    </rdf:RDF>
  </metadata>
  <g
     transform="translate(0,-540.36216)"
     id="layer1">
    <g
       id="g7285"
       transform="matrix(1.3315069,0,0,1.3315069,-4002.3491,-2226.943)">
      <rect
         style="opacity:1;fill:#740707;fill-opacity:1;stroke:#740707;stroke-width:13;stroke-linecap:round;stroke-linejoin:miter;stroke-miterlimit:4;stroke-dasharray:none;stroke-dashoffset:0;stroke-opacity:1"
         id="rect7128"
         width="347.49255"
         height="240.41632"
         x="3024.3965"
         y="2162.0105"
         ry="16.16247" />
      <path
         style="opacity:1;fill:none;fill-opacity:1;stroke:#949494;stroke-width:13;stroke-linecap:round;stroke-linejoin:miter;stroke-miterlimit:4;stroke-dasharray:none;stroke-dashoffset:0;stroke-opacity:1"
         d="m 3371.889,2170.9181 0,208.0913 c 0,8.9541 -7.2084,16.1625 -16.1624,16.1625 l -116.1675,0 c -23.7386,-0.5051 -41.4163,3.7237 -41.4163,3.7237 0,0 -19.1929,-3.7237 -41.4163,-3.7237 l -116.1675,0 c -8.9541,0 -16.1625,-7.2084 -16.1625,-16.1625 l 0,-208.0913"
         id="path7130" />
      <path
         id="path7132"
         d="m 3371.889,2160.8166 0,208.0913 c 0,8.9541 -7.2084,16.1625 -16.1624,16.1625 l -116.1675,0 c -23.7386,-0.5051 -41.4163,13.8252 -41.4163,13.8252 0,0 -19.1929,-13.8252 -41.4163,-13.8252 l -116.1675,0 c -8.9541,0 -16.1625,-7.2084 -16.1625,-16.1625 l 0,-208.0913"
         style="opacity:1;fill:none;fill-opacity:1;stroke:#b1b1b1;stroke-width:13;stroke-linecap:round;stroke-linejoin:miter;stroke-miterlimit:4;stroke-dasharray:none;stroke-dashoffset:0;stroke-opacity:1" />
      <path
         id="path7134"
         d="m 3040.559,2133.2255 116.1675,0 c 21.2132,1.0102 41.4163,25.2538 41.4163,25.2538 0,0 22.2234,-24.7487 41.4163,-25.2538 l 116.1675,0 c 8.954,0 16.1624,7.2085 16.1624,16.1625 l 0,208.0913 c 0,8.9541 -7.2084,16.1625 -16.1624,16.1625 l -116.1675,0 c -23.7386,-0.5051 -41.4163,25.2538 -41.4163,25.2538 0,0 -19.1929,-25.2538 -41.4163,-25.2538 l -116.1675,0 c -8.9541,0 -16.1625,-7.2084 -16.1625,-16.1625 l 0,-208.0913 c 0,-8.954 7.2084,-16.1625 16.1625,-16.1625 z"
         style="opacity:1;fill:#ffffff;fill-opacity:1;stroke:#d8d8d8;stroke-width:13;stroke-linecap:round;stroke-linejoin:miter;stroke-miterlimit:4;stroke-dasharray:none;stroke-dashoffset:0;stroke-opacity:1" />
      <rect
         style="opacity:1;fill:none;fill-opacity:1;stroke:#b3b3b3;stroke-width:9;stroke-linecap:round;stroke-linejoin:miter;stroke-miterlimit:4;stroke-dasharray:none;stroke-dashoffset:0;stroke-opacity:1"
         id="rect7254"
         width="103.92864"
         height="85.714355"
         x="3240"
         y="2184.8623" />
      <rect
         transform="scale(1,-1)"
         style="opacity:1;fill:#b3b3b3;fill-opacity:1;stroke:none;stroke-width:25;stroke-linecap:round;stroke-linejoin:round;stroke-miterlimit:4;stroke-dasharray:none;stroke-dashoffset:0;stroke-opacity:1"
         id="rect7136"
         width="96.264038"
         height="8.9241991"
         x="3045.6211"
         y="-2168.7571"
         ry="0" />
      <rect
         ry="0"
         y="-2189.9702"
         x="3045.6211"
         height="8.9241991"
         width="113.43663"
         id="rect7138"
         style="opacity:1;fill:#b3b3b3;fill-opacity:1;stroke:none;stroke-width:25;stroke-linecap:round;stroke-linejoin:round;stroke-miterlimit:4;stroke-dasharray:none;stroke-dashoffset:0;stroke-opacity:1"
         transform="scale(1,-1)" />
      <rect
         ry="0"
         y="-2211.1833"
         x="3045.6211"
         height="8.9241991"
         width="101.3148"
         id="rect7140"
         style="opacity:1;fill:#b3b3b3;fill-opacity:1;stroke:none;stroke-width:25;stroke-linecap:round;stroke-linejoin:round;stroke-miterlimit:4;stroke-dasharray:none;stroke-dashoffset:0;stroke-opacity:1"
         transform="scale(1,-1)" />
      <rect
         transform="scale(1,-1)"
         style="opacity:1;fill:#b3b3b3;fill-opacity:1;stroke:none;stroke-width:25;stroke-linecap:round;stroke-linejoin:round;stroke-miterlimit:4;stroke-dasharray:none;stroke-dashoffset:0;stroke-opacity:1"
         id="rect7142"
         width="110.40617"
         height="8.9241991"
         x="3045.6211"
         y="-2232.3965"
         ry="0" />
      <rect
         transform="scale(1,-1)"
         style="opacity:1;fill:#b3b3b3;fill-opacity:1;stroke:none;stroke-width:25;stroke-linecap:round;stroke-linejoin:round;stroke-miterlimit:4;stroke-dasharray:none;stroke-dashoffset:0;stroke-opacity:1"
         id="rect7144"
         width="53.837631"
         height="8.9241991"
         x="3045.6211"
         y="-2253.6099"
         ry="0" />
      <rect
         ry="0"
         y="-2274.823"
         x="3045.6211"
         height="8.9241991"
         width="100.30465"
         id="rect7146"
         style="opacity:1;fill:#b3b3b3;fill-opacity:1;stroke:none;stroke-width:25;stroke-linecap:round;stroke-linejoin:round;stroke-miterlimit:4;stroke-dasharray:none;stroke-dashoffset:0;stroke-opacity:1"
         transform="scale(1,-1)" />
      <rect
         ry="0"
         y="-2296.0361"
         x="3045.6211"
         height="8.9241991"
         width="91.213272"
         id="rect7148"
         style="opacity:1;fill:#b3b3b3;fill-opacity:1;stroke:none;stroke-width:25;stroke-linecap:round;stroke-linejoin:round;stroke-miterlimit:4;stroke-dasharray:none;stroke-dashoffset:0;stroke-opacity:1"
         transform="scale(1,-1)" />
      <rect
         transform="scale(1,-1)"
         style="opacity:1;fill:#b3b3b3;fill-opacity:1;stroke:none;stroke-width:25;stroke-linecap:round;stroke-linejoin:round;stroke-miterlimit:4;stroke-dasharray:none;stroke-dashoffset:0;stroke-opacity:1"
         id="rect7150"
         width="101.3148"
         height="8.9241991"
         x="3045.6211"
         y="-2317.2493"
         ry="0" />
      <rect
         transform="scale(1,-1)"
         style="opacity:1;fill:#b3b3b3;fill-opacity:1;stroke:none;stroke-width:25;stroke-linecap:round;stroke-linejoin:round;stroke-miterlimit:4;stroke-dasharray:none;stroke-dashoffset:0;stroke-opacity:1"
         id="rect7152"
         width="106.36556"
         height="8.9241991"
         x="3045.6211"
         y="-2338.4626"
         ry="0" />
      <rect
         ry="0"
         y="-2168.7571"
         x="3235.5298"
         height="8.9241991"
         width="77.071136"
         id="rect7154"
         style="opacity:1;fill:#b3b3b3;fill-opacity:1;stroke:none;stroke-width:25;stroke-linecap:round;stroke-linejoin:round;stroke-miterlimit:4;stroke-dasharray:none;stroke-dashoffset:0;stroke-opacity:1"
         transform="scale(1,-1)" />
      <rect
         transform="scale(1,-1)"
         style="opacity:1;fill:#b3b3b3;fill-opacity:1;stroke:none;stroke-width:25;stroke-linecap:round;stroke-linejoin:round;stroke-miterlimit:4;stroke-dasharray:none;stroke-dashoffset:0;stroke-opacity:1"
         id="rect7166"
         width="35.654884"
         height="8.9241991"
         x="3235.5298"
         y="-2296.0361"
         ry="0" />
      <rect
         ry="0"
         y="-2317.2493"
         x="3235.5298"
         height="8.9241991"
         width="108.89095"
         id="rect7168"
         style="opacity:1;fill:#b3b3b3;fill-opacity:1;stroke:none;stroke-width:25;stroke-linecap:round;stroke-linejoin:round;stroke-miterlimit:4;stroke-dasharray:none;stroke-dashoffset:0;stroke-opacity:1"
         transform="scale(1,-1)" />
      <rect
         ry="0"
         y="-2338.4626"
         x="3235.5298"
         height="8.9241991"
         width="113.43663"
         id="rect7170"
         style="opacity:1;fill:#b3b3b3;fill-opacity:1;stroke:none;stroke-width:25;stroke-linecap:round;stroke-linejoin:round;stroke-miterlimit:4;stroke-dasharray:none;stroke-dashoffset:0;stroke-opacity:1"
         transform="scale(1,-1)" />
      <path
         id="path7172"
         d="m 3197.8571,2402.0423 0,-245.3571 -18.5714,-16.7857 0,241.4285 z"
         style="fill:#f3f3f3;fill-opacity:1;fill-rule:evenodd;stroke:none;stroke-width:1px;stroke-linecap:butt;stroke-linejoin:miter;stroke-opacity:1" />
      <path
         style="opacity:1;fill:none;fill-opacity:1;stroke:#d8d8d8;stroke-width:13;stroke-linecap:round;stroke-linejoin:miter;stroke-miterlimit:4;stroke-dasharray:none;stroke-dashoffset:0;stroke-opacity:1"
         d="m 3040.559,2133.2255 116.1675,0 c 21.2132,1.0102 41.4163,25.2538 41.4163,25.2538 0,0 22.2234,-24.7487 41.4163,-25.2538 l 116.1675,0 c 8.954,0 16.1624,7.2085 16.1624,16.1625 l 0,208.0913 c 0,8.9541 -7.2084,16.1625 -16.1624,16.1625 l -116.1675,0 c -23.7386,-0.5051 -41.4163,25.2538 -41.4163,25.2538 0,0 -19.1929,-25.2538 -41.4163,-25.2538 l -116.1675,0 c -8.9541,0 -16.1625,-7.2084 -16.1625,-16.1625 l 0,-208.0913 c 0,-8.954 7.2084,-16.1625 16.1625,-16.1625 z"
         id="path7174" />
      <path
         id="path7176"
         d="m 3205.4473,2293.0201 c 1.3441,-6.4334 2.7132,-12.8751 3.9843,-19.6269 0.8339,-4.4292 1.6284,-8.9291 2.3516,-13.502 0.7232,-4.5728 1.3741,-9.2195 1.9238,-13.9414 0.5498,-4.7219 0.9971,-9.5182 1.3106,-14.3945 0.3135,-4.8763 0.4934,-9.8312 0.5078,-14.8672 0.013,-4.637 -0.152,-9.3619 -0.4434,-14.1387 -3.2747,-23.3531 -5.1713,-46.1434 0.8223,-67.5566 -2.9621,1.8987 -5.7312,3.9422 -8.2656,5.9336 -3.8326,3.0113 -6.9158,5.8778 -9.3848,8.2558 -0.038,-0.039 -0.082,-0.082 -0.1211,-0.1211 -5.376,48.485 14.963,99.6499 7.3145,143.959 z"
         style="color:#000000;font-style:normal;font-variant:normal;font-weight:normal;font-stretch:normal;font-size:medium;line-height:normal;font-family:sans-serif;text-indent:0;text-align:start;text-decoration:none;text-decoration-line:none;text-decoration-style:solid;text-decoration-color:#000000;letter-spacing:normal;word-spacing:normal;text-transform:none;direction:ltr;block-progression:tb;writing-mode:lr-tb;baseline-shift:baseline;text-anchor:start;white-space:normal;clip-rule:nonzero;display:inline;overflow:visible;visibility:visible;opacity:1;isolation:auto;mix-blend-mode:normal;color-interpolation:sRGB;color-interpolation-filters:linearRGB;solid-color:#000000;solid-opacity:1;fill:#a90000;fill-opacity:1;fill-rule:evenodd;stroke:none;stroke-width:15;stroke-linecap:butt;stroke-linejoin:miter;stroke-miterlimit:4;stroke-dasharray:none;stroke-dashoffset:0;stroke-opacity:1;color-rendering:auto;image-rendering:auto;shape-rendering:auto;text-rendering:auto;enable-background:accumulate" />
      <path
         id="path7178"
         d="m 3203.7581,2299.1295 c -1.085,4.5685 -2.3877,9.085 -4.2031,13.4824 l 9.7969,-5.1836 3.9492,11.1856 c 15.907,-37.8475 6.8009,-77.7189 1.4238,-116.0645 0.2914,4.7768 0.4567,9.5017 0.4434,14.1387 -0.014,5.036 -0.1943,9.9909 -0.5078,14.8672 -0.3135,4.8763 -0.7608,9.6726 -1.3106,14.3945 -0.5497,4.7219 -1.2006,9.3686 -1.9238,13.9414 -0.7232,4.5729 -1.5177,9.0728 -2.3516,13.502 -1.2711,6.7518 -2.6402,13.1935 -3.9843,19.6269 -0.1799,1.0418 -0.4194,2.0695 -0.6309,3.1035 -0.2054,0.9823 -0.41,2.0445 -0.6133,3.0196 l -0.088,-0.014 z"
         style="color:#000000;font-style:normal;font-variant:normal;font-weight:normal;font-stretch:normal;font-size:medium;line-height:normal;font-family:sans-serif;text-indent:0;text-align:start;text-decoration:none;text-decoration-line:none;text-decoration-style:solid;text-decoration-color:#000000;letter-spacing:normal;word-spacing:normal;text-transform:none;direction:ltr;block-progression:tb;writing-mode:lr-tb;baseline-shift:baseline;text-anchor:start;white-space:normal;clip-rule:nonzero;display:inline;overflow:visible;visibility:visible;opacity:1;isolation:auto;mix-blend-mode:normal;color-interpolation:sRGB;color-interpolation-filters:linearRGB;solid-color:#000000;solid-opacity:1;fill:#d41e1e;fill-opacity:1;fill-rule:evenodd;stroke:none;stroke-width:15;stroke-linecap:butt;stroke-linejoin:miter;stroke-miterlimit:4;stroke-dasharray:none;stroke-dashoffset:0;stroke-opacity:1;color-rendering:auto;image-rendering:auto;shape-rendering:auto;text-rendering:auto;enable-background:accumulate" />
      <path
         id="path7180"
         d="m 3204.1152,2299.1295 0.088,0.014 c 0.2033,-0.9751 0.4079,-2.0373 0.6133,-3.0196 -0.2063,1.0085 -0.4635,2.005 -0.7012,3.0059 z"
         style="color:#000000;font-style:normal;font-variant:normal;font-weight:normal;font-stretch:normal;font-size:medium;line-height:normal;font-family:sans-serif;text-indent:0;text-align:start;text-decoration:none;text-decoration-line:none;text-decoration-style:solid;text-decoration-color:#000000;letter-spacing:normal;word-spacing:normal;text-transform:none;direction:ltr;block-progression:tb;writing-mode:lr-tb;baseline-shift:baseline;text-anchor:start;white-space:normal;clip-rule:nonzero;display:inline;overflow:visible;visibility:visible;opacity:1;isolation:auto;mix-blend-mode:normal;color-interpolation:sRGB;color-interpolation-filters:linearRGB;solid-color:#000000;solid-opacity:1;fill:#a90000;fill-opacity:1;fill-rule:evenodd;stroke:none;stroke-width:15;stroke-linecap:butt;stroke-linejoin:miter;stroke-miterlimit:4;stroke-dasharray:none;stroke-dashoffset:0;stroke-opacity:1;color-rendering:auto;image-rendering:auto;shape-rendering:auto;text-rendering:auto;enable-background:accumulate" />
      <g
         transform="matrix(0.17624636,0,0,0.17624636,2045.2193,2141.1983)"
         id="g7184">
        <circle
           r="161.6244"
           cy="496.59821"
           cx="7083.0781"
           id="circle7186"
           style="opacity:1;fill:#e68c00;fill-opacity:1;stroke:none;stroke-width:13;stroke-linecap:round;stroke-linejoin:miter;stroke-miterlimit:4;stroke-dasharray:none;stroke-dashoffset:0;stroke-opacity:1" />
        <circle
           r="136.37059"
           cy="481.95099"
           cx="7083.0781"
           id="circle7188"
           style="opacity:1;fill:#e69800;fill-opacity:1;stroke:none;stroke-width:13;stroke-linecap:round;stroke-linejoin:miter;stroke-miterlimit:4;stroke-dasharray:none;stroke-dashoffset:0;stroke-opacity:1" />
        <g
           id="g7190"
           transform="matrix(0.56309544,0,0,-0.56309544,7088.9192,560.63295)"
           style="fill:#e68c00;fill-opacity:1">
          <path
             d="m 0,0 c 0.01,-0.072 0.019,-0.145 0.029,-0.217 2.614,0.321 5.222,0.71 7.844,0.952 12.431,1.146 24.193,4.755 35.467,9.925 8.83,4.05 17.015,9.212 24.637,15.282 7.035,5.602 13.286,11.967 18.685,19.11 3.63,4.801 6.833,9.931 10.124,14.98 6.106,9.369 10.016,19.749 12.956,30.417 3.518,12.763 5.064,25.807 4.099,39.139 -0.474,6.552 -1.284,13.003 -2.795,19.367 -2.435,10.253 -6.34,19.943 -12.454,28.545 -2.661,3.745 -5.739,7.56 -9.47,10.115 C 75.02,197.272 58.887,195.38 45.948,184.393 37.304,177.053 30.956,167.787 26,157.65 23.027,151.567 20.444,145.281 17.935,138.987 15.747,133.499 13.636,127.952 11.968,122.291 7.56,107.329 3.71,92.221 1.269,76.79 0.444,71.578 -0.54,66.388 -1.229,61.16 -1.951,55.685 -2.437,50.178 -2.971,44.68 -3.676,37.434 -4.435,30.19 -4.967,22.931 -5.398,17.041 -5.511,11.128 -5.799,5.228 -6.052,0.044 -6.013,-0.017 -0.757,0 -0.504,0.001 -0.252,0 0,0 m -14.912,279.859 c 3.27,-1.247 6.711,-2.173 9.778,-3.803 8.938,-4.748 14.02,-12.215 15.326,-22.364 1.184,-9.211 -1.701,-17.43 -5.969,-25.195 -4.857,-8.838 -11.091,-16.758 -17.878,-24.223 -2.783,-3.06 -5.532,-6.151 -8.35,-9.178 -4.88,-5.243 -11.107,-7.327 -18.027,-6.628 -10.032,1.014 -16.665,6.91 -19.796,16.229 -1.333,3.967 -1.022,8.481 0.237,12.677 0.506,1.684 1.247,3.296 1.827,4.96 0.104,0.297 0.068,0.824 -0.125,0.993 -0.203,0.18 -0.714,0.168 -1.016,0.049 -0.818,-0.324 -1.615,-0.716 -2.388,-1.138 -9.525,-5.209 -18.311,-11.407 -26.142,-18.981 -8.925,-8.634 -16.745,-18.144 -22.554,-29.107 -4.89,-9.231 -8.636,-18.929 -11.054,-29.205 -2.951,-12.539 -3.35,-25.192 -2.66,-37.876 0.344,-6.335 2.085,-12.609 3.37,-18.874 1.398,-6.814 4.037,-13.201 6.939,-19.511 3.648,-7.931 7.998,-15.447 13.322,-22.327 3.606,-4.659 7.527,-9.142 11.771,-13.222 7.451,-7.165 15.543,-13.575 24.823,-18.311 3.47,-1.77 6.936,-3.555 10.475,-5.18 1.741,-0.8 2.195,-0.406 2.435,1.482 0.016,0.125 0.012,0.252 0.017,0.378 0.28,6.403 0.471,12.811 0.869,19.207 0.288,4.629 0.858,9.241 1.284,13.862 0.312,3.377 0.471,6.774 0.914,10.133 1.097,8.331 2.246,16.656 3.512,24.962 1.02,6.693 2.107,13.381 3.417,20.021 1.022,5.182 2.52,10.269 3.653,15.431 2.404,10.95 5.85,21.59 9.452,32.182 5.777,16.984 13.242,33.172 23.293,48.083 5.006,7.426 10.594,14.436 17.223,20.468 11.244,10.232 23.988,17.998 38.988,21.296 11.405,2.508 22.885,2.715 34.42,0.074 8.56,-1.96 16.767,-4.767 24.223,-9.29 7.777,-4.717 14.724,-10.571 20.162,-17.996 3.117,-4.256 6.463,-8.389 9.148,-12.908 2.815,-4.737 4.994,-9.856 7.394,-14.835 3.63,-7.527 5.95,-15.524 7.78,-23.618 1.465,-6.476 2.36,-13.095 3.229,-19.687 0.687,-5.218 1.234,-10.487 1.321,-15.742 0.083,-5.007 -0.296,-10.049 -0.855,-15.033 -0.754,-6.729 -1.708,-13.447 -2.898,-20.112 -0.704,-3.943 -1.846,-7.836 -3.115,-11.643 -2.228,-6.681 -4.468,-13.376 -7.127,-19.892 -5.45,-13.355 -12.92,-25.567 -21.394,-37.233 -3.036,-4.18 -6.377,-8.072 -9.872,-11.78 -4.458,-4.728 -9.417,-9.01 -14.37,-13.239 -4.583,-3.912 -9.337,-7.645 -14.206,-11.195 -7.532,-5.49 -15.652,-10.079 -24.156,-13.833 -12.118,-5.348 -24.697,-9.291 -37.79,-11.698 -8.567,-1.574 -17.195,-2.118 -25.822,-2.896 -2.186,-0.197 -2.535,-0.684 -2.264,-2.929 0.977,-8.1 1.579,-16.266 3.011,-24.285 2.161,-12.104 4.575,-24.135 8.09,-36.001 2.822,-9.532 1.204,-17.151 -6.724,-24.339 -3.091,-2.802 -6.872,-4.044 -10.612,-5.473 l -8.322,0 c -0.315,0.201 -0.605,0.507 -0.948,0.586 -8.836,2.052 -14.121,7.849 -16.84,16.188 -1.286,3.941 -2.27,7.985 -3.277,12.011 -1.341,5.364 -2.856,10.707 -3.784,16.146 -1.351,7.911 -2.352,15.888 -3.306,23.86 -1.073,8.963 -2.039,17.943 -2.799,26.937 -0.189,2.245 -0.811,3.359 -2.991,4.01 -4.451,1.33 -8.947,2.641 -13.197,4.486 -6.694,2.905 -13.282,6.086 -19.766,9.438 -8.73,4.513 -16.788,10.151 -24.236,16.499 -6.501,5.542 -12.594,11.603 -18.501,17.784 -3.881,4.059 -7.321,8.59 -10.589,13.173 -6.363,8.922 -11.668,18.469 -16.258,28.436 -6.63,14.402 -10.791,29.456 -12.646,45.182 -0.32,2.709 -0.947,5.381 -1.432,8.071 l 0,27.987 c 0.238,0.823 0.587,1.632 0.694,2.472 0.384,2.988 0.403,6.05 1.071,8.968 2.014,8.809 3.658,17.688 6.524,26.323 3.792,11.424 9.078,22.129 15.028,32.463 4.31,7.486 9.553,14.441 15.24,21.047 11.088,12.877 23.83,23.74 38.184,32.788 14.618,9.214 30.251,15.971 47.121,19.82 5.127,1.17 10.239,2.41 15.358,3.618 l 15.133,0 z"
             style="fill:#e68c00;fill-opacity:1;fill-rule:nonzero;stroke:none"
             id="path7192" />
        </g>
        <g
           style="fill:#ffb716;fill-opacity:1"
           transform="matrix(0.56309544,0,0,-0.56309544,7086.0831,547.50096)"
           id="g7194">
          <path
             id="path7196"
             style="fill:#ffb716;fill-opacity:1;fill-rule:nonzero;stroke:none"
             d="m 0,0 c 0.01,-0.072 0.019,-0.145 0.029,-0.217 2.614,0.321 5.222,0.71 7.844,0.952 12.431,1.146 24.193,4.755 35.467,9.925 8.83,4.05 17.015,9.212 24.637,15.282 7.035,5.602 13.286,11.967 18.685,19.11 3.63,4.801 6.833,9.931 10.124,14.98 6.106,9.369 10.016,19.749 12.956,30.417 3.518,12.763 5.064,25.807 4.099,39.139 -0.474,6.552 -1.284,13.003 -2.795,19.367 -2.435,10.253 -6.34,19.943 -12.454,28.545 -2.661,3.745 -5.739,7.56 -9.47,10.115 C 75.02,197.272 58.887,195.38 45.948,184.393 37.304,177.053 30.956,167.787 26,157.65 23.027,151.567 20.444,145.281 17.935,138.987 15.747,133.499 13.636,127.952 11.968,122.291 7.56,107.329 3.71,92.221 1.269,76.79 0.444,71.578 -0.54,66.388 -1.229,61.16 -1.951,55.685 -2.437,50.178 -2.971,44.68 -3.676,37.434 -4.435,30.19 -4.967,22.931 -5.398,17.041 -5.511,11.128 -5.799,5.228 -6.052,0.044 -6.013,-0.017 -0.757,0 -0.504,0.001 -0.252,0 0,0 m -14.912,279.859 c 3.27,-1.247 6.711,-2.173 9.778,-3.803 8.938,-4.748 14.02,-12.215 15.326,-22.364 1.184,-9.211 -1.701,-17.43 -5.969,-25.195 -4.857,-8.838 -11.091,-16.758 -17.878,-24.223 -2.783,-3.06 -5.532,-6.151 -8.35,-9.178 -4.88,-5.243 -11.107,-7.327 -18.027,-6.628 -10.032,1.014 -16.665,6.91 -19.796,16.229 -1.333,3.967 -1.022,8.481 0.237,12.677 0.506,1.684 1.247,3.296 1.827,4.96 0.104,0.297 0.068,0.824 -0.125,0.993 -0.203,0.18 -0.714,0.168 -1.016,0.049 -0.818,-0.324 -1.615,-0.716 -2.388,-1.138 -9.525,-5.209 -18.311,-11.407 -26.142,-18.981 -8.925,-8.634 -16.745,-18.144 -22.554,-29.107 -4.89,-9.231 -8.636,-18.929 -11.054,-29.205 -2.951,-12.539 -3.35,-25.192 -2.66,-37.876 0.344,-6.335 2.085,-12.609 3.37,-18.874 1.398,-6.814 4.037,-13.201 6.939,-19.511 3.648,-7.931 7.998,-15.447 13.322,-22.327 3.606,-4.659 7.527,-9.142 11.771,-13.222 7.451,-7.165 15.543,-13.575 24.823,-18.311 3.47,-1.77 6.936,-3.555 10.475,-5.18 1.741,-0.8 2.195,-0.406 2.435,1.482 0.016,0.125 0.012,0.252 0.017,0.378 0.28,6.403 0.471,12.811 0.869,19.207 0.288,4.629 0.858,9.241 1.284,13.862 0.312,3.377 0.471,6.774 0.914,10.133 1.097,8.331 2.246,16.656 3.512,24.962 1.02,6.693 2.107,13.381 3.417,20.021 1.022,5.182 2.52,10.269 3.653,15.431 2.404,10.95 5.85,21.59 9.452,32.182 5.777,16.984 13.242,33.172 23.293,48.083 5.006,7.426 10.594,14.436 17.223,20.468 11.244,10.232 23.988,17.998 38.988,21.296 11.405,2.508 22.885,2.715 34.42,0.074 8.56,-1.96 16.767,-4.767 24.223,-9.29 7.777,-4.717 14.724,-10.571 20.162,-17.996 3.117,-4.256 6.463,-8.389 9.148,-12.908 2.815,-4.737 4.994,-9.856 7.394,-14.835 3.63,-7.527 5.95,-15.524 7.78,-23.618 1.465,-6.476 2.36,-13.095 3.229,-19.687 0.687,-5.218 1.234,-10.487 1.321,-15.742 0.083,-5.007 -0.296,-10.049 -0.855,-15.033 -0.754,-6.729 -1.708,-13.447 -2.898,-20.112 -0.704,-3.943 -1.846,-7.836 -3.115,-11.643 -2.228,-6.681 -4.468,-13.376 -7.127,-19.892 -5.45,-13.355 -12.92,-25.567 -21.394,-37.233 -3.036,-4.18 -6.377,-8.072 -9.872,-11.78 -4.458,-4.728 -9.417,-9.01 -14.37,-13.239 -4.583,-3.912 -9.337,-7.645 -14.206,-11.195 -7.532,-5.49 -15.652,-10.079 -24.156,-13.833 -12.118,-5.348 -24.697,-9.291 -37.79,-11.698 -8.567,-1.574 -17.195,-2.118 -25.822,-2.896 -2.186,-0.197 -2.535,-0.684 -2.264,-2.929 0.977,-8.1 1.579,-16.266 3.011,-24.285 2.161,-12.104 4.575,-24.135 8.09,-36.001 2.822,-9.532 1.204,-17.151 -6.724,-24.339 -3.091,-2.802 -6.872,-4.044 -10.612,-5.473 l -8.322,0 c -0.315,0.201 -0.605,0.507 -0.948,0.586 -8.836,2.052 -14.121,7.849 -16.84,16.188 -1.286,3.941 -2.27,7.985 -3.277,12.011 -1.341,5.364 -2.856,10.707 -3.784,16.146 -1.351,7.911 -2.352,15.888 -3.306,23.86 -1.073,8.963 -2.039,17.943 -2.799,26.937 -0.189,2.245 -0.811,3.359 -2.991,4.01 -4.451,1.33 -8.947,2.641 -13.197,4.486 -6.694,2.905 -13.282,6.086 -19.766,9.438 -8.73,4.513 -16.788,10.151 -24.236,16.499 -6.501,5.542 -12.594,11.603 -18.501,17.784 -3.881,4.059 -7.321,8.59 -10.589,13.173 -6.363,8.922 -11.668,18.469 -16.258,28.436 -6.63,14.402 -10.791,29.456 -12.646,45.182 -0.32,2.709 -0.947,5.381 -1.432,8.071 l 0,27.987 c 0.238,0.823 0.587,1.632 0.694,2.472 0.384,2.988 0.403,6.05 1.071,8.968 2.014,8.809 3.658,17.688 6.524,26.323 3.792,11.424 9.078,22.129 15.028,32.463 4.31,7.486 9.553,14.441 15.24,21.047 11.088,12.877 23.83,23.74 38.184,32.788 14.618,9.214 30.251,15.971 47.121,19.82 5.127,1.17 10.239,2.41 15.358,3.618 l 15.133,0 z" />
        </g>
        <g
           transform="translate(1228.8065,-420.98986)"
           style="fill:#e68c00;fill-opacity:1"
           id="g7198">
          <circle
             r="16.162441"
             cy="776.59064"
             cx="5855.8545"
             id="circle7200"
             style="opacity:1;fill:#e68c00;fill-opacity:1;stroke:none;stroke-width:13;stroke-linecap:round;stroke-linejoin:miter;stroke-miterlimit:4;stroke-dasharray:none;stroke-dashoffset:0;stroke-opacity:1" />
          <circle
             style="opacity:1;fill:#e68c00;fill-opacity:1;stroke:none;stroke-width:13;stroke-linecap:round;stroke-linejoin:miter;stroke-miterlimit:4;stroke-dasharray:none;stroke-dashoffset:0;stroke-opacity:1"
             id="circle7202"
             cx="5855.8545"
             cy="1047.3116"
             r="16.162441" />
          <circle
             transform="matrix(0,1,-1,0,0,0)"
             style="opacity:1;fill:#e68c00;fill-opacity:1;stroke:none;stroke-width:13;stroke-linecap:round;stroke-linejoin:miter;stroke-miterlimit:4;stroke-dasharray:none;stroke-dashoffset:0;stroke-opacity:1"
             id="circle7204"
             cx="911.95111"
             cy="-5991.2148"
             r="16.162441" />
          <circle
             transform="matrix(0,1,-1,0,0,0)"
             r="16.162441"
             cy="-5720.4941"
             cx="911.95111"
             id="circle7206"
             style="opacity:1;fill:#e68c00;fill-opacity:1;stroke:none;stroke-width:13;stroke-linecap:round;stroke-linejoin:miter;stroke-miterlimit:4;stroke-dasharray:none;stroke-dashoffset:0;stroke-opacity:1" />
          <circle
             transform="matrix(0.86602541,0.5,-0.5,0.86602541,0,0)"
             r="16.162441"
             cy="-2273.5149"
             cx="5527.2944"
             id="circle7208"
             style="opacity:1;fill:#e68c00;fill-opacity:1;stroke:none;stroke-width:13;stroke-linecap:round;stroke-linejoin:miter;stroke-miterlimit:4;stroke-dasharray:none;stroke-dashoffset:0;stroke-opacity:1" />
          <circle
             transform="matrix(0.86602541,0.5,-0.5,0.86602541,0,0)"
             style="opacity:1;fill:#e68c00;fill-opacity:1;stroke:none;stroke-width:13;stroke-linecap:round;stroke-linejoin:miter;stroke-miterlimit:4;stroke-dasharray:none;stroke-dashoffset:0;stroke-opacity:1"
             id="circle7210"
             cx="5527.2944"
             cy="-2002.7939"
             r="16.162441" />
          <circle
             transform="matrix(0.5,0.8660254,-0.8660254,0.5,0,0)"
             style="opacity:1;fill:#e68c00;fill-opacity:1;stroke:none;stroke-width:13;stroke-linecap:round;stroke-linejoin:miter;stroke-miterlimit:4;stroke-dasharray:none;stroke-dashoffset:0;stroke-opacity:1"
             id="circle7212"
             cx="3717.7002"
             cy="-4750.7036"
             r="16.162441" />
          <circle
             transform="matrix(0.5,0.8660254,-0.8660254,0.5,0,0)"
             r="16.162441"
             cy="-4479.9829"
             cx="3717.7002"
             id="circle7214"
             style="opacity:1;fill:#e68c00;fill-opacity:1;stroke:none;stroke-width:13;stroke-linecap:round;stroke-linejoin:miter;stroke-miterlimit:4;stroke-dasharray:none;stroke-dashoffset:0;stroke-opacity:1" />
          <circle
             transform="matrix(-0.49999999,0.86602541,-0.86602541,-0.49999999,0,0)"
             r="16.162441"
             cy="-5662.6548"
             cx="-2138.1543"
             id="circle7216"
             style="opacity:1;fill:#e68c00;fill-opacity:1;stroke:none;stroke-width:13;stroke-linecap:round;stroke-linejoin:miter;stroke-miterlimit:4;stroke-dasharray:none;stroke-dashoffset:0;stroke-opacity:1" />
          <circle
             transform="matrix(-0.49999999,0.86602541,-0.86602541,-0.49999999,0,0)"
             style="opacity:1;fill:#e68c00;fill-opacity:1;stroke:none;stroke-width:13;stroke-linecap:round;stroke-linejoin:miter;stroke-miterlimit:4;stroke-dasharray:none;stroke-dashoffset:0;stroke-opacity:1"
             id="circle7218"
             cx="-2138.1543"
             cy="-5391.9341"
             r="16.162441" />
          <circle
             transform="matrix(-0.8660254,0.5,-0.5,-0.8660254,0,0)"
             style="opacity:1;fill:#e68c00;fill-opacity:1;stroke:none;stroke-width:13;stroke-linecap:round;stroke-linejoin:miter;stroke-miterlimit:4;stroke-dasharray:none;stroke-dashoffset:0;stroke-opacity:1"
             id="circle7220"
             cx="-4615.3433"
             cy="-3853.0608"
             r="16.162441" />
          <circle
             transform="matrix(-0.8660254,0.5,-0.5,-0.8660254,0,0)"
             r="16.162441"
             cy="-3582.3396"
             cx="-4615.3433"
             id="circle7222"
             style="opacity:1;fill:#e68c00;fill-opacity:1;stroke:none;stroke-width:13;stroke-linecap:round;stroke-linejoin:miter;stroke-miterlimit:4;stroke-dasharray:none;stroke-dashoffset:0;stroke-opacity:1" />
        </g>
        <path
           style="opacity:1;fill:#e68c00;fill-opacity:1;stroke:none;stroke-width:13;stroke-linecap:round;stroke-linejoin:miter;stroke-miterlimit:4;stroke-dasharray:none;stroke-dashoffset:0;stroke-opacity:1"
           d="m 7083.0779,330.83227 a 161.6244,161.6244 0 0 0 -161.625,161.6231 161.6244,161.6244 0 0 0 161.625,161.62502 161.6244,161.6244 0 0 0 161.625,-161.62502 161.6244,161.6244 0 0 0 -161.625,-161.6231 z m 0,25.2539 a 136.37059,136.37059 0 0 1 136.3711,136.3692 136.37059,136.37059 0 0 1 -136.3711,136.37112 136.37059,136.37059 0 0 1 -136.3711,-136.37112 136.37059,136.37059 0 0 1 136.3711,-136.3692 z"
           id="path7224" />
        <g
           id="g7226"
           transform="translate(1227.8572,-430.00001)">
          <circle
             style="opacity:1;fill:#ffb716;fill-opacity:1;stroke:none;stroke-width:13;stroke-linecap:round;stroke-linejoin:miter;stroke-miterlimit:4;stroke-dasharray:none;stroke-dashoffset:0;stroke-opacity:1"
             id="circle7228"
             cx="5855.8545"
             cy="776.59064"
             r="16.162441" />
          <circle
             r="16.162441"
             cy="1047.3116"
             cx="5855.8545"
             id="circle7230"
             style="opacity:1;fill:#ffb716;fill-opacity:1;stroke:none;stroke-width:13;stroke-linecap:round;stroke-linejoin:miter;stroke-miterlimit:4;stroke-dasharray:none;stroke-dashoffset:0;stroke-opacity:1" />
          <circle
             r="16.162441"
             cy="-5991.2148"
             cx="911.95111"
             id="circle7232"
             style="opacity:1;fill:#ffb716;fill-opacity:1;stroke:none;stroke-width:13;stroke-linecap:round;stroke-linejoin:miter;stroke-miterlimit:4;stroke-dasharray:none;stroke-dashoffset:0;stroke-opacity:1"
             transform="matrix(0,1,-1,0,0,0)" />
          <circle
             style="opacity:1;fill:#ffb716;fill-opacity:1;stroke:none;stroke-width:13;stroke-linecap:round;stroke-linejoin:miter;stroke-miterlimit:4;stroke-dasharray:none;stroke-dashoffset:0;stroke-opacity:1"
             id="circle7234"
             cx="911.95111"
             cy="-5720.4941"
             r="16.162441"
             transform="matrix(0,1,-1,0,0,0)" />
          <circle
             style="opacity:1;fill:#ffb716;fill-opacity:1;stroke:none;stroke-width:13;stroke-linecap:round;stroke-linejoin:miter;stroke-miterlimit:4;stroke-dasharray:none;stroke-dashoffset:0;stroke-opacity:1"
             id="circle7236"
             cx="5527.2944"
             cy="-2273.5149"
             r="16.162441"
             transform="matrix(0.86602541,0.5,-0.5,0.86602541,0,0)" />
          <circle
             r="16.162441"
             cy="-2002.7939"
             cx="5527.2944"
             id="circle7238"
             style="opacity:1;fill:#ffb716;fill-opacity:1;stroke:none;stroke-width:13;stroke-linecap:round;stroke-linejoin:miter;stroke-miterlimit:4;stroke-dasharray:none;stroke-dashoffset:0;stroke-opacity:1"
             transform="matrix(0.86602541,0.5,-0.5,0.86602541,0,0)" />
          <circle
             r="16.162441"
             cy="-4750.7036"
             cx="3717.7002"
             id="circle7240"
             style="opacity:1;fill:#ffb716;fill-opacity:1;stroke:none;stroke-width:13;stroke-linecap:round;stroke-linejoin:miter;stroke-miterlimit:4;stroke-dasharray:none;stroke-dashoffset:0;stroke-opacity:1"
             transform="matrix(0.5,0.8660254,-0.8660254,0.5,0,0)" />
          <circle
             style="opacity:1;fill:#ffb716;fill-opacity:1;stroke:none;stroke-width:13;stroke-linecap:round;stroke-linejoin:miter;stroke-miterlimit:4;stroke-dasharray:none;stroke-dashoffset:0;stroke-opacity:1"
             id="circle7242"
             cx="3717.7002"
             cy="-4479.9829"
             r="16.162441"
             transform="matrix(0.5,0.8660254,-0.8660254,0.5,0,0)" />
          <circle
             style="opacity:1;fill:#ffb716;fill-opacity:1;stroke:none;stroke-width:13;stroke-linecap:round;stroke-linejoin:miter;stroke-miterlimit:4;stroke-dasharray:none;stroke-dashoffset:0;stroke-opacity:1"
             id="circle7244"
             cx="-2138.1543"
             cy="-5662.6548"
             r="16.162441"
             transform="matrix(-0.49999999,0.86602541,-0.86602541,-0.49999999,0,0)" />
          <circle
             r="16.162441"
             cy="-5391.9341"
             cx="-2138.1543"
             id="circle7246"
             style="opacity:1;fill:#ffb716;fill-opacity:1;stroke:none;stroke-width:13;stroke-linecap:round;stroke-linejoin:miter;stroke-miterlimit:4;stroke-dasharray:none;stroke-dashoffset:0;stroke-opacity:1"
             transform="matrix(-0.49999999,0.86602541,-0.86602541,-0.49999999,0,0)" />
          <circle
             r="16.162441"
             cy="-3853.0608"
             cx="-4615.3433"
             id="circle7248"
             style="opacity:1;fill:#ffb716;fill-opacity:1;stroke:none;stroke-width:13;stroke-linecap:round;stroke-linejoin:miter;stroke-miterlimit:4;stroke-dasharray:none;stroke-dashoffset:0;stroke-opacity:1"
             transform="matrix(-0.8660254,0.5,-0.5,-0.8660254,0,0)" />
          <circle
             style="opacity:1;fill:#ffb716;fill-opacity:1;stroke:none;stroke-width:13;stroke-linecap:round;stroke-linejoin:miter;stroke-miterlimit:4;stroke-dasharray:none;stroke-dashoffset:0;stroke-opacity:1"
             id="circle7250"
             cx="-4615.3433"
             cy="-3582.3396"
             r="16.162441"
             transform="matrix(-0.8660254,0.5,-0.5,-0.8660254,0,0)" />
        </g>
        <path
           id="path7252"
           d="m 7083.0779,320.3272 a 161.6244,161.6244 0 0 0 -161.625,161.6231 161.6244,161.6244 0 0 0 161.625,161.625 161.6244,161.6244 0 0 0 161.625,-161.625 161.6244,161.6244 0 0 0 -161.625,-161.6231 z m 0,25.2539 A 136.37059,136.37059 0 0 1 7219.449,481.9503 136.37059,136.37059 0 0 1 7083.0779,618.3214 136.37059,136.37059 0 0 1 6946.7068,481.9503 136.37059,136.37059 0 0 1 7083.0779,345.5811 Z"
           style="opacity:1;fill:#ffb716;fill-opacity:1;stroke:none;stroke-width:13;stroke-linecap:round;stroke-linejoin:miter;stroke-miterlimit:4;stroke-dasharray:none;stroke-dashoffset:0;stroke-opacity:1" />
      </g>
    </g>
  </g>
  <style
     id="style10573">.st0{fill:#7289DA;}</style>
  <style
     id="style10573-1">.st0{fill:#7289DA;}</style>
</svg>
