<?xml version="1.0" encoding="UTF-8" standalone="no"?>
<svg
   xmlns:dc="http://purl.org/dc/elements/1.1/"
   xmlns:cc="http://creativecommons.org/ns#"
   xmlns:rdf="http://www.w3.org/1999/02/22-rdf-syntax-ns#"
   xmlns:svg="http://www.w3.org/2000/svg"
   xmlns="http://www.w3.org/2000/svg"
   width="512"
   height="512"
   viewBox="0 0 512.00001 512.00001"
   id="svg9705"
   version="1.1">
  <defs
     id="defs9707" />
  <metadata
     id="metadata9710">
    <rdf:RDF>
      <cc:Work
         rdf:about="">
        <dc:format>image/svg+xml</dc:format>
        <dc:type
           rdf:resource="http://purl.org/dc/dcmitype/StillImage" />
        <dc:title></dc:title>
      </cc:Work>
    </rdf:RDF>
  </metadata>
  <rect
     ry="21.520441"
     y="111.4267"
     x="24.655687"
     height="320.116"
     width="462.68872"
     id="rect7128"
     style="opacity:1;fill:#740707;fill-opacity:1;stroke:#740707;stroke-width:17.30958939;stroke-linecap:round;stroke-linejoin:miter;stroke-miterlimit:4;stroke-dasharray:none;stroke-dashoffset:0;stroke-opacity:1" />
  <path
     id="path7130"
     d="m 487.34437,123.28723 0,277.075 c 0,11.92245 -9.59803,21.52048 -21.52035,21.52048 l -154.67783,0 c -31.60811,-0.67254 -55.14608,4.95813 -55.14608,4.95813 0,0 -25.55548,-4.95813 -55.14609,-4.95813 l -154.677832,0 c -11.922446,0 -21.52048,-9.59803 -21.52048,-21.52048 l 0,-277.075"
     style="opacity:1;fill:none;fill-opacity:1;stroke:#949494;stroke-width:17.30958939;stroke-linecap:round;stroke-linejoin:miter;stroke-miterlimit:4;stroke-dasharray:none;stroke-dashoffset:0;stroke-opacity:1" />
  <path
     style="opacity:1;fill:none;fill-opacity:1;stroke:#b1b1b1;stroke-width:17.30958939;stroke-linecap:round;stroke-linejoin:miter;stroke-miterlimit:4;stroke-dasharray:none;stroke-dashoffset:0;stroke-opacity:1"
     d="m 487.34437,109.83701 0,277.075 c 0,11.92245 -9.59803,21.52048 -21.52035,21.52048 l -154.67783,0 c -31.60811,-0.67254 -55.14608,18.40835 -55.14608,18.40835 0,0 -25.55548,-18.40835 -55.14609,-18.40835 l -154.677832,0 c -11.922446,0 -21.52048,-9.59803 -21.52048,-21.52048 l 0,-277.075"
     id="path7132" />
  <path
     style="opacity:1;fill:#ffffff;fill-opacity:1;stroke:#d8d8d8;stroke-width:17.30958939;stroke-linecap:round;stroke-linejoin:miter;stroke-miterlimit:4;stroke-dasharray:none;stroke-dashoffset:0;stroke-opacity:1"
     d="m 46.176188,73.099273 154.677832,0 c 28.24552,1.345088 55.14609,33.625607 55.14609,33.625607 0,0 29.59061,-32.953063 55.14608,-33.625607 l 154.67783,0 c 11.92232,0 21.52035,9.598167 21.52035,21.52048 l 0,277.074997 c 0,11.92245 -9.59803,21.52048 -21.52035,21.52048 l -154.67783,0 c -31.60811,-0.67254 -55.14608,33.62561 -55.14608,33.62561 0,0 -25.55548,-33.62561 -55.14609,-33.62561 l -154.677832,0 c -11.922446,0 -21.52048,-9.59803 -21.52048,-21.52048 l 0,-277.074997 c 0,-11.922313 9.598034,-21.52048 21.52048,-21.52048 z"
     id="path7134" />
  <path
     style="fill:#00afcc;fill-opacity:1;fill-rule:evenodd;stroke:none;stroke-width:1px;stroke-linecap:butt;stroke-linejoin:miter;stroke-opacity:1"
     d="m 310.65666,316.20739 146.08587,-19.12206 0,47.598 -146.08587,0 z"
     id="path8181" />
  <rect
     y="118.10178"
     x="310.10626"
     height="228.39153"
     width="148.06233"
     id="rect7254"
     style="opacity:1;fill:none;fill-opacity:1;stroke:#b3b3b3;stroke-width:11.98356247;stroke-linecap:round;stroke-linejoin:miter;stroke-miterlimit:4;stroke-dasharray:none;stroke-dashoffset:0;stroke-opacity:1" />
  <rect
     ry="0"
     y="-120.40981"
     x="52.916401"
     height="11.882632"
     width="128.17622"
     id="rect7136"
     style="opacity:1;fill:#b3b3b3;fill-opacity:1;stroke:none;stroke-width:25;stroke-linecap:round;stroke-linejoin:round;stroke-miterlimit:4;stroke-dasharray:none;stroke-dashoffset:0;stroke-opacity:1"
     transform="scale(1,-1)" />
  <rect
     transform="scale(1,-1)"
     style="opacity:1;fill:#b3b3b3;fill-opacity:1;stroke:none;stroke-width:25;stroke-linecap:round;stroke-linejoin:round;stroke-miterlimit:4;stroke-dasharray:none;stroke-dashoffset:0;stroke-opacity:1"
     id="rect7138"
     width="151.04166"
     height="11.882632"
     x="52.916401"
     y="-148.65526"
     ry="0" />
  <rect
     transform="scale(1,-1)"
     style="opacity:1;fill:#b3b3b3;fill-opacity:1;stroke:none;stroke-width:25;stroke-linecap:round;stroke-linejoin:round;stroke-miterlimit:4;stroke-dasharray:none;stroke-dashoffset:0;stroke-opacity:1"
     id="rect7140"
     width="134.90135"
     height="11.882632"
     x="52.916401"
     y="-176.90068"
     ry="0" />
  <rect
     ry="0"
     y="-205.14612"
     x="52.916401"
     height="11.882632"
     width="147.00658"
     id="rect7142"
     style="opacity:1;fill:#b3b3b3;fill-opacity:1;stroke:none;stroke-width:25;stroke-linecap:round;stroke-linejoin:round;stroke-miterlimit:4;stroke-dasharray:none;stroke-dashoffset:0;stroke-opacity:1"
     transform="scale(1,-1)" />
  <rect
     ry="0"
     y="-233.39188"
     x="52.916401"
     height="11.882632"
     width="71.685181"
     id="rect7144"
     style="opacity:1;fill:#b3b3b3;fill-opacity:1;stroke:none;stroke-width:25;stroke-linecap:round;stroke-linejoin:round;stroke-miterlimit:4;stroke-dasharray:none;stroke-dashoffset:0;stroke-opacity:1"
     transform="scale(1,-1)" />
  <rect
     transform="scale(1,-1)"
     style="opacity:1;fill:#b3b3b3;fill-opacity:1;stroke:none;stroke-width:25;stroke-linecap:round;stroke-linejoin:round;stroke-miterlimit:4;stroke-dasharray:none;stroke-dashoffset:0;stroke-opacity:1"
     id="rect7146"
     width="133.55634"
     height="11.882632"
     x="52.916401"
     y="-261.63733"
     ry="0" />
  <rect
     transform="scale(1,-1)"
     style="opacity:1;fill:#b3b3b3;fill-opacity:1;stroke:none;stroke-width:25;stroke-linecap:round;stroke-linejoin:round;stroke-miterlimit:4;stroke-dasharray:none;stroke-dashoffset:0;stroke-opacity:1"
     id="rect7148"
     width="121.4511"
     height="11.882632"
     x="52.916401"
     y="-289.88275"
     ry="0" />
  <rect
     ry="0"
     y="-318.12817"
     x="52.916401"
     height="11.882632"
     width="134.90135"
     id="rect7150"
     style="opacity:1;fill:#b3b3b3;fill-opacity:1;stroke:none;stroke-width:25;stroke-linecap:round;stroke-linejoin:round;stroke-miterlimit:4;stroke-dasharray:none;stroke-dashoffset:0;stroke-opacity:1"
     transform="scale(1,-1)" />
  <rect
     ry="0"
     y="-346.37396"
     x="52.916401"
     height="11.882632"
     width="141.62648"
     id="rect7152"
     style="opacity:1;fill:#b3b3b3;fill-opacity:1;stroke:none;stroke-width:25;stroke-linecap:round;stroke-linejoin:round;stroke-miterlimit:4;stroke-dasharray:none;stroke-dashoffset:0;stroke-opacity:1"
     transform="scale(1,-1)" />
  <path
     style="fill:#f3f3f3;fill-opacity:1;fill-rule:evenodd;stroke:none;stroke-width:1px;stroke-linecap:butt;stroke-linejoin:miter;stroke-opacity:1"
     d="m 255.61969,431.0307 0,-326.69468 -24.72794,-22.35027 0,321.46371 z"
     id="path7172" />
  <path
     id="path7174"
     d="m 46.176188,73.099273 154.677832,0 c 28.24552,1.345088 55.14609,33.625607 55.14609,33.625607 0,0 29.59061,-32.953063 55.14608,-33.625607 l 154.67783,0 c 11.92232,0 21.52035,9.598167 21.52035,21.52048 l 0,277.074997 c 0,11.92245 -9.59803,21.52048 -21.52035,21.52048 l -154.67783,0 c -31.60811,-0.67254 -55.14608,33.62561 -55.14608,33.62561 0,0 -25.55548,-33.62561 -55.14609,-33.62561 l -154.677832,0 c -11.922446,0 -21.52048,-9.59803 -21.52048,-21.52048 l 0,-277.074997 c 0,-11.922313 9.598034,-21.52048 21.52048,-21.52048 z"
     style="opacity:1;fill:none;fill-opacity:1;stroke:#d8d8d8;stroke-width:17.30958939;stroke-linecap:round;stroke-linejoin:miter;stroke-miterlimit:4;stroke-dasharray:none;stroke-dashoffset:0;stroke-opacity:1" />
  <path
     style="color:#000000;font-style:normal;font-variant:normal;font-weight:normal;font-stretch:normal;font-size:medium;line-height:normal;font-family:sans-serif;text-indent:0;text-align:start;text-decoration:none;text-decoration-line:none;text-decoration-style:solid;text-decoration-color:#000000;letter-spacing:normal;word-spacing:normal;text-transform:none;direction:ltr;block-progression:tb;writing-mode:lr-tb;baseline-shift:baseline;text-anchor:start;white-space:normal;clip-rule:nonzero;display:inline;overflow:visible;visibility:visible;opacity:1;isolation:auto;mix-blend-mode:normal;color-interpolation:sRGB;color-interpolation-filters:linearRGB;solid-color:#000000;solid-opacity:1;fill:#a90000;fill-opacity:1;fill-rule:evenodd;stroke:none;stroke-width:15;stroke-linecap:butt;stroke-linejoin:miter;stroke-miterlimit:4;stroke-dasharray:none;stroke-dashoffset:0;stroke-opacity:1;color-rendering:auto;image-rendering:auto;shape-rendering:auto;text-rendering:auto;enable-background:accumulate"
     d="m 265.7261,285.86688 c 1.78968,-8.56611 3.61264,-17.14328 5.30512,-26.13335 1.11034,-5.89751 2.16823,-11.88916 3.13117,-17.978 0.96295,-6.08872 1.82963,-12.27583 2.56156,-18.56307 0.73206,-6.28725 1.32764,-12.67355 1.74507,-19.16638 0.41743,-6.49283 0.65696,-13.09031 0.67614,-19.79578 0.0173,-6.1742 -0.20239,-12.46543 -0.59039,-18.82578 -4.36029,-31.09481 -6.88562,-61.44025 1.0949,-89.952075 -3.94406,2.528132 -7.63114,5.249066 -11.00571,7.900629 -5.10313,4.009567 -9.20843,7.826331 -12.49592,10.992655 -0.0506,-0.05193 -0.10919,-0.109184 -0.16125,-0.161246 -7.15818,64.558117 19.92334,132.684527 9.73931,191.682397 z"
     id="path7176" />
  <path
     style="color:#000000;font-style:normal;font-variant:normal;font-weight:normal;font-stretch:normal;font-size:medium;line-height:normal;font-family:sans-serif;text-indent:0;text-align:start;text-decoration:none;text-decoration-line:none;text-decoration-style:solid;text-decoration-color:#000000;letter-spacing:normal;word-spacing:normal;text-transform:none;direction:ltr;block-progression:tb;writing-mode:lr-tb;baseline-shift:baseline;text-anchor:start;white-space:normal;clip-rule:nonzero;display:inline;overflow:visible;visibility:visible;opacity:1;isolation:auto;mix-blend-mode:normal;color-interpolation:sRGB;color-interpolation-filters:linearRGB;solid-color:#000000;solid-opacity:1;fill:#d41e1e;fill-opacity:1;fill-rule:evenodd;stroke:none;stroke-width:15;stroke-linecap:butt;stroke-linejoin:miter;stroke-miterlimit:4;stroke-dasharray:none;stroke-dashoffset:0;stroke-opacity:1;color-rendering:auto;image-rendering:auto;shape-rendering:auto;text-rendering:auto;enable-background:accumulate"
     d="m 263.47692,294.00159 c -1.44469,6.08299 -3.17924,12.09674 -5.59646,17.95191 l 13.04464,-6.902 5.25839,14.89371 c 21.18028,-50.39421 9.05544,-103.48326 1.8958,-154.54069 0.388,6.36035 0.6081,12.65158 0.59039,18.82578 -0.0186,6.70547 -0.25872,13.30295 -0.67614,19.79578 -0.41743,6.49283 -1.01301,12.87913 -1.74508,19.16638 -0.73193,6.28724 -1.5986,12.47435 -2.56155,18.56307 -0.96294,6.08884 -2.02083,12.08049 -3.13117,17.978 -1.69248,8.99007 -3.51545,17.56724 -5.30512,26.13335 -0.23954,1.38717 -0.55844,2.75556 -0.84005,4.13234 -0.27349,1.30794 -0.54592,2.72226 -0.81661,4.02061 l -0.11718,-0.0186 z"
     id="path7178" />
  <path
     style="color:#000000;font-style:normal;font-variant:normal;font-weight:normal;font-stretch:normal;font-size:medium;line-height:normal;font-family:sans-serif;text-indent:0;text-align:start;text-decoration:none;text-decoration-line:none;text-decoration-style:solid;text-decoration-color:#000000;letter-spacing:normal;word-spacing:normal;text-transform:none;direction:ltr;block-progression:tb;writing-mode:lr-tb;baseline-shift:baseline;text-anchor:start;white-space:normal;clip-rule:nonzero;display:inline;overflow:visible;visibility:visible;opacity:1;isolation:auto;mix-blend-mode:normal;color-interpolation:sRGB;color-interpolation-filters:linearRGB;solid-color:#000000;solid-opacity:1;fill:#a90000;fill-opacity:1;fill-rule:evenodd;stroke:none;stroke-width:15;stroke-linecap:butt;stroke-linejoin:miter;stroke-miterlimit:4;stroke-dasharray:none;stroke-dashoffset:0;stroke-opacity:1;color-rendering:auto;image-rendering:auto;shape-rendering:auto;text-rendering:auto;enable-background:accumulate"
     d="m 263.9524,294.00159 0.11717,0.0186 c 0.2707,-1.29835 0.54312,-2.71267 0.81661,-4.02061 -0.27469,1.34282 -0.61715,2.66967 -0.93365,4.00237 z"
     id="path7180" />
  <style
     id="style10573">.st0{fill:#7289DA;}</style>
  <style
     id="style10573-1">.st0{fill:#7289DA;}</style>
  <path
     id="path4886"
     d="m 373.41985,189.90846 c 7.22694,-6.95962 9.26332,-11.21006 7.18567,-13.51569 -2.07775,-2.30561 -14.56734,2.20691 -20.48304,5.61563 -12.28765,7.08039 -20.10377,20.25467 -20.10377,36.17814 0,23.99896 19.45497,43.45393 43.45391,43.45393 23.99895,0 42.96836,-18.63294 43.45392,-43.45393 0.48564,-24.82098 -16.2907,-37.68539 -30.75512,-25.98606 -18.54683,15.00126 -25.65889,59.82633 -15.47343,97.86056"
     style="opacity:1;fill:none;fill-opacity:1;stroke:#c9452e;stroke-width:13.97859097;stroke-linecap:round;stroke-linejoin:round;stroke-miterlimit:4;stroke-dasharray:none;stroke-dashoffset:0;stroke-opacity:1" />
  <rect
     transform="scale(1,-1)"
     style="opacity:1;fill:#00afcc;fill-opacity:1;stroke:none;stroke-width:25;stroke-linecap:round;stroke-linejoin:round;stroke-miterlimit:4;stroke-dasharray:none;stroke-dashoffset:0;stroke-opacity:1"
     id="rect9746"
     width="35.365463"
     height="11.882632"
     x="327.51352"
     y="-150.32402"
     ry="0" />
  <rect
     ry="0"
     y="-150.32402"
     x="396.5463"
     height="11.882632"
     width="41.501713"
     id="rect9748"
     style="opacity:1;fill:#00afcc;fill-opacity:1;stroke:none;stroke-width:25;stroke-linecap:round;stroke-linejoin:round;stroke-miterlimit:4;stroke-dasharray:none;stroke-dashoffset:0;stroke-opacity:1"
     transform="scale(1,-1)" />
</svg>
