<?xml version="1.0" encoding="UTF-8" standalone="no"?>
<svg
   xmlns:dc="http://purl.org/dc/elements/1.1/"
   xmlns:cc="http://creativecommons.org/ns#"
   xmlns:rdf="http://www.w3.org/1999/02/22-rdf-syntax-ns#"
   xmlns:svg="http://www.w3.org/2000/svg"
   xmlns="http://www.w3.org/2000/svg"
   xmlns:sodipodi="http://sodipodi.sourceforge.net/DTD/sodipodi-0.dtd"
   xmlns:inkscape="http://www.inkscape.org/namespaces/inkscape"
   version="1.1"
   id="svg9705"
   viewBox="0 0 512.00001 512.00001"
   height="512"
   width="512"
   inkscape:version="0.91 r13725"
   sodipodi:docname="candidature-depot.svg">
  <sodipodi:namedview
     pagecolor="#ffffff"
     bordercolor="#666666"
     borderopacity="1"
     objecttolerance="10"
     gridtolerance="10"
     guidetolerance="10"
     inkscape:pageopacity="0"
     inkscape:pageshadow="2"
     inkscape:window-width="1920"
     inkscape:window-height="1016"
     id="namedview4186"
     showgrid="false"
     inkscape:zoom="2"
     inkscape:cx="86.41304"
     inkscape:cy="241.17861"
     inkscape:window-x="0"
     inkscape:window-y="27"
     inkscape:window-maximized="1"
     inkscape:current-layer="svg9705"
     inkscape:object-paths="true"
     inkscape:snap-intersection-paths="true"
     inkscape:object-nodes="true"
     inkscape:snap-smooth-nodes="true">
    <inkscape:grid
       type="xygrid"
       id="grid4758"
       spacingx="4.0000001"
       spacingy="4.0000001"
       empspacing="4" />
  </sodipodi:namedview>
  <defs
     id="defs9707" />
  <metadata
     id="metadata9710">
    <rdf:RDF>
      <cc:Work
         rdf:about="">
        <dc:format>image/svg+xml</dc:format>
        <dc:type
           rdf:resource="http://purl.org/dc/dcmitype/StillImage" />
        <dc:title></dc:title>
      </cc:Work>
    </rdf:RDF>
  </metadata>
  <style
     id="style10573">.st0{fill:#7289DA;}</style>
  <g
     id="g8199"
     transform="translate(-231.89099,-95.999999)">
    <rect
       style="opacity:1;fill:#ffffff;fill-opacity:1;stroke:#b3b3b3;stroke-width:16;stroke-linecap:round;stroke-linejoin:miter;stroke-miterlimit:4;stroke-dasharray:none;stroke-dashoffset:0;stroke-opacity:1"
       id="rect8144"
       width="192"
       height="256"
       x="519.89099"
       y="232"
       ry="3.1074901e-06" />
    <rect
       style="opacity:1;fill:#287d00;fill-opacity:1;stroke:none;stroke-width:15.78199959;stroke-linecap:round;stroke-linejoin:miter;stroke-miterlimit:4;stroke-dasharray:none;stroke-dashoffset:0;stroke-opacity:1"
       id="rect8148"
       width="49.971405"
       height="16"
       x="543.89099"
       y="256"
       ry="3.1074901e-06" />
    <rect
       style="opacity:1;fill:#287d00;fill-opacity:1;stroke:none;stroke-width:15.78199959;stroke-linecap:round;stroke-linejoin:miter;stroke-miterlimit:4;stroke-dasharray:none;stroke-dashoffset:0;stroke-opacity:1"
       id="rect8150"
       width="39.890987"
       height="16"
       x="648"
       y="256"
       ry="3.1074901e-06" />
    <path
       sodipodi:nodetypes="ccccc"
       style="fill:#287d00;fill-opacity:1;fill-rule:evenodd;stroke:none;stroke-width:1px;stroke-linecap:butt;stroke-linejoin:miter;stroke-opacity:1"
       d="m 527.89101,450.84609 176,-23.7746 0,52.92851 -176,0 z"
       id="path8152"
       inkscape:connector-curvature="0" />
    <g
       transform="translate(14.573591,-375.0782)"
       id="g8154">
      <path
         style="fill:none;fill-rule:evenodd;stroke:#287d00;stroke-width:15.78199959;stroke-linecap:round;stroke-linejoin:miter;stroke-miterlimit:4;stroke-dasharray:none;stroke-opacity:1"
         d="m 543.21653,685.55932 111.72881,0"
         id="path8130"
         inkscape:connector-curvature="0" />
      <path
         style="fill:none;fill-rule:evenodd;stroke:#287d00;stroke-width:15.78199959;stroke-linecap:round;stroke-linejoin:miter;stroke-miterlimit:4;stroke-dasharray:none;stroke-opacity:1"
         d="m 566.98788,685.96611 0,87.18643"
         id="path8132"
         inkscape:connector-curvature="0"
         sodipodi:nodetypes="cc" />
      <path
         style="fill:none;fill-rule:evenodd;stroke:#287d00;stroke-width:15.78199959;stroke-linecap:round;stroke-linejoin:miter;stroke-miterlimit:4;stroke-dasharray:none;stroke-opacity:1"
         d="m 632.43687,686.64407 c 0,0 -6.21389,51.16784 0,66.16949 6.21389,15.00165 22.10169,22.10169 22.10169,22.10169"
         id="path8134"
         inkscape:connector-curvature="0"
         sodipodi:nodetypes="czc" />
    </g>
  </g>
  <g
     id="g8192"
     transform="translate(-527.89099,-72)">
    <rect
       ry="3.1074901e-06"
       y="232"
       x="743.89099"
       height="256"
       width="192"
       id="rect8159"
       style="opacity:1;fill:#ffffff;fill-opacity:1;stroke:#b3b3b3;stroke-width:16;stroke-linecap:round;stroke-linejoin:miter;stroke-miterlimit:4;stroke-dasharray:none;stroke-dashoffset:0;stroke-opacity:1" />
    <rect
       ry="3.1074901e-06"
       y="256"
       x="767.89099"
       height="16"
       width="40.109013"
       id="rect8161"
       style="opacity:1;fill:#02007a;fill-opacity:1;stroke:none;stroke-width:15.78199959;stroke-linecap:round;stroke-linejoin:miter;stroke-miterlimit:4;stroke-dasharray:none;stroke-dashoffset:0;stroke-opacity:1" />
    <rect
       ry="3.1074901e-06"
       y="256"
       x="857.23468"
       height="16"
       width="54.656338"
       id="rect8163"
       style="opacity:1;fill:#02007a;fill-opacity:1;stroke:none;stroke-width:15.78199959;stroke-linecap:round;stroke-linejoin:miter;stroke-miterlimit:4;stroke-dasharray:none;stroke-dashoffset:0;stroke-opacity:1" />
    <path
       inkscape:connector-curvature="0"
       id="path8165"
       d="m 751.89103,443.52406 176,13.37794 0,23.098 -176,0 z"
       style="fill:#02007a;fill-opacity:1;fill-rule:evenodd;stroke:none;stroke-width:1px;stroke-linecap:butt;stroke-linejoin:miter;stroke-opacity:1"
       sodipodi:nodetypes="ccccc" />
    <path
       style="opacity:1;fill:none;fill-opacity:1;stroke:#02007a;stroke-width:15.91801929;stroke-linecap:round;stroke-linejoin:round;stroke-miterlimit:4;stroke-dasharray:none;stroke-dashoffset:0;stroke-opacity:1"
       d="m 885.47423,306.79917 c -9.93932,-7.27267 -30.79401,-15.96485 -60.36077,-15.31717 -14.6638,0.32122 -28.33706,8.56925 -27.90053,24.58488 0.43652,16.01564 16.13011,23.66085 29.23103,23.67873 3.96895,0.005 9.88544,-0.59844 13.87616,-0.59844 27.00755,0 48.9015,21.89394 48.9015,48.9015 0,27.00757 -21.89395,48.90151 -48.9015,48.90151 -27.00756,0 -48.90151,-21.89395 -48.90151,-48.90151 0,-10.62537 6.26663,-24.46954 9.14448,-28.47982 2.87785,-4.01028 4.78811,-4.02869 6.24415,0.10135 1.45605,4.13006 4.11172,17.01838 4.11172,17.01838"
       id="path8078"
       inkscape:connector-curvature="0"
       sodipodi:nodetypes="cssssszszzc" />
  </g>
  <g
     id="g8209"
     transform="translate(-152,-48)">
    <rect
       ry="3.1074901e-06"
       y="232"
       x="296"
       height="256"
       width="192"
       id="rect8136"
       style="opacity:1;fill:#ffffff;fill-opacity:1;stroke:#b3b3b3;stroke-width:16;stroke-linecap:round;stroke-linejoin:miter;stroke-miterlimit:4;stroke-dasharray:none;stroke-dashoffset:0;stroke-opacity:1" />
    <path
       sodipodi:nodetypes="csssczc"
       inkscape:connector-curvature="0"
       id="path6998"
       d="m 458.23013,316.98797 c -9.21207,17.18755 -36.78601,70.2789 -46.54539,79.21914 -8.70038,7.97011 -20.29351,12.8336 -33.02259,12.8336 -27.00756,0 -48.90151,-21.89396 -48.90151,-48.90151 0,-23.49258 16.5659,-43.11599 38.65342,-47.82595 20.1592,-4.47223 36.61107,6.96949 46.24772,22.63461 9.63665,15.66514 17.6291,71.67147 43.56835,71.9789"
       style="opacity:1;fill:none;fill-opacity:1;stroke:#ff9f00;stroke-width:15.91816521;stroke-linecap:round;stroke-linejoin:round;stroke-miterlimit:4;stroke-dasharray:none;stroke-dashoffset:0;stroke-opacity:1" />
    <rect
       ry="3.1074901e-06"
       y="256"
       x="320"
       height="16"
       width="40"
       id="rect8138"
       style="opacity:1;fill:#ff9f00;fill-opacity:1;stroke:none;stroke-width:15.78199959;stroke-linecap:round;stroke-linejoin:miter;stroke-miterlimit:4;stroke-dasharray:none;stroke-dashoffset:0;stroke-opacity:1" />
    <rect
       ry="3.1074901e-06"
       y="256"
       x="416"
       height="16"
       width="48"
       id="rect8140"
       style="opacity:1;fill:#ff9f00;fill-opacity:1;stroke:none;stroke-width:15.78199959;stroke-linecap:round;stroke-linejoin:miter;stroke-miterlimit:4;stroke-dasharray:none;stroke-dashoffset:0;stroke-opacity:1" />
    <path
       inkscape:connector-curvature="0"
       id="path8142"
       d="m 304,424 176,28 0,28 -176,0 z"
       style="fill:#ff9f00;fill-opacity:1;fill-rule:evenodd;stroke:none;stroke-width:1px;stroke-linecap:butt;stroke-linejoin:miter;stroke-opacity:1" />
  </g>
  <path
     style="fill:#00afcc;fill-opacity:1;fill-rule:evenodd;stroke:#ffffff;stroke-width:32;stroke-linecap:butt;stroke-linejoin:miter;stroke-miterlimit:4;stroke-dasharray:none;stroke-opacity:1"
     d="m 112,328 0,80 -24.000002,0 L 128,464 l 40,-56 -24,0 0,-80 -32,0 z"
     id="path8220"
     inkscape:connector-curvature="0" />
  <g
     id="g8185"
     transform="translate(-935.89099,-152)">
    <rect
       style="opacity:1;fill:#ffffff;fill-opacity:1;stroke:#b3b3b3;stroke-width:16;stroke-linecap:round;stroke-linejoin:miter;stroke-miterlimit:4;stroke-dasharray:none;stroke-dashoffset:0;stroke-opacity:1"
       id="rect8175"
       width="192"
       height="256"
       x="967.89099"
       y="232"
       ry="3.1074901e-06" />
    <rect
       style="opacity:1;fill:#00afcc;fill-opacity:1;stroke:none;stroke-width:15.78199959;stroke-linecap:round;stroke-linejoin:miter;stroke-miterlimit:4;stroke-dasharray:none;stroke-dashoffset:0;stroke-opacity:1"
       id="rect8177"
       width="40.109013"
       height="16"
       x="991.89099"
       y="256"
       ry="3.1074901e-06" />
    <rect
       style="opacity:1;fill:#00afcc;fill-opacity:1;stroke:none;stroke-width:15.78199959;stroke-linecap:round;stroke-linejoin:miter;stroke-miterlimit:4;stroke-dasharray:none;stroke-dashoffset:0;stroke-opacity:1"
       id="rect8179"
       width="54.656338"
       height="16"
       x="1081.2346"
       y="256"
       ry="3.1074901e-06" />
    <path
       sodipodi:nodetypes="ccccc"
       style="fill:#00afcc;fill-opacity:1;fill-rule:evenodd;stroke:none;stroke-width:1px;stroke-linecap:butt;stroke-linejoin:miter;stroke-opacity:1"
       d="m 975.89102,451.52406 176.00008,-19.12206 0,47.598 -176.00008,0 z"
       id="path8181"
       inkscape:connector-curvature="0" />
    <path
       sodipodi:nodetypes="czssszsc"
       inkscape:connector-curvature="0"
       id="path4886"
       d="m 1052.5556,313.31418 c 8.1593,-7.8575 10.4584,-12.6563 8.1127,-15.25938 -2.3458,-2.60306 -16.4467,2.49163 -23.1256,6.34012 -13.8729,7.99384 -22.6974,22.86777 -22.6974,40.84556 0,27.09511 21.9649,49.06001 49.06,49.06001 27.0951,0 48.5118,-21.03681 49.06,-49.06001 0.5483,-28.02319 -18.3924,-42.54727 -34.7229,-29.33858 -20.9396,16.9366 -28.9692,67.54465 -17.4697,110.48576"
       style="opacity:1;fill:none;fill-opacity:1;stroke:#c9452e;stroke-width:15.78199959;stroke-linecap:round;stroke-linejoin:round;stroke-miterlimit:4;stroke-dasharray:none;stroke-dashoffset:0;stroke-opacity:1" />
  </g>
  <rect
     style="opacity:1;fill:#00afcc;fill-opacity:1;stroke:none;stroke-width:16;stroke-linecap:round;stroke-linejoin:miter;stroke-miterlimit:4;stroke-dasharray:none;stroke-dashoffset:0;stroke-opacity:1"
     id="rect8216"
     width="32"
     height="84"
     x="112"
     y="328"
     ry="3.1074901e-06" />
  <path
     style="fill:#00afcc;fill-opacity:1;fill-rule:evenodd;stroke:none;stroke-width:1px;stroke-linecap:butt;stroke-linejoin:miter;stroke-opacity:1"
     d="M 128,464 87.999999,408 168,408 Z"
     id="path8218"
     inkscape:connector-curvature="0"
     sodipodi:nodetypes="cccc" />
</svg>
