<?xml version="1.0" encoding="UTF-8" standalone="no"?>
<!-- Created with Inkscape (http://www.inkscape.org/) -->

<svg
   xmlns:dc="http://purl.org/dc/elements/1.1/"
   xmlns:cc="http://creativecommons.org/ns#"
   xmlns:rdf="http://www.w3.org/1999/02/22-rdf-syntax-ns#"
   xmlns:svg="http://www.w3.org/2000/svg"
   xmlns="http://www.w3.org/2000/svg"
   xmlns:sodipodi="http://sodipodi.sourceforge.net/DTD/sodipodi-0.dtd"
   xmlns:inkscape="http://www.inkscape.org/namespaces/inkscape"
   width="512"
   height="512"
   viewBox="0 0 512.00001 512.00001"
   id="svg9705"
   version="1.1"
   inkscape:version="0.91 r13725"
   sodipodi:docname="cover-facebook.svg">
  <defs
     id="defs9707" />
  <sodipodi:namedview
     id="base"
     pagecolor="#ffffff"
     bordercolor="#666666"
     borderopacity="1.0"
     inkscape:pageopacity="0.0"
     inkscape:pageshadow="2"
     inkscape:zoom="0.70710678"
     inkscape:cx="288.64672"
     inkscape:cy="354.79128"
     inkscape:document-units="px"
     inkscape:current-layer="layer1"
     showgrid="true"
     inkscape:showpageshadow="false"
     borderlayer="true"
     units="px"
     showguides="true"
     inkscape:guide-bbox="true"
     inkscape:window-width="1920"
     inkscape:window-height="1016"
     inkscape:window-x="0"
     inkscape:window-y="27"
     inkscape:window-maximized="1"
     inkscape:snap-bbox="true"
     inkscape:object-paths="true"
     inkscape:snap-global="true"
     inkscape:object-nodes="true"
     inkscape:bbox-paths="true"
     inkscape:bbox-nodes="true"
     inkscape:snap-bbox-edge-midpoints="true"
     inkscape:snap-bbox-midpoints="true"
     inkscape:snap-intersection-paths="true"
     inkscape:snap-midpoints="true"
     inkscape:snap-smooth-nodes="true"
     inkscape:snap-object-midpoints="true"
     inkscape:snap-center="true"
     inkscape:snap-text-baseline="true">
    <inkscape:grid
       type="xygrid"
       id="grid10291"
       spacingx="4.0000001"
       spacingy="4.0000001"
       empspacing="4" />
  </sodipodi:namedview>
  <metadata
     id="metadata9710">
    <rdf:RDF>
      <cc:Work
         rdf:about="">
        <dc:format>image/svg+xml</dc:format>
        <dc:type
           rdf:resource="http://purl.org/dc/dcmitype/StillImage" />
        <dc:title></dc:title>
      </cc:Work>
    </rdf:RDF>
  </metadata>
  <g
     inkscape:label="Layer 1"
     inkscape:groupmode="layer"
     id="layer1"
     transform="translate(0,-540.36216)">
    <path
       inkscape:connector-curvature="0"
       style="opacity:1;fill:#3a589b;fill-opacity:1;stroke:none;stroke-width:25;stroke-linecap:round;stroke-linejoin:round;stroke-miterlimit:4;stroke-dasharray:none;stroke-dashoffset:0;stroke-opacity:1"
       d="M 40.03554,588.36214 C 26.719065,588.36214 16,599.08385 16,612.40032 l 0,127.92364 c 0,13.3166 10.719065,24.03818 24.03554,24.03818 l 154.0302,0 c 0.12427,-0.14568 0.22619,-0.28317 0.36156,-0.43374 5.46,-6.07273 8.77669,-6.99626 13.15255,-3.65604 2.28396,1.74341 2.53686,1.82009 3.99684,1.21608 0.85743,-0.35468 3.11364,-1.22321 5.01423,-1.9314 3.63436,-1.35396 3.53257,-1.22044 4.22159,-5.4686 0.22486,-1.38608 0.8873,-2.55233 2.10682,-3.70257 1.76919,-1.6678 1.81533,-1.67824 6.90426,-1.67824 7.74344,0 9.84418,1.44954 10.58092,7.30957 0.30736,2.44459 0.36975,2.52152 2.86854,3.46766 1.40459,0.53183 3.51261,1.47585 4.6889,2.09903 l 2.1404,1.13359 2.33156,-1.67323 c 4.54771,-3.26579 7.45486,-2.63045 12.47094,2.73173 0.19407,0.20755 0.34623,0.39024 0.52152,0.58616 l 12.95888,0 0.27629,-0.41048 -1.98811,-3.4005 c -1.09274,-1.87005 -2.22567,-4.12176 -2.51744,-5.00643 l -0.53182,-1.61122 -4.70436,-0.20913 c -7.72269,-0.34742 -8.76348,-1.59284 -9.62302,-11.51556 -0.84315,-9.73327 0.0992,-11.17488 8.47925,-13.01057 2.86418,-0.62727 3.07715,-0.77375 3.50362,-2.45292 0.24985,-0.98315 1.02929,-3.59245 1.73257,-5.79643 l 1.2806,-4.0073 -2.01905,-2.12242 c -3.44717,-3.62538 -4.22925,-4.92989 -4.22925,-7.06686 0,-2.6335 0.73608,-3.92269 5.20526,-9.10137 5.81627,-6.7398 8.09905,-7.27044 14.10264,-3.2843 l 2.879,1.91065 2.06042,-1.19282 c 1.1328,-0.65636 3.66741,-1.98375 5.63384,-2.94865 1.9667,-0.96491 3.6912,-1.86214 3.8316,-1.99327 0.14026,-0.13088 0.38469,-2.18086 0.54227,-4.55723 0.45727,-6.88271 1.95269,-7.83876 13.50367,-8.62375 1.81268,-0.12294 2.99769,-0.1938 3.86015,-0.17304 1.43711,0.0344 1.97648,0.32111 3.03379,1.04052 2.13577,1.45298 2.86207,2.84224 3.72571,7.10823 l 0.65067,3.20936 3.30493,0.85465 c 1.81639,0.47036 4.52894,1.35013 6.02898,1.95453 l 2.72656,1.09737 2.99242,-2.59225 c 5.4296,-4.70384 7.42299,-4.43548 14.95994,2.01138 6.96084,5.95388 7.37342,7.6435 3.37724,13.82635 l -2.10946,3.26104 1.09485,1.82551 c 0.60161,1.00311 1.87574,3.48867 2.82981,5.52544 l 1.73509,3.70257 3.65352,0 c 7.32412,0 8.91418,2.0636 9.4706,12.27979 0.4816,8.84015 -0.39566,10.35988 -6.75963,11.71702 -1.36308,0.2907 -2.97219,0.64062 -3.57593,0.77719 -0.83945,0.18996 -1.24437,0.8795 -1.72478,2.93305 -0.34542,1.47677 -1.17192,4.041 -1.83582,5.69849 l -1.20326,3.01317 2.79373,3.18093 c 1.44795,1.64915 2.42938,2.95724 3.01317,4.14926 l 104.15449,0 c 13.31648,0 24.03819,-10.72158 24.03819,-24.03818 l 0,-127.92364 c 0,-13.31647 -10.72171,-24.03818 -24.03819,-24.03818 z m 162.52492,15.34701 c 1.29883,-0.0132 2.76649,0.0132 4.42807,0.0357 8.59214,0.14528 9.5199,0.24786 10.83658,1.22374 2.0714,1.53534 2.72565,3.21305 3.36178,8.64966 l 0.56277,4.81792 3.3541,1.10517 c 1.84547,0.60744 5.0991,1.9741 7.22695,3.03643 l 3.86768,1.93127 3.793,-3.02864 c 7.16429,-5.71977 8.31334,-5.49767 17.15455,3.30745 9.12504,9.08788 9.34355,10.06535 3.87813,17.36897 l -3.18872,4.26282 1.6009,3.51407 c 0.88017,1.93245 2.10498,5.00855 2.72392,6.83445 l 1.12579,3.32052 5.2465,0.6171 c 5.678,0.66799 7.17804,1.33321 8.72964,3.878 0.88783,1.45668 0.99663,2.61354 0.99663,10.74881 0.0159,12.95109 -0.42039,13.62753 -9.32082,14.8928 -2.87858,0.40928 -5.38649,0.74863 -5.57447,0.75391 -0.18773,0 -0.85255,1.56111 -1.47692,3.45735 -0.62422,1.89624 -1.91579,5.00987 -2.86853,6.91708 l -1.72994,3.46502 3.16031,3.87033 c 6.00028,7.34328 5.81693,9.0978 -1.76867,16.92743 -10.08809,10.41291 -11.19907,10.58687 -20.52927,3.21199 l -2.85308,-2.25408 -3.41849,1.6292 c -1.8801,0.89629 -5.02811,2.16062 -6.99468,2.81183 l -3.57341,1.18514 -0.65583,5.27241 c -1.24967,10.06192 -1.75003,10.43603 -14.15698,10.55502 -5.0568,0.0489 -9.64339,-0.0357 -10.19359,-0.18587 -3.43078,-0.93913 -4.58909,-3.17339 -5.44017,-10.49314 l -0.63785,-5.4764 -2.58961,-0.84936 c -1.42508,-0.46692 -4.36118,-1.73391 -6.52472,-2.81435 l -3.93485,-1.96233 -3.72848,2.94852 c -5.73867,4.54176 -6.02581,4.6992 -8.73994,4.6992 l -2.49165,0 -6.63814,-6.51162 c -3.65182,-3.58188 -6.96388,-7.13455 -7.35862,-7.89322 -1.65299,-3.1771 -0.83536,-5.44744 4.20083,-11.6808 l 2.80138,-3.46754 -1.14112,-2.20768 c -0.62649,-1.21357 -1.85976,-4.04219 -2.74216,-6.28451 l -1.60343,-4.07432 -5.85844,-0.81844 c -9.65368,-1.34906 -9.90962,-1.74579 -9.90962,-15.29044 0,-8.27381 0.11633,-9.61944 0.92432,-10.8108 1.36745,-2.01416 3.72849,-2.90252 9.42419,-3.55016 l 5.10717,-0.581 0.93213,-3.12672 c 0.51239,-1.71989 1.69794,-4.82996 2.63613,-6.90942 l 1.70667,-3.77991 -3.00272,-3.88077 c -4.01999,-5.19257 -4.35669,-5.90776 -4.05118,-8.61859 0.24112,-2.14001 0.70342,-2.73529 7.08232,-9.12992 7.29689,-7.31486 8.68681,-8.16 11.92616,-7.26569 0.98064,0.27074 3.53085,1.88077 5.66742,3.57871 l 3.88328,3.08799 3.0494,-1.62669 c 1.67705,-0.89378 4.88653,-2.26863 7.13137,-3.05441 2.2451,-0.78577 4.19831,-1.54406 4.34029,-1.68604 0.14185,-0.14198 0.55444,-2.53673 0.91665,-5.32146 1.01687,-7.81946 1.82697,-9.20806 10.91909,-9.28221 z m 3.76973,45.90754 c -10.77406,0.037 -21.23627,6.86393 -24.6295,18.72968 -4.13751,14.46778 5.13558,29.3131 20.19878,32.33658 3.46555,0.69562 6.57165,0.56369 10.53188,-0.44933 19.53238,-4.99546 26.2817,-28.83112 12.16887,-42.97687 -5.22932,-5.24161 -11.80559,-7.66254 -18.27003,-7.64006 z m 111.85113,65.94874 c -7.7482,0.12031 -15.23439,4.7164 -18.68843,12.01129 -1.65035,3.48578 -2.44856,9.14315 -1.78413,12.64651 1.52343,8.03215 8.16039,15.05023 16.04964,16.96881 3.3122,0.80534 5.21359,0.83706 8.53081,0.13933 11.86297,-2.49508 19.38154,-13.89457 16.73377,-25.37298 -1.72967,-7.49887 -7.83069,-13.70262 -15.4816,-15.73977 -1.76959,-0.47102 -3.57197,-0.68082 -5.36006,-0.65319 z"
       id="rect4725"
       inkscape:export-filename="/home/adrienpilleboue/Projects/france-insoumise/kit-campagne.fi/assets/facebook-cover-generator.png"
       inkscape:export-xdpi="63.512051"
       inkscape:export-ydpi="63.512051"
       sodipodi:nodetypes="ssssccsccccssscccccccccccscccccssccccccccccccccccccsccsccccccccssssscccccccccsccccccccccccccsccccccccccccccscccccccccsccccccccssccccccccccscsccccccccc" />
    <rect
       style="opacity:1;fill:#b3b3b3;fill-opacity:1;stroke:none;stroke-width:25;stroke-linecap:round;stroke-linejoin:round;stroke-miterlimit:4;stroke-dasharray:none;stroke-dashoffset:0;stroke-opacity:1"
       id="rect4745"
       width="144"
       height="15.999976"
       x="16"
       y="796.36218"
       ry="0"
       inkscape:export-filename="/home/adrienpilleboue/Projects/france-insoumise/kit-campagne.fi/assets/facebook-cover-generator.png"
       inkscape:export-xdpi="63.512051"
       inkscape:export-ydpi="63.512051" />
    <rect
       ry="0"
       y="828.36218"
       x="16"
       height="15.999976"
       width="112"
       id="rect4747"
       style="opacity:1;fill:#b3b3b3;fill-opacity:1;stroke:none;stroke-width:25;stroke-linecap:round;stroke-linejoin:round;stroke-miterlimit:4;stroke-dasharray:none;stroke-dashoffset:0;stroke-opacity:1"
       inkscape:export-filename="/home/adrienpilleboue/Projects/france-insoumise/kit-campagne.fi/assets/facebook-cover-generator.png"
       inkscape:export-xdpi="63.512051"
       inkscape:export-ydpi="63.512051" />
    <rect
       style="opacity:1;fill:#b3b3b3;fill-opacity:1;stroke:none;stroke-width:25;stroke-linecap:round;stroke-linejoin:round;stroke-miterlimit:4;stroke-dasharray:none;stroke-dashoffset:0;stroke-opacity:1"
       id="rect4749"
       width="132"
       height="16"
       x="16"
       y="860.36218"
       ry="0"
       inkscape:export-filename="/home/adrienpilleboue/Projects/france-insoumise/kit-campagne.fi/assets/facebook-cover-generator.png"
       inkscape:export-xdpi="63.512051"
       inkscape:export-ydpi="63.512051" />
    <rect
       ry="0"
       y="892.36218"
       x="16"
       height="15.999976"
       width="140"
       id="rect4751"
       style="opacity:1;fill:#b3b3b3;fill-opacity:1;stroke:none;stroke-width:25;stroke-linecap:round;stroke-linejoin:round;stroke-miterlimit:4;stroke-dasharray:none;stroke-dashoffset:0;stroke-opacity:1"
       inkscape:export-filename="/home/adrienpilleboue/Projects/france-insoumise/kit-campagne.fi/assets/facebook-cover-generator.png"
       inkscape:export-xdpi="63.512051"
       inkscape:export-ydpi="63.512051" />
    <rect
       style="opacity:1;fill:#b3b3b3;fill-opacity:1;stroke:none;stroke-width:25;stroke-linecap:round;stroke-linejoin:round;stroke-miterlimit:4;stroke-dasharray:none;stroke-dashoffset:0;stroke-opacity:1"
       id="rect4753"
       width="116"
       height="15.999976"
       x="16"
       y="924.36218"
       ry="0"
       inkscape:export-filename="/home/adrienpilleboue/Projects/france-insoumise/kit-campagne.fi/assets/facebook-cover-generator.png"
       inkscape:export-xdpi="63.512051"
       inkscape:export-ydpi="63.512051" />
    <rect
       ry="0"
       y="956.36218"
       x="16"
       height="16"
       width="140"
       id="rect4755"
       style="opacity:1;fill:#b3b3b3;fill-opacity:1;stroke:none;stroke-width:25;stroke-linecap:round;stroke-linejoin:round;stroke-miterlimit:4;stroke-dasharray:none;stroke-dashoffset:0;stroke-opacity:1"
       inkscape:export-filename="/home/adrienpilleboue/Projects/france-insoumise/kit-campagne.fi/assets/facebook-cover-generator.png"
       inkscape:export-xdpi="63.512051"
       inkscape:export-ydpi="63.512051" />
    <rect
       style="opacity:1;fill:#b3b3b3;fill-opacity:1;stroke:none;stroke-width:25;stroke-linecap:round;stroke-linejoin:round;stroke-miterlimit:4;stroke-dasharray:none;stroke-dashoffset:0;stroke-opacity:1"
       id="rect4757"
       width="148"
       height="16.000023"
       x="16"
       y="988.36218"
       ry="0"
       inkscape:export-filename="/home/adrienpilleboue/Projects/france-insoumise/kit-campagne.fi/assets/facebook-cover-generator.png"
       inkscape:export-xdpi="63.512051"
       inkscape:export-ydpi="63.512051" />
    <rect
       ry="0"
       y="796.36218"
       x="192"
       height="63.999977"
       width="64"
       id="rect4759"
       style="opacity:1;fill:#b3b3b3;fill-opacity:1;stroke:none;stroke-width:25;stroke-linecap:round;stroke-linejoin:round;stroke-miterlimit:4;stroke-dasharray:none;stroke-dashoffset:0;stroke-opacity:1"
       inkscape:export-filename="/home/adrienpilleboue/Projects/france-insoumise/kit-campagne.fi/assets/facebook-cover-generator.png"
       inkscape:export-xdpi="63.512051"
       inkscape:export-ydpi="63.512051" />
    <rect
       ry="0"
       y="-852.36218"
       x="272"
       height="16.000025"
       width="144"
       id="rect4761"
       style="opacity:1;fill:#b3b3b3;fill-opacity:1;stroke:none;stroke-width:25;stroke-linecap:round;stroke-linejoin:round;stroke-miterlimit:4;stroke-dasharray:none;stroke-dashoffset:0;stroke-opacity:1"
       transform="scale(1,-1)"
       inkscape:export-filename="/home/adrienpilleboue/Projects/france-insoumise/kit-campagne.fi/assets/facebook-cover-generator.png"
       inkscape:export-xdpi="63.512051"
       inkscape:export-ydpi="63.512051" />
    <rect
       style="opacity:1;fill:#b3b3b3;fill-opacity:1;stroke:none;stroke-width:25;stroke-linecap:round;stroke-linejoin:round;stroke-miterlimit:4;stroke-dasharray:none;stroke-dashoffset:0;stroke-opacity:1"
       id="rect4763"
       width="96"
       height="16.000025"
       x="272"
       y="-820.36218"
       ry="0"
       transform="scale(1,-1)"
       inkscape:export-filename="/home/adrienpilleboue/Projects/france-insoumise/kit-campagne.fi/assets/facebook-cover-generator.png"
       inkscape:export-xdpi="63.512051"
       inkscape:export-ydpi="63.512051" />
    <path
       inkscape:connector-curvature="0"
       style="opacity:1;fill:#b3b3b3;fill-opacity:1;stroke:none;stroke-width:25;stroke-linecap:round;stroke-linejoin:round;stroke-miterlimit:4;stroke-dasharray:none;stroke-dashoffset:0;stroke-opacity:1"
       d="m 192,876.36218 0,128.00002 304,0 0,-128.00002 z m 16,16 272,0 0,96 -272,0 z"
       id="rect4765"
       inkscape:export-filename="/home/adrienpilleboue/Projects/france-insoumise/kit-campagne.fi/assets/facebook-cover-generator.png"
       inkscape:export-xdpi="63.512051"
       inkscape:export-ydpi="63.512051"
       sodipodi:nodetypes="cccccccccc" />
  </g>
  <style
     id="style10573">.st0{fill:#7289DA;}</style>
</svg>
