<?xml version="1.0" encoding="UTF-8" standalone="no"?>
<svg
   xmlns:dc="http://purl.org/dc/elements/1.1/"
   xmlns:cc="http://creativecommons.org/ns#"
   xmlns:rdf="http://www.w3.org/1999/02/22-rdf-syntax-ns#"
   xmlns:svg="http://www.w3.org/2000/svg"
   xmlns="http://www.w3.org/2000/svg"
   version="1.1"
   id="svg9705"
   viewBox="0 0 512.00001 512.00001"
   height="512"
   width="512">
  <defs
     id="defs9707" />
  <metadata
     id="metadata9710">
    <rdf:RDF>
      <cc:Work
         rdf:about="">
        <dc:format>image/svg+xml</dc:format>
        <dc:type
           rdf:resource="http://purl.org/dc/dcmitype/StillImage" />
        <dc:title></dc:title>
      </cc:Work>
    </rdf:RDF>
  </metadata>
  <g
     transform="translate(0,-540.36216)"
     id="layer1">
    <g
       id="layer1-3"
       transform="matrix(0.40000843,0,0,0.40000843,27.618933,335.91167)">
      <g
         id="g10349"
         transform="matrix(2.4832917,0,0,2.4832917,301.11787,542.81746)">
        <path
           d="m 223.29079,261.05753 c 7.854,0 14.223,-6.369 14.223,-14.225 l 0,-229.270001 c 0,-7.8570004 -6.368,-14.2240008 -14.223,-14.2240008 l -229.2700098,0 c -7.8570002,0 -14.2240002,6.3670004 -14.2240002,14.2240008 l 0,229.270001 c 0,7.855 6.366001,14.225 14.2240002,14.225 z"
           id="Blue_1_"
           style="fill:#3c5a99" />
        <path
           d="m 182.409,261.05753 0,-98.55353 33.499,0 5.016,-38.895 -38.515,0 0,-24.832 c 0,-11.261 3.127,-18.935 19.275,-18.935 l 20.596,-0.009 0,-34.788 c -3.562,-0.474 -15.788,-1.533 -30.012,-1.533 -29.695,0 -50.025,18.126 -50.025,51.413 l 0,28.684 -33.585,0 0,38.895 33.585,0 0,98.55353 z"
           id="f"
           style="fill:#ffffff" />
      </g>
      <path
         id="rect9613"
         d="m 50.951593,1271.0995 0,199.9958 1039.978107,0 0,-199.9958 -1039.978107,0 z m 39.999157,39.9991 959.97975,0 0,119.9975 -959.97975,0 0,-119.9975 z"
         style="opacity:1;fill:#b3b3b3;fill-opacity:1;stroke:none;stroke-width:2;stroke-linecap:round;stroke-linejoin:round;stroke-miterlimit:4;stroke-dasharray:none;stroke-dashoffset:0;stroke-opacity:1" />
      <path
         style="opacity:1;fill:#b3b3b3;fill-opacity:1;stroke:none;stroke-width:2;stroke-linecap:round;stroke-linejoin:round;stroke-miterlimit:4;stroke-dasharray:none;stroke-dashoffset:0;stroke-opacity:1"
         d="m 50.951593,1551.0935 0,199.9958 1039.978107,0 0,-199.9958 -1039.978107,0 z m 39.999157,39.9992 959.97975,0 0,119.9974 -959.97975,0 0,-119.9974 z"
         id="path9618" />
      <rect
         y="1351.0978"
         x="130.94991"
         height="39.999146"
         width="719.98486"
         id="rect9622"
         style="opacity:1;fill:#b3b3b3;fill-opacity:1;stroke:none;stroke-width:2;stroke-linecap:round;stroke-linejoin:round;stroke-miterlimit:4;stroke-dasharray:none;stroke-dashoffset:0;stroke-opacity:1" />
      <circle
         r="39.999157"
         cy="1651.0914"
         cx="150.94948"
         id="path9626"
         style="opacity:1;fill:#b3b3b3;fill-opacity:1;stroke:none;stroke-width:2;stroke-linecap:round;stroke-linejoin:round;stroke-miterlimit:4;stroke-dasharray:none;stroke-dashoffset:0;stroke-opacity:1" />
      <circle
         style="opacity:1;fill:#b3b3b3;fill-opacity:1;stroke:none;stroke-width:2;stroke-linecap:round;stroke-linejoin:round;stroke-miterlimit:4;stroke-dasharray:none;stroke-dashoffset:0;stroke-opacity:1"
         id="circle9628"
         cx="250.94739"
         cy="1651.0914"
         r="39.999157" />
      <circle
         r="39.999157"
         cy="1651.0914"
         cx="350.94528"
         id="circle9630"
         style="opacity:1;fill:#b3b3b3;fill-opacity:1;stroke:none;stroke-width:2;stroke-linecap:round;stroke-linejoin:round;stroke-miterlimit:4;stroke-dasharray:none;stroke-dashoffset:0;stroke-opacity:1" />
      <circle
         style="opacity:1;fill:#b3b3b3;fill-opacity:1;stroke:none;stroke-width:2;stroke-linecap:round;stroke-linejoin:round;stroke-miterlimit:4;stroke-dasharray:none;stroke-dashoffset:0;stroke-opacity:1"
         id="circle9632"
         cx="450.94318"
         cy="1651.0914"
         r="39.999157" />
      <circle
         r="39.999157"
         cy="1651.0914"
         cx="550.94104"
         id="circle9634"
         style="opacity:1;fill:#b3b3b3;fill-opacity:1;stroke:none;stroke-width:2;stroke-linecap:round;stroke-linejoin:round;stroke-miterlimit:4;stroke-dasharray:none;stroke-dashoffset:0;stroke-opacity:1" />
      <circle
         style="opacity:1;fill:#b3b3b3;fill-opacity:1;stroke:none;stroke-width:2;stroke-linecap:round;stroke-linejoin:round;stroke-miterlimit:4;stroke-dasharray:none;stroke-dashoffset:0;stroke-opacity:1"
         id="circle9636"
         cx="650.93896"
         cy="1651.0914"
         r="39.999157" />
    </g>
  </g>
  <style
     id="style10573">.st0{fill:#7289DA;}</style>
</svg>
