<?xml version="1.0" encoding="UTF-8" standalone="no"?>
<svg
   xmlns:dc="http://purl.org/dc/elements/1.1/"
   xmlns:cc="http://creativecommons.org/ns#"
   xmlns:rdf="http://www.w3.org/1999/02/22-rdf-syntax-ns#"
   xmlns:svg="http://www.w3.org/2000/svg"
   xmlns="http://www.w3.org/2000/svg"
   width="512"
   height="512"
   viewBox="0 0 512.00001 512.00001"
   id="svg9705"
   version="1.1">
  <defs
     id="defs9707" />
  <metadata
     id="metadata9710">
    <rdf:RDF>
      <cc:Work
         rdf:about="">
        <dc:format>image/svg+xml</dc:format>
        <dc:type
           rdf:resource="http://purl.org/dc/dcmitype/StillImage" />
        <dc:title></dc:title>
      </cc:Work>
    </rdf:RDF>
  </metadata>
  <path
     id="path10577"
     d="m 96.853516,16 c -26.926285,0 -48.84961,21.921367 -48.84961,49.085938 l 0,322.162112 c 0,27.16457 21.923325,49.08789 48.84961,49.08789 l 270.214844,0 -12.62891,-44.08399 30.50196,28.35743 28.83203,26.6875 51.23047,45.27343 0,-427.484372 C 465.00391,37.921367 443.08253,16 416.15625,16 Z M 255.429,85.837322 c 26.10419,0 46.29757,6.477666 60.57879,19.435938 14.39828,12.95827 21.59679,31.3907 21.59679,55.2943 0,10.44211 -1.93046,19.93983 -5.79341,28.49481 -3.86296,8.55497 -10.06799,17.29811 -18.61331,26.23051 l -20.19182,20.19348 c -5.7359,5.913 -9.71643,12.01421 -11.94056,18.30462 -2.22412,6.16462 -3.4535,14.02767 -3.68762,23.58911 l -50.21841,0 c 0,-18.36804 1.93212,-32.83591 5.79508,-43.40382 3.86295,-10.69372 10.12614,-19.94047 18.78851,-27.74059 8.66238,-7.80013 15.21629,-14.90858 19.66454,-21.3248 4.5653,-6.54204 6.84797,-13.71323 6.84797,-21.51336 0,-18.99708 -7.60886,-28.49481 -22.82655,-28.49481 -7.02355,0 -12.70028,2.76743 -17.03147,8.30299 -4.33119,5.53558 -6.61385,13.02048 -6.84797,22.45612 l -59.34903,0 c 0.23412,-25.16169 7.60873,-44.72518 22.12407,-58.68992 14.51533,-14.090547 34.88315,-21.134578 61.1044,-21.134578 z m -2.63307,217.019058 c 9.36473,0 17.14969,3.02005 23.35383,9.05886 6.3212,5.91301 9.48103,13.5234 9.48103,22.83323 0,9.30983 -3.15983,16.98464 -9.48103,23.02345 -6.20414,5.91299 -13.9891,8.86865 -23.35383,8.86865 -9.36473,0 -17.20782,-2.95566 -23.52902,-8.86865 -6.20413,-6.03881 -9.30583,-13.71362 -9.30583,-23.02345 0,-9.30983 3.1017,-16.92022 9.30583,-22.83323 6.3212,-6.03881 14.16429,-9.05886 23.52902,-9.05886 z"
     style="fill:#7289da" />
  <style
     id="style10573">.st0{fill:#7289DA;}</style>
</svg>
