<?xml version="1.0" encoding="UTF-8" standalone="no"?>
<svg
   xmlns:dc="http://purl.org/dc/elements/1.1/"
   xmlns:cc="http://creativecommons.org/ns#"
   xmlns:rdf="http://www.w3.org/1999/02/22-rdf-syntax-ns#"
   xmlns:svg="http://www.w3.org/2000/svg"
   xmlns="http://www.w3.org/2000/svg"
   width="512"
   height="512"
   viewBox="0 0 512.00001 512.00001"
   id="svg9705"
   version="1.1">
  <defs
     id="defs9707" />
  <metadata
     id="metadata9710">
    <rdf:RDF>
      <cc:Work
         rdf:about="">
        <dc:format>image/svg+xml</dc:format>
        <dc:type
           rdf:resource="http://purl.org/dc/dcmitype/StillImage" />
        <dc:title></dc:title>
      </cc:Work>
    </rdf:RDF>
  </metadata>
  <path
     id="path10577"
     d="m 96.853516,16 c -26.926285,0 -48.84961,21.921367 -48.84961,49.085938 l 0,322.162112 c 0,27.16457 21.923325,49.08789 48.84961,49.08789 l 270.214844,0 -12.62891,-44.08399 30.50196,28.35743 28.83203,26.6875 51.23047,45.27343 0,-427.484372 C 465.00391,37.921367 443.08253,16 416.15625,16 Z M 255.51877,61.897147 c 30.55527,0 54.19186,7.582187 70.9082,22.75 16.85336,15.167817 25.2793,36.743193 25.2793,64.722653 0,12.22261 -2.25962,23.33981 -6.78125,33.35351 -4.52164,10.0137 -11.78471,20.24765 -21.78711,30.70313 l -23.63477,23.63672 c -6.71394,6.92123 -11.37319,14.06277 -13.97656,21.42578 -2.60336,7.21576 -4.04237,16.41955 -4.31641,27.61133 l -58.78125,0 c 0,-21.50001 2.26157,-38.43482 6.78321,-50.80469 4.52163,-12.51713 11.85276,-23.34056 21.99218,-32.4707 10.13942,-9.13015 17.81085,-17.45067 23.01758,-24.96094 5.34374,-7.65753 8.01563,-16.0515 8.01563,-25.18164 0,-22.23631 -8.90627,-33.35352 -26.71875,-33.35352 -8.22116,0 -14.86584,3.23931 -19.93555,9.71875 -5.06971,6.47946 -7.74159,15.24063 -8.01563,26.28516 l -69.46875,0 c 0.27404,-29.45207 8.90611,-52.35137 25.89649,-68.697262 16.99037,-16.493157 40.83114,-24.738281 71.52344,-24.738281 z m -3.08204,254.023433 c 10.96153,0 20.07392,3.53501 27.33594,10.60351 7.39904,6.92124 11.09766,15.8293 11.09766,26.72657 0,10.89726 -3.69862,19.88072 -11.09766,26.94922 -7.26202,6.92123 -16.37441,10.38086 -27.33594,10.38086 -10.96153,0 -20.14197,-3.45963 -27.54101,-10.38086 -7.26201,-7.0685 -10.89258,-16.05196 -10.89258,-26.94922 0,-10.89727 3.63057,-19.80533 10.89258,-26.72657 7.39904,-7.0685 16.57948,-10.60351 27.54101,-10.60351 z"
     style="fill:#7289da" />
  <style
     id="style10573">.st0{fill:#7289DA;}</style>
</svg>
