<?xml version="1.0" encoding="UTF-8" standalone="no"?>
<svg
   xmlns:dc="http://purl.org/dc/elements/1.1/"
   xmlns:cc="http://creativecommons.org/ns#"
   xmlns:rdf="http://www.w3.org/1999/02/22-rdf-syntax-ns#"
   xmlns:svg="http://www.w3.org/2000/svg"
   xmlns="http://www.w3.org/2000/svg"
   version="1.1"
   id="svg9705"
   viewBox="0 0 512.00001 512.00001"
   height="512"
   width="512">
  <defs
     id="defs9707" />
  <metadata
     id="metadata9710">
    <rdf:RDF>
      <cc:Work
         rdf:about="">
        <dc:format>image/svg+xml</dc:format>
        <dc:type
           rdf:resource="http://purl.org/dc/dcmitype/StillImage" />
        <dc:title></dc:title>
      </cc:Work>
    </rdf:RDF>
  </metadata>
  <g
     transform="translate(0,-540.36216)"
     id="layer1">
    <g
       id="layer1-3"
       transform="translate(45.046723,5.2475926)">
      <path
         id="Blue_1_"
         transform="translate(-45.046723,535.11457)"
         d="M 42.492188,16 C 27.85877,16 16,27.858767 16,42.492188 L 16,325.50586 C 16,340.13556 27.85691,352 42.492188,352 L 469.5,352 c 14.62783,0 26.49023,-11.86254 26.49023,-26.49414 l 0,-283.013672 C 495.99023,27.858767 484.1297,16 469.5,16 Z M 64,48 448,48 c 8.864,0 16,7.135999 16,16 l 0,240 c 0,8.864 -7.136,16 -16,16 l -384,0 c -8.864001,0 -16,-7.136 -16,-16 L 48,64 c 0,-8.864001 7.135999,-16 16,-16 z"
         style="fill:#3c5a99" />
      <rect
         ry="3.44922e-06"
         y="599.11456"
         x="18.953278"
         height="80"
         width="80"
         id="rect10446"
         style="opacity:1;fill:#c9452e;fill-opacity:1;stroke:none;stroke-width:16;stroke-linecap:round;stroke-linejoin:round;stroke-miterlimit:4;stroke-dasharray:none;stroke-dashoffset:0;stroke-opacity:1" />
      <rect
         ry="3.44922e-06"
         y="599.11456"
         x="114.95328"
         height="80"
         width="288"
         id="rect10448"
         style="opacity:1;fill:#00afcc;fill-opacity:1;stroke:none;stroke-width:16;stroke-linecap:round;stroke-linejoin:round;stroke-miterlimit:4;stroke-dasharray:none;stroke-dashoffset:0;stroke-opacity:1" />
      <rect
         ry="3.44922e-06"
         y="695.11456"
         x="18.953278"
         height="16"
         width="64"
         id="rect10450"
         style="opacity:1;fill:#b3b3b3;fill-opacity:1;stroke:none;stroke-width:16;stroke-linecap:round;stroke-linejoin:round;stroke-miterlimit:4;stroke-dasharray:none;stroke-dashoffset:0;stroke-opacity:1" />
      <rect
         ry="3.44922e-06"
         y="727.11456"
         x="18.953278"
         height="16"
         width="80"
         id="rect10452"
         style="opacity:1;fill:#b3b3b3;fill-opacity:1;stroke:none;stroke-width:16;stroke-linecap:round;stroke-linejoin:round;stroke-miterlimit:4;stroke-dasharray:none;stroke-dashoffset:0;stroke-opacity:1" />
      <rect
         ry="3.44922e-06"
         y="759.11456"
         x="18.953278"
         height="16"
         width="48"
         id="rect10454"
         style="opacity:1;fill:#b3b3b3;fill-opacity:1;stroke:none;stroke-width:16;stroke-linecap:round;stroke-linejoin:round;stroke-miterlimit:4;stroke-dasharray:none;stroke-dashoffset:0;stroke-opacity:1" />
      <rect
         ry="3.44922e-06"
         y="791.11456"
         x="18.953278"
         height="16"
         width="80"
         id="rect10456"
         style="opacity:1;fill:#b3b3b3;fill-opacity:1;stroke:none;stroke-width:16;stroke-linecap:round;stroke-linejoin:round;stroke-miterlimit:4;stroke-dasharray:none;stroke-dashoffset:0;stroke-opacity:1" />
      <rect
         ry="3.44922e-06"
         y="823.11456"
         x="18.953278"
         height="16"
         width="64"
         id="rect10458"
         style="opacity:1;fill:#b3b3b3;fill-opacity:1;stroke:none;stroke-width:16;stroke-linecap:round;stroke-linejoin:round;stroke-miterlimit:4;stroke-dasharray:none;stroke-dashoffset:0;stroke-opacity:1" />
      <rect
         ry="3.44922e-06"
         y="711.11456"
         x="146.95328"
         height="48.000004"
         width="48"
         id="rect10460"
         style="opacity:1;fill:#b3b3b3;fill-opacity:1;stroke:none;stroke-width:16;stroke-linecap:round;stroke-linejoin:round;stroke-miterlimit:4;stroke-dasharray:none;stroke-dashoffset:0;stroke-opacity:1" />
      <rect
         ry="3.44922e-06"
         y="711.11456"
         x="210.95328"
         height="15.999997"
         width="176"
         id="rect10462"
         style="opacity:1;fill:#b3b3b3;fill-opacity:1;stroke:none;stroke-width:16;stroke-linecap:round;stroke-linejoin:round;stroke-miterlimit:4;stroke-dasharray:none;stroke-dashoffset:0;stroke-opacity:1" />
      <rect
         ry="3.44922e-06"
         y="743.11456"
         x="210.95328"
         height="16"
         width="128"
         id="rect10464"
         style="opacity:1;fill:#b3b3b3;fill-opacity:1;stroke:none;stroke-width:16;stroke-linecap:round;stroke-linejoin:round;stroke-miterlimit:4;stroke-dasharray:none;stroke-dashoffset:0;stroke-opacity:1" />
      <rect
         ry="3.44922e-06"
         y="775.11456"
         x="146.95328"
         height="16"
         width="224"
         id="rect10466"
         style="opacity:1;fill:#b3b3b3;fill-opacity:1;stroke:none;stroke-width:16;stroke-linecap:round;stroke-linejoin:round;stroke-miterlimit:4;stroke-dasharray:none;stroke-dashoffset:0;stroke-opacity:1" />
      <rect
         ry="3.44922e-06"
         y="807.11456"
         x="146.95328"
         height="16"
         width="208"
         id="rect10468"
         style="opacity:1;fill:#b3b3b3;fill-opacity:1;stroke:none;stroke-width:16;stroke-linecap:round;stroke-linejoin:round;stroke-miterlimit:4;stroke-dasharray:none;stroke-dashoffset:0;stroke-opacity:1" />
      <rect
         ry="32"
         y="859.11456"
         x="-13.046722"
         height="172"
         width="64"
         id="rect4812"
         style="opacity:1;fill:#3c5a99;fill-opacity:1;stroke:none;stroke-width:16;stroke-linecap:round;stroke-linejoin:round;stroke-miterlimit:4;stroke-dasharray:none;stroke-dashoffset:0;stroke-opacity:1" />
      <rect
         style="opacity:1;fill:#3c5a99;fill-opacity:1;stroke:none;stroke-width:16;stroke-linecap:round;stroke-linejoin:round;stroke-miterlimit:4;stroke-dasharray:none;stroke-dashoffset:0;stroke-opacity:1"
         id="rect4814"
         width="52.093018"
         height="124.00001"
         x="82.953278"
         y="859.11456"
         ry="26.046513" />
      <rect
         ry="29.023256"
         y="859.11456"
         x="178.95328"
         height="92.000008"
         width="58.046509"
         id="rect4816"
         style="opacity:1;fill:#3c5a99;fill-opacity:1;stroke:none;stroke-width:16;stroke-linecap:round;stroke-linejoin:round;stroke-miterlimit:4;stroke-dasharray:none;stroke-dashoffset:0;stroke-opacity:1" />
      <rect
         style="opacity:1;fill:#3c5a99;fill-opacity:1;stroke:none;stroke-width:16;stroke-linecap:round;stroke-linejoin:round;stroke-miterlimit:4;stroke-dasharray:none;stroke-dashoffset:0;stroke-opacity:1"
         id="rect4818"
         width="64"
         height="124.00001"
         x="354.95328"
         y="859.11456"
         ry="32" />
      <rect
         ry="23.999998"
         y="859.11456"
         x="290.95328"
         height="156"
         width="48"
         id="rect4820"
         style="opacity:1;fill:#3c5a99;fill-opacity:1;stroke:none;stroke-width:16;stroke-linecap:round;stroke-linejoin:round;stroke-miterlimit:4;stroke-dasharray:none;stroke-dashoffset:0;stroke-opacity:1" />
      <path
         id="path4822"
         d="m -13.046723,871.11457 0,28 48,4 c 10.532034,26.33009 64,0 64,0 l 16.000003,0 c 31.0695,-7.89903 66.57166,9.47883 80,0 0,0 36,23.99999 32,8 33.96581,-13.95495 71.31107,18.26873 80,8 l 16,0 c 18.43106,12.90174 48,-16 48,-16 l 32,16 0,-48 z"
         style="fill:#3c5a99;fill-opacity:1;fill-rule:evenodd;stroke:none;stroke-width:1px;stroke-linecap:butt;stroke-linejoin:miter;stroke-opacity:1" />
    </g>
  </g>
  <style
     id="style10573">.st0{fill:#7289DA;}</style>
</svg>
