<?xml version="1.0" encoding="UTF-8" standalone="no"?>
<svg
   xmlns:dc="http://purl.org/dc/elements/1.1/"
   xmlns:cc="http://creativecommons.org/ns#"
   xmlns:rdf="http://www.w3.org/1999/02/22-rdf-syntax-ns#"
   xmlns:svg="http://www.w3.org/2000/svg"
   xmlns="http://www.w3.org/2000/svg"
   version="1.1"
   id="svg9705"
   viewBox="0 0 512.00001 512.00001"
   height="512"
   width="512">
  <defs
     id="defs9707" />
  <metadata
     id="metadata9710">
    <rdf:RDF>
      <cc:Work
         rdf:about="">
        <dc:format>image/svg+xml</dc:format>
        <dc:type
           rdf:resource="http://purl.org/dc/dcmitype/StillImage" />
        <dc:title></dc:title>
      </cc:Work>
    </rdf:RDF>
  </metadata>
  <g
     transform="translate(0,-540.36216)"
     id="layer1">
    <path
       id="path8958"
       transform="translate(0,540.36216)"
       d="M 417.86523 154.13086 L 414.2832 159.23828 L 423.35156 157.89258 L 417.86523 154.13086 z M 426.25781 165.54883 L 407.95508 168.26562 L 397.33203 183.41602 L 391.5 179.38477 L 385.41797 200.54297 L 379.33789 221.69922 L 396.89453 208.47461 L 414.45117 195.25 L 408.375 191.05078 L 426.25781 165.54883 z "
       style="opacity:1;fill:#00afcc;fill-opacity:1;stroke:none;stroke-width:25;stroke-linecap:round;stroke-linejoin:round;stroke-miterlimit:4;stroke-dasharray:none;stroke-dashoffset:0;stroke-opacity:1" />
    <path
       id="path8345"
       d="m 235.0533,932.13057 -50.05215,-7.78527 c 2.24062,0.66901 2.88011,1.81348 3.07439,4.12103 0.78114,9.24417 1.77491,18.47503 2.87777,27.68737 0.9805,8.19383 2.00954,16.39245 3.39812,24.5236 0.95383,5.59023 2.51036,11.08251 3.88866,16.59531 1.03502,4.13809 2.04654,8.29479 3.36832,12.34519 2.79461,8.5711 8.22651,14.5282 17.30832,16.6371 0.35254,0.081 0.64939,0.3964 0.97316,0.6037 l 8.55387,0 c 3.84402,-1.4689 7.73035,-2.7465 10.90732,-5.6264 8.14852,-7.3878 9.81195,-15.2192 6.91143,-25.01609 -3.61279,-12.19619 -6.09441,-24.56117 -8.31556,-37.00194 -1.47183,-8.24215 -2.09004,-16.63505 -3.09423,-24.96052 -0.1289,-1.0678 -0.0675,-1.67968 0.20058,-2.12308 z"
       style="fill:#c9452e;fill-opacity:1;fill-rule:nonzero;stroke:none" />
    <path
       id="path8350"
       d="m 184.62778,874.66057 50.17528,9.77131 0.0318,-0.0794 c -1.78901,-0.36175 -1.8702,-1.46378 -1.69013,-5.15378 0.29606,-6.06416 0.41102,-12.14026 0.85399,-18.19409 0.54682,-7.46096 1.32695,-14.90728 2.05159,-22.35485 0.54884,-5.65094 1.04933,-11.31161 1.7914,-16.93893 0.70818,-5.3734 1.71803,-10.70609 2.56597,-16.06308 1.62339,-10.26232 3.98067,-20.3546 6.57974,-30.38839 l -45.00165,-12.07312 c -0.24441,1.02892 -0.58129,2.03038 -0.80831,3.06446 -1.16451,5.3056 -2.70518,10.53436 -3.7556,15.86051 -1.34645,6.82473 -2.46295,13.69817 -3.51133,20.57733 -1.30122,8.53707 -2.48307,17.09488 -3.61061,25.65766 -0.45532,3.45243 -0.61874,6.94383 -0.93939,10.41477 -0.43789,4.74956 -1.02273,9.4881 -1.31874,14.24586 -0.40907,6.57394 -0.60592,13.16013 -0.89372,19.74122 -0.007,0.12956 -10e-4,0.26078 -0.0179,0.38926 -0.24669,1.94053 -0.71297,2.34557 -2.50241,1.5233 z"
       style="fill:#c9452e;fill-opacity:1;fill-rule:nonzero;stroke:none" />
    <path
       id="path8355"
       d="m 309.88328,685.44271 -14.52192,-45.0791 c -0.91697,0.17228 -1.83663,0.26131 -2.75267,0.46275 -15.41724,3.38972 -28.51749,11.3715 -40.07427,21.88813 -6.81339,6.1998 -12.55627,13.40553 -17.70158,21.03811 -10.33057,15.32577 -18.00202,31.96413 -23.9397,49.42059 -3.36206,9.88636 -6.49167,19.84357 -8.90739,30.01301 l 45.00165,12.07312 c 1.41776,-5.47324 2.81785,-10.95107 4.41696,-16.37885 1.71435,-5.8185 3.884,-11.52068 6.13289,-17.16136 2.57878,-6.46908 5.234,-12.92894 8.28972,-19.18116 5.09386,-10.41899 11.61943,-19.94256 20.50387,-27.48678 6.64947,-5.64629 14.11958,-8.9554 21.73917,-9.61243 0.60263,-0.0519 1.20911,0.0226 1.81327,0.004 z"
       style="fill:#ea816e;fill-opacity:1;fill-rule:nonzero;stroke:none" />
    <path
       id="path8365"
       d="m 278.85064,875.62035 27.70326,38.57087 c 7.09852,-3.43435 13.97828,-7.31231 20.37079,-11.97185 5.00448,-3.64869 9.89086,-7.48632 14.60135,-11.50712 5.09078,-4.34671 10.18816,-8.74865 14.77019,-13.60833 3.59224,-3.81116 7.02621,-7.8106 10.14665,-12.10689 8.70976,-11.99054 16.38781,-24.54248 21.98943,-38.26898 2.73296,-6.69726 5.0345,-13.57744 7.32451,-20.44427 1.30431,-3.91289 2.47789,-7.91519 3.20149,-11.96787 1.22311,-6.85043 2.20411,-13.75454 2.97906,-20.6707 0.0311,-0.27615 0.0436,-0.55567 0.0736,-0.83215 l -47.95291,7.11995 c -0.70426,3.97933 -1.53901,7.94113 -2.62157,11.86856 -3.02179,10.96473 -7.04053,21.63262 -13.31638,31.26225 -3.38255,5.18941 -6.67586,10.46319 -10.40685,15.39775 -5.5492,7.34172 -11.97429,13.88412 -19.205,19.64192 -7.83401,6.23888 -16.24635,11.54294 -25.32199,15.7056 -1.42921,0.6554 -2.8907,1.20638 -4.33552,1.81126 z"
       style="fill:#c9452e;fill-opacity:1;fill-rule:nonzero;stroke:none" />
    <path
       id="path8370"
       d="m 147.6378,849.7755 -24.325,40.65421 c 0.97634,0.86976 1.90343,1.79788 2.89764,2.64542 7.65516,6.52461 15.9381,12.32027 24.91088,16.95877 6.6644,3.44533 13.43498,6.71404 20.31519,9.69981 4.36821,1.89635 8.98981,3.24455 13.56464,4.61159 l 50.05215,7.78527 c 0.31113,-0.51474 0.92,-0.77893 2.12705,-0.88775 8.86698,-0.79964 17.73412,-1.35915 26.53944,-2.97708 13.45722,-2.47379 26.38587,-6.52677 38.84095,-12.02347 1.5231,-0.67237 2.95868,-1.51949 4.45668,-2.24423 l -27.70326,-38.57085 c -10.26938,4.2993 -20.9173,7.35842 -32.11821,8.391 -2.69497,0.24874 -5.37461,0.64725 -8.06134,0.97714 -0.009,-0.0731 -0.0181,-0.1482 -0.0298,-0.22244 -0.25902,0 -0.51851,-10e-4 -0.77854,0 -1.66094,0.005 -2.69724,-0.0599 -3.49144,-0.22045 l -0.0318,0.0794 -50.17528,-9.77131 c -3.63743,-1.67022 -7.20179,-3.50532 -10.76831,-5.32457 -9.53817,-4.86774 -17.85437,-11.45538 -25.51265,-18.8197 -0.24574,-0.23625 -0.46537,-0.50196 -0.70902,-0.7408 z"
       style="fill:#ea816e;fill-opacity:1;fill-rule:nonzero;stroke:none" />
    <path
       id="path8375"
       d="m 75.48899,704.73311 c -0.620856,1.65772 -1.277083,3.29785 -1.837075,4.98496 -2.945729,8.8752 -4.634824,17.99973 -6.704871,27.05383 -0.686541,2.99916 -0.707562,6.14808 -1.102255,9.21918 -0.109951,0.86336 -0.468304,1.69426 -0.712979,2.54015 l 0,28.76578 c 0.498469,2.76481 1.14272,5.51132 1.471653,8.29568 1.906599,16.16347 6.184188,31.63494 12.998611,46.43756 4.717678,10.24426 10.170611,20.05841 16.710543,29.22853 3.358936,4.7105 6.894553,9.36692 10.883483,13.53883 5.168,5.40777 10.53125,10.65639 16.1167,15.6321 l 24.325,-40.65421 c -4.0811,-4.00068 -7.89243,-8.33086 -11.38993,-12.84967 -5.47214,-7.07138 -9.94229,-14.79507 -13.69174,-22.94668 -2.98278,-6.48554 -5.695,-13.0515 -7.13187,-20.05503 -1.32075,-6.43931 -3.11003,-12.8864 -3.46365,-19.39764 -0.70918,-13.03682 -0.3003,-26.04248 2.73279,-38.93034 1.44659,-6.14761 3.48279,-12.04134 5.8171,-17.80879 L 75.48899,704.73311 Z"
       style="fill:#c9452e;fill-opacity:1;fill-rule:nonzero;stroke:none" />
    <path
       id="path8325"
       d="m 75.48899,704.73311 45.02151,13.05424 c 1.67613,-4.14127 3.44445,-8.24285 5.54502,-12.20819 5.97062,-11.26798 14.00779,-21.04352 23.18105,-29.91768 8.04887,-7.78474 17.07915,-14.15499 26.86912,-19.50886 0.79444,-0.43375 1.61403,-0.83677 2.45473,-1.16978 0.31043,-0.12213 0.83586,-0.13332 1.04466,0.0517 0.19845,0.17371 0.23615,0.7136 0.1291,1.01883 -0.59615,1.71031 -1.35872,3.36734 -1.8788,5.09817 -1.29405,4.31272 -1.61435,8.95304 -0.24427,13.03039 3.21808,9.57823 10.03586,15.63856 20.34696,16.68075 7.11248,0.71847 13.51401,-1.42329 18.52974,-6.81211 2.8964,-3.11125 5.72122,-6.28856 8.58167,-9.43369 6.9758,-7.67268 13.38271,-15.81315 18.37484,-24.89698 4.38672,-7.981 7.3518,-16.4287 6.13487,-25.89596 -1.34235,-10.43132 -6.56462,-18.10633 -15.75127,-22.98642 -3.15177,-1.67508 -6.68894,-2.62719 -10.04936,-3.90852 l -0.002,0 -15.55068,0 c -5.26138,1.2416 -10.51739,2.5153 -15.78703,3.71787 -17.33926,3.95607 -33.4069,10.90246 -48.43154,20.37278 -14.75328,9.2997 -27.84966,20.46388 -39.24611,33.6991 -5.845157,6.78974 -11.233975,13.93772 -15.663892,21.63193 -5.236795,9.09535 -9.908207,18.50306 -13.608335,28.38249 z"
       style="fill:#ea816e;fill-opacity:1;fill-rule:nonzero;stroke:none" />
    <path
       id="path8951"
       transform="translate(0,540.36216)"
       d="M 351.63867 58.275391 L 354.31836 66.59375 L 357.3418 62.183594 L 351.63867 58.275391 z M 343.39648 58.78125 L 331.03711 76.808594 L 325.20508 72.775391 L 319.125 93.933594 L 313.04492 115.08984 L 330.60156 101.86523 L 348.15625 88.640625 L 342.08203 84.441406 L 348.91797 74.470703 A 4.0004 4.0004 0 0 1 347.93555 72.869141 L 343.39648 58.78125 z "
       style="opacity:1;fill:#00afcc;fill-opacity:1;stroke:none;stroke-width:25;stroke-linecap:round;stroke-linejoin:round;stroke-miterlimit:4;stroke-dasharray:none;stroke-dashoffset:0;stroke-opacity:1" />
    <path
       id="path8360"
       d="m 396.38169,706.30206 47.95292,-7.11995 c 0.52404,-4.85233 0.88733,-9.75035 0.80633,-14.61923 -0.0894,-5.40117 -0.65235,-10.8171 -1.35845,-16.18025 -0.89322,-6.77537 -1.81294,-13.57764 -3.31867,-20.23377 -1.88092,-8.31918 -4.26486,-16.53896 -7.99581,-24.27535 -2.46678,-5.11749 -4.70729,-10.38003 -7.60055,-15.24881 -2.7597,-4.6447 -6.19823,-8.89237 -9.40191,-13.26673 -5.58927,-7.63155 -12.729,-13.64775 -20.72233,-18.49598 -7.66341,-4.64883 -16.09889,-7.53437 -24.89699,-9.54887 -10.92941,-2.50239 -21.80746,-2.41966 -32.62465,-0.38728 l 14.52192,45.0791 c 7.03475,-0.21708 14.14764,1.72542 20.82163,6.29575 3.83481,2.62606 6.99855,6.54773 9.73356,10.39692 6.2841,8.84126 10.2973,18.80153 12.80002,29.33974 1.55303,6.54101 2.38664,13.17179 2.8738,19.90606 0.69491,9.60035 0.0573,19.04659 -1.59082,28.35865 z"
       style="fill:#00afcc;fill-opacity:1;fill-rule:nonzero;stroke:none;stroke-width:8;stroke-linejoin:round;stroke-miterlimit:4;stroke-dasharray:none;stroke-opacity:1" />
  </g>
  <style
     id="style10573">.st0{fill:#7289DA;}</style>
</svg>
