<?xml version="1.0" encoding="UTF-8" standalone="no"?>
<svg
   xmlns:dc="http://purl.org/dc/elements/1.1/"
   xmlns:cc="http://creativecommons.org/ns#"
   xmlns:rdf="http://www.w3.org/1999/02/22-rdf-syntax-ns#"
   xmlns:svg="http://www.w3.org/2000/svg"
   xmlns="http://www.w3.org/2000/svg"
   width="512"
   height="512"
   viewBox="0 0 512.00001 512.00001"
   id="svg9705"
   version="1.1">
  <defs
     id="defs9707" />
  <metadata
     id="metadata9710">
    <rdf:RDF>
      <cc:Work
         rdf:about="">
        <dc:format>image/svg+xml</dc:format>
        <dc:type
           rdf:resource="http://purl.org/dc/dcmitype/StillImage" />
        <dc:title></dc:title>
      </cc:Work>
    </rdf:RDF>
  </metadata>
  <style
     id="style10573">.st0{fill:#7289DA;}</style>
  <rect
     rx="0"
     ry="0"
     y="352.8421"
     x="31.999992"
     height="47.157902"
     width="448"
     id="rect5386"
     style="opacity:1;fill:#dae0e1;fill-opacity:1;stroke:none;stroke-width:8;stroke-linecap:round;stroke-linejoin:round;stroke-miterlimit:4;stroke-dasharray:none;stroke-dashoffset:0;stroke-opacity:1" />
  <rect
     style="opacity:1;fill:#dae0e1;fill-opacity:1;stroke:none;stroke-width:8;stroke-linecap:round;stroke-linejoin:round;stroke-miterlimit:4;stroke-dasharray:none;stroke-dashoffset:0;stroke-opacity:1"
     id="rect5384"
     width="448"
     height="47.157902"
     x="31.999992"
     y="117.05262"
     ry="0"
     rx="0" />
  <rect
     rx="0"
     ry="0"
     y="164.21051"
     x="31.999992"
     height="188.63158"
     width="448"
     id="rect5376"
     style="opacity:1;fill:#00343d;fill-opacity:1;stroke:none;stroke-width:8;stroke-linecap:round;stroke-linejoin:round;stroke-miterlimit:4;stroke-dasharray:none;stroke-dashoffset:0;stroke-opacity:1" />
  <circle
     r="106.10526"
     cy="258.52631"
     cx="314.94736"
     id="path5378"
     style="opacity:1;fill:#d6d6d6;fill-opacity:1;stroke:none;stroke-width:8;stroke-linecap:round;stroke-linejoin:round;stroke-miterlimit:4;stroke-dasharray:none;stroke-dashoffset:0;stroke-opacity:1" />
  <ellipse
     ry="86.869812"
     rx="86.869804"
     style="opacity:1;fill:#d6d6d6;fill-opacity:1;stroke:#00343d;stroke-width:3.10249305;stroke-linecap:round;stroke-linejoin:round;stroke-miterlimit:4;stroke-dasharray:none;stroke-dashoffset:0;stroke-opacity:1"
     id="circle5380"
     cx="314.94736"
     cy="258.52631" />
  <path
     id="path4174"
     d="M 357.2832 315.10547 A 104.75893 104.75893 0 0 0 357.16211 311.67383 A 104.75893 104.75893 0 0 0 355.90039 301.2793 A 104.75893 104.75893 0 0 0 353.60547 291.06055 A 104.75893 104.75893 0 0 0 350.30469 281.12305 A 104.75893 104.75893 0 0 0 346.02734 271.56641 A 104.75893 104.75893 0 0 0 340.81641 262.48242 A 104.75893 104.75893 0 0 0 334.72461 253.96484 A 104.75893 104.75893 0 0 0 327.81445 246.09766 A 104.75893 104.75893 0 0 0 320.15234 238.96094 A 104.75893 104.75893 0 0 0 311.81641 232.62305 A 104.75893 104.75893 0 0 0 302.88867 227.15039 A 104.75893 104.75893 0 0 0 293.45898 222.5957 A 104.75893 104.75893 0 0 0 283.62305 219.00391 A 104.75893 104.75893 0 0 0 273.47656 216.41406 A 104.75893 104.75893 0 0 0 263.12305 214.84766 A 104.75893 104.75893 0 0 0 259.54492 214.66797 A 70.736839 70.736847 0 0 0 244.21094 258.52539 A 70.736839 70.736847 0 0 0 314.94727 329.26367 A 70.736839 70.736847 0 0 0 357.2832 315.10547 z "
     style="opacity:1;fill:#370a8b;fill-opacity:1;stroke:none;stroke-width:8;stroke-linecap:round;stroke-linejoin:round;stroke-miterlimit:4;stroke-dasharray:none;stroke-dashoffset:0;stroke-opacity:1" />
  <path
     id="ellipse5382"
     d="M 314.94727 187.78906 A 70.736839 70.736847 0 0 0 259.54492 214.66797 A 104.75893 104.75893 0 0 1 263.12305 214.84766 A 104.75893 104.75893 0 0 1 273.47656 216.41406 A 104.75893 104.75893 0 0 1 283.62305 219.00391 A 104.75893 104.75893 0 0 1 293.45898 222.5957 A 104.75893 104.75893 0 0 1 302.88867 227.15039 A 104.75893 104.75893 0 0 1 311.81641 232.62305 A 104.75893 104.75893 0 0 1 320.15234 238.96094 A 104.75893 104.75893 0 0 1 327.81445 246.09766 A 104.75893 104.75893 0 0 1 334.72461 253.96484 A 104.75893 104.75893 0 0 1 340.81641 262.48242 A 104.75893 104.75893 0 0 1 346.02734 271.56641 A 104.75893 104.75893 0 0 1 350.30469 281.12305 A 104.75893 104.75893 0 0 1 353.60547 291.06055 A 104.75893 104.75893 0 0 1 355.90039 301.2793 A 104.75893 104.75893 0 0 1 357.16211 311.67383 A 104.75893 104.75893 0 0 1 357.2832 315.10547 A 70.736839 70.736847 0 0 0 385.68359 258.52539 A 70.736839 70.736847 0 0 0 314.94727 187.78906 z "
     style="opacity:1;fill:#8b0a85;fill-opacity:1;stroke:none;stroke-width:8;stroke-linecap:round;stroke-linejoin:round;stroke-miterlimit:4;stroke-dasharray:none;stroke-dashoffset:0;stroke-opacity:1" />
  <rect
     y="117.05262"
     x="31.999992"
     height="282.94736"
     width="35.36842"
     id="rect5388"
     style="opacity:1;fill:#000000;fill-opacity:0.18348622;stroke:none;stroke-width:2;stroke-linecap:round;stroke-linejoin:round;stroke-miterlimit:4;stroke-dasharray:none;stroke-dashoffset:0;stroke-opacity:1" />
  <rect
     style="opacity:1;fill:#000000;fill-opacity:0.18348622;stroke:none;stroke-width:2;stroke-linecap:round;stroke-linejoin:round;stroke-miterlimit:4;stroke-dasharray:none;stroke-dashoffset:0;stroke-opacity:1"
     id="rect5390"
     width="35.36842"
     height="282.94736"
     x="444.63156"
     y="117.05262" />
  <rect
     y="93.473671"
     x="85.052628"
     height="23.578951"
     width="82.526314"
     id="rect5392"
     style="opacity:1;fill:#6f6f6f;fill-opacity:1;stroke:none;stroke-width:2;stroke-linecap:round;stroke-linejoin:round;stroke-miterlimit:4;stroke-dasharray:none;stroke-dashoffset:0;stroke-opacity:1" />
  <path
     id="rect5394"
     d="m 279.37912,81.684197 70.93666,0 23.57895,35.368423 -118.09456,0 z"
     style="opacity:1;fill:#b3b8b8;fill-opacity:1;stroke:none;stroke-width:2;stroke-linecap:round;stroke-linejoin:round;stroke-miterlimit:4;stroke-dasharray:none;stroke-dashoffset:0;stroke-opacity:1" />
  <rect
     ry="5.8947387"
     y="87.578934"
     x="297.26315"
     height="23.578947"
     width="47.15789"
     id="rect5397"
     style="opacity:1;fill:#6f6f6f;fill-opacity:1;stroke:none;stroke-width:2;stroke-linecap:round;stroke-linejoin:round;stroke-miterlimit:4;stroke-dasharray:none;stroke-dashoffset:0;stroke-opacity:1" />
  <rect
     ry="5.8947368"
     y="99.368408"
     x="279.57895"
     height="11.789474"
     width="11.789474"
     id="rect5399"
     style="opacity:1;fill:#bb351a;fill-opacity:1;stroke:none;stroke-width:2;stroke-linecap:round;stroke-linejoin:round;stroke-miterlimit:4;stroke-dasharray:none;stroke-dashoffset:0;stroke-opacity:1" />
  <rect
     style="opacity:1;fill:#ffffff;fill-opacity:0.18431373;stroke:none;stroke-width:2;stroke-linecap:round;stroke-linejoin:round;stroke-miterlimit:4;stroke-dasharray:none;stroke-dashoffset:0;stroke-opacity:1"
     id="rect5401"
     width="11.789475"
     height="23.578953"
     x="85.052628"
     y="93.473671" />
  <rect
     style="opacity:1;fill:#000000;fill-opacity:0.18431373;stroke:none;stroke-width:2;stroke-linecap:round;stroke-linejoin:round;stroke-miterlimit:4;stroke-dasharray:none;stroke-dashoffset:0;stroke-opacity:1"
     id="rect5403"
     width="12.020011"
     height="23.578953"
     x="155.55893"
     y="93.473671" />
  <path
     id="path4177"
     d="M 349.9375 280.30273 A 41.263161 41.263165 0 0 0 356.21094 258.52539 A 41.263161 41.263165 0 0 0 314.94727 217.26367 A 41.263161 41.263165 0 0 0 294.16602 222.9375 A 104.75893 104.75893 0 0 1 302.88867 227.15039 A 104.75893 104.75893 0 0 1 311.81641 232.62305 A 104.75893 104.75893 0 0 1 320.15234 238.96094 A 104.75893 104.75893 0 0 1 327.81445 246.09766 A 104.75893 104.75893 0 0 1 334.72461 253.96484 A 104.75893 104.75893 0 0 1 340.81641 262.48242 A 104.75893 104.75893 0 0 1 346.02734 271.56641 A 104.75893 104.75893 0 0 1 349.9375 280.30273 z "
     style="opacity:1;fill:#5e0d5a;fill-opacity:1;stroke:none;stroke-width:8;stroke-linecap:round;stroke-linejoin:round;stroke-miterlimit:4;stroke-dasharray:none;stroke-dashoffset:0;stroke-opacity:1" />
  <path
     id="ellipse5405"
     d="M 349.9375 280.30273 A 104.75893 104.75893 0 0 0 346.02734 271.56641 A 104.75893 104.75893 0 0 0 340.81641 262.48242 A 104.75893 104.75893 0 0 0 334.72461 253.96484 A 104.75893 104.75893 0 0 0 327.81445 246.09766 A 104.75893 104.75893 0 0 0 320.15234 238.96094 A 104.75893 104.75893 0 0 0 311.81641 232.62305 A 104.75893 104.75893 0 0 0 302.88867 227.15039 A 104.75893 104.75893 0 0 0 294.16602 222.9375 A 41.263161 41.263165 0 0 0 273.68359 258.52539 A 41.263161 41.263165 0 0 0 314.94727 299.78906 A 41.263161 41.263165 0 0 0 349.9375 280.30273 z "
     style="opacity:1;fill:#1c0d5e;fill-opacity:1;stroke:none;stroke-width:8;stroke-linecap:round;stroke-linejoin:round;stroke-miterlimit:4;stroke-dasharray:none;stroke-dashoffset:0;stroke-opacity:1" />
  <circle
     r="25.677065"
     cy="231.15074"
     cx="287.57181"
     id="path5407"
     style="opacity:1;fill:#ffffff;fill-opacity:0.4;stroke:none;stroke-width:2;stroke-linecap:round;stroke-linejoin:round;stroke-miterlimit:4;stroke-dasharray:none;stroke-dashoffset:0;stroke-opacity:1" />
  <circle
     style="opacity:1;fill:#ffffff;fill-opacity:0.4;stroke:none;stroke-width:2;stroke-linecap:round;stroke-linejoin:round;stroke-miterlimit:4;stroke-dasharray:none;stroke-dashoffset:0;stroke-opacity:1"
     id="circle5409"
     cx="314.94736"
     cy="258.52631"
     r="17.684214" />
</svg>
