<?xml version="1.0" encoding="UTF-8" standalone="no"?>
<!-- Created with Inkscape (http://www.inkscape.org/) -->

<svg
   xmlns:dc="http://purl.org/dc/elements/1.1/"
   xmlns:cc="http://creativecommons.org/ns#"
   xmlns:rdf="http://www.w3.org/1999/02/22-rdf-syntax-ns#"
   xmlns:svg="http://www.w3.org/2000/svg"
   xmlns="http://www.w3.org/2000/svg"
   xmlns:sodipodi="http://sodipodi.sourceforge.net/DTD/sodipodi-0.dtd"
   xmlns:inkscape="http://www.inkscape.org/namespaces/inkscape"
   width="512"
   height="512"
   viewBox="0 0 512.00001 512.00001"
   id="svg9705"
   version="1.1"
   inkscape:version="0.91 r13725"
   sodipodi:docname="profil-photo.svg">
  <defs
     id="defs9707" />
  <sodipodi:namedview
     id="base"
     pagecolor="#ffffff"
     bordercolor="#666666"
     borderopacity="1.0"
     inkscape:pageopacity="0.0"
     inkscape:pageshadow="2"
     inkscape:zoom="1.4142136"
     inkscape:cx="217.0496"
     inkscape:cy="305.22845"
     inkscape:document-units="px"
     inkscape:current-layer="layer1"
     showgrid="true"
     inkscape:showpageshadow="false"
     borderlayer="true"
     units="px"
     showguides="true"
     inkscape:guide-bbox="true"
     inkscape:window-width="1920"
     inkscape:window-height="1016"
     inkscape:window-x="0"
     inkscape:window-y="27"
     inkscape:window-maximized="1"
     inkscape:snap-bbox="true"
     inkscape:object-paths="true"
     inkscape:snap-global="true"
     inkscape:object-nodes="true"
     inkscape:bbox-paths="true"
     inkscape:bbox-nodes="true"
     inkscape:snap-bbox-edge-midpoints="true"
     inkscape:snap-bbox-midpoints="true"
     inkscape:snap-intersection-paths="true"
     inkscape:snap-midpoints="true"
     inkscape:snap-smooth-nodes="true"
     inkscape:snap-object-midpoints="true"
     inkscape:snap-center="true"
     inkscape:snap-text-baseline="true">
    <inkscape:grid
       type="xygrid"
       id="grid10291"
       spacingx="4.0000001"
       spacingy="4.0000001"
       empspacing="4" />
  </sodipodi:namedview>
  <metadata
     id="metadata9710">
    <rdf:RDF>
      <cc:Work
         rdf:about="">
        <dc:format>image/svg+xml</dc:format>
        <dc:type
           rdf:resource="http://purl.org/dc/dcmitype/StillImage" />
        <dc:title></dc:title>
      </cc:Work>
    </rdf:RDF>
  </metadata>
  <g
     inkscape:label="Layer 1"
     inkscape:groupmode="layer"
     id="layer1"
     transform="translate(0,-540.36216)">
    <path
       inkscape:connector-curvature="0"
       style="opacity:1;fill:#3a589b;fill-opacity:1;stroke:none;stroke-width:25;stroke-linecap:round;stroke-linejoin:round;stroke-miterlimit:4;stroke-dasharray:none;stroke-dashoffset:0;stroke-opacity:1"
       d="M 40.03554,636.36216 C 26.719065,636.36216 16,647.08387 16,660.40034 l 0,159.92364 c 0,13.3166 10.719065,24.03817 24.03554,24.03818 l 33.674075,2e-5 c 0.07797,-0.0914 0.141921,-0.17768 0.226865,-0.27216 3.425982,-3.81045 5.5071,-4.38994 8.252814,-2.29405 1.433114,1.09394 1.591805,1.14205 2.507895,0.76306 0.538014,-0.22256 1.953715,-0.76753 3.146275,-1.2119 2.280442,-0.84956 2.216574,-0.76579 2.648918,-3.43138 0.141092,-0.86972 0.55675,-1.6015 1.321961,-2.32324 1.110111,-1.0465 1.13906,-1.05305 4.332209,-1.05305 4.858768,0 6.176918,0.90954 6.639198,4.58653 0.19286,1.53391 0.23201,1.58217 1.79992,2.17585 0.88134,0.33371 2.20405,0.92605 2.94214,1.31707 l 1.34303,0.7113 1.46298,-1.0499 c 2.85355,-2.04918 4.6777,-1.65053 7.82513,1.71407 0.12177,0.13023 0.21725,0.24487 0.32724,0.3678 l 8.13129,0 0.17337,-0.25757 -1.24748,-2.1337 c -0.68566,-1.1734 -1.39654,-2.58627 -1.57961,-3.14138 l -0.33371,-1.01099 -2.95183,-0.13122 c -4.84575,-0.21799 -5.49882,-0.99946 -6.03815,-7.22566 -0.52905,-6.10732 0.0623,-7.01189 5.32047,-8.16373 1.79718,-0.39359 1.93081,-0.4855 2.19841,-1.53913 0.15677,-0.6169 0.64584,-2.25415 1.08713,-3.63708 l 0.80353,-2.51445 -1.26688,-1.33176 c -2.16299,-2.27481 -2.65373,-3.09335 -2.65373,-4.43423 0,-1.65244 0.46187,-2.46137 3.26615,-5.71083 3.64952,-4.22901 5.0819,-4.56197 8.84896,-2.06079 l 1.80649,1.19887 1.29284,-0.74846 c 0.7108,-0.41185 2.30119,-1.24474 3.53506,-1.85019 1.23405,-0.60545 2.31612,-1.16843 2.40421,-1.25071 0.088,-0.0821 0.24138,-1.36842 0.34026,-2.85952 0.28693,-4.31869 1.22525,-4.91858 8.47313,-5.41113 1.1374,-0.0771 1.88096,-0.12161 2.42213,-0.10859 0.90174,0.0216 1.24018,0.2015 1.90361,0.6529 1.34013,0.9117 1.79586,1.78342 2.33776,4.46019 l 0.40828,2.01378 2.07374,0.53626 c 1.13973,0.29514 2.84177,0.84717 3.783,1.22641 l 1.71083,0.68857 1.87765,-1.62656 c 3.40691,-2.95151 4.65769,-2.78313 9.3869,1.26208 4.36771,3.73588 4.62659,4.79606 2.11911,8.6756 l -1.32362,2.0462 0.68698,1.14546 c 0.37749,0.62942 1.17697,2.18903 1.77562,3.46704 l 1.08872,2.32325 2.29247,0 c 4.59565,0 5.59337,1.29484 5.94251,7.70518 0.30218,5.54692 -0.24827,6.5005 -4.24146,7.35207 -0.8553,0.1824 -1.86496,0.40197 -2.24379,0.48766 -0.52672,0.1192 -0.7808,0.55186 -1.08224,1.8404 -0.21674,0.92662 -0.73534,2.5356 -1.15192,3.57563 l -0.75501,1.89066 1.75298,1.99594 c 0.90854,1.03479 1.52436,1.85558 1.89067,2.60353 l 17.21079,-2e-5 C 213.27829,844.36214 224,833.64058 224,820.32398 l 0,-159.92364 c 0,-13.31647 -10.72171,-24.03818 -24.03819,-24.03818 z m 39.004243,107.19526 c 0.81498,-0.008 1.735886,0.008 2.778481,0.0224 5.391295,0.0912 5.973441,0.15552 6.799617,0.76786 1.299733,0.96337 1.710258,2.01609 2.109409,5.42739 l 0.353122,3.0231 2.104594,0.69346 c 1.157974,0.38115 3.199528,1.23868 4.534683,1.90526 l 2.426851,1.21181 2.37999,-1.90038 c 4.49537,-3.58897 5.21636,-3.44961 10.76395,2.07533 5.72568,5.70236 5.86278,6.31569 2.4334,10.89849 l -2.00082,2.67478 1.00452,2.20497 c 0.55227,1.21255 1.32081,3.14271 1.70917,4.28841 l 0.7064,2.08352 3.29201,0.38721 c 3.56277,0.41914 4.504,0.83655 5.47758,2.43333 0.55709,0.91402 0.62536,1.63991 0.62536,6.74454 0.01,8.12641 -0.26378,8.55085 -5.84852,9.34477 -1.80623,0.25681 -3.37986,0.46974 -3.49781,0.47305 -0.1178,0 -0.53495,0.97955 -0.92672,2.16939 -0.39168,1.18982 -1.2021,3.14353 -1.79992,4.34025 l -1.08548,2.17419 1.98299,2.42851 c 3.76499,4.60768 3.64995,5.70859 -1.10978,10.62144 -6.32996,6.53378 -7.02707,6.64293 -12.88148,2.01542 l -1.790221,-1.41436 -2.144994,1.02227 c -1.179708,0.5624 -3.154985,1.35572 -4.388945,1.76434 l -2.242202,0.74363 -0.411516,3.30828 c -0.784126,6.31354 -1.098086,6.54828 -8.883066,6.62294 -3.172987,0.0307 -6.050929,-0.0224 -6.396161,-0.11662 -2.152713,-0.58928 -2.879513,-1.99121 -3.41354,-6.58412 l -0.400227,-3.43627 -1.624905,-0.53295 c -0.894194,-0.29297 -2.736501,-1.08797 -4.094055,-1.76592 l -2.468996,-1.2313 -2.33951,1.8501 c -3.600834,2.84982 -3.781007,2.94861 -5.484038,2.94861 l -1.563433,0 -4.165227,-4.08584 c -2.291404,-2.24752 -4.369618,-4.47671 -4.617305,-4.95275 -1.0372,-1.99353 -0.524163,-3.4181 2.63589,-7.32934 l 1.757779,-2.17578 -0.716017,-1.38524 c -0.393104,-0.76148 -1.166942,-2.53635 -1.720621,-3.94334 l -1.006102,-2.55651 -3.675989,-0.51354 C 36.160594,797.45569 36,797.20676 36,788.70791 c 0,-5.19156 0.073,-6.0359 0.579982,-6.78344 0.858033,-1.26382 2.339512,-1.82124 5.913387,-2.22761 l 3.20459,-0.36457 0.584883,-1.96191 c 0.321509,-1.07918 1.065405,-3.03066 1.654089,-4.33545 l 1.070883,-2.37178 -1.884114,-2.43506 c -2.522419,-3.25818 -2.733687,-3.70693 -2.541989,-5.40789 0.151295,-1.3428 0.441374,-1.71632 4.443936,-5.72875 4.578571,-4.58985 5.450703,-5.12014 7.483294,-4.55899 0.615322,0.16987 2.215502,1.18012 3.556131,2.24553 l 2.43664,1.93761 1.913399,-1.0207 c 1.052297,-0.56081 3.066147,-1.42348 4.474717,-1.91654 1.408725,-0.49305 2.634307,-0.96885 2.723393,-1.05794 0.08901,-0.0891 0.347896,-1.59172 0.57517,-3.33905 0.638056,-4.90647 1.146369,-5.77777 6.851392,-5.82429 z m 2.365393,28.80555 c -6.760393,0.0232 -13.325102,4.30691 -15.454254,11.7523 -2.59616,9.07809 3.222423,18.39306 12.674108,20.2902 2.174532,0.43648 4.123508,0.3537 6.608431,-0.28194 12.255965,-3.1345 16.490949,-18.09063 7.635587,-26.96665 -3.281235,-3.28895 -7.407639,-4.80801 -11.463872,-4.79391 z m 70.183104,41.38079 c -4.86176,0.0755 -9.5591,2.9594 -11.72641,7.53671 -1.03554,2.18723 -1.53639,5.73704 -1.11948,7.9353 0.9559,5.03992 5.12039,9.44355 10.07065,10.64739 2.0783,0.50533 3.27136,0.52524 5.35281,0.0874 7.44365,-1.56559 12.16132,-8.71841 10.49993,-15.92075 -1.08532,-4.70531 -4.91352,-8.59797 -9.71423,-9.87622 -1.11036,-0.29555 -2.2413,-0.4272 -3.36327,-0.40986 z"
       id="rect4725-7"
       inkscape:export-filename="/home/adrienpilleboue/Projects/france-insoumise/kit-campagne.fi/assets/facebook-cover-generator.png"
       inkscape:export-xdpi="63.512051"
       inkscape:export-ydpi="63.512051"
       sodipodi:nodetypes="ssssccsccccssscccccccccccscccccssccccccccccccccccccsccsccccccccssssscccccccccsccccccccccccccsccccccccccccccscccccccccsccccccccssccccccccccscsccccccccc" />
    <path
       style="opacity:1;fill:#3a589b;fill-opacity:1;stroke:none;stroke-width:13;stroke-linecap:round;stroke-linejoin:miter;stroke-miterlimit:4;stroke-dasharray:none;stroke-dashoffset:0;stroke-opacity:1"
       d="M 40.035156 96 C 26.718681 96 16 106.72259 16 120.03906 L 16 165.33398 L 85.333984 165.33398 L 85.333984 96 L 40.035156 96 z "
       transform="translate(0,540.36216)"
       id="rect10976" />
    <rect
       y="636.36218"
       x="85.333336"
       height="69.333336"
       width="69.333336"
       id="rect10978"
       style="opacity:1;fill:#7289da;fill-opacity:1;stroke:none;stroke-width:13;stroke-linecap:round;stroke-linejoin:miter;stroke-miterlimit:4;stroke-dasharray:none;stroke-dashoffset:0;stroke-opacity:1" />
    <path
       style="opacity:1;fill:#1da1f2;fill-opacity:1;stroke:none;stroke-width:13;stroke-linecap:round;stroke-linejoin:miter;stroke-miterlimit:4;stroke-dasharray:none;stroke-dashoffset:0;stroke-opacity:1"
       d="M 154.66602 96 L 154.66602 165.33398 L 224 165.33398 L 224 120.03906 C 224 106.72259 213.27742 96 199.96094 96 L 154.66602 96 z "
       transform="translate(0,540.36216)"
       id="rect10980" />
    <path
       style="opacity:1;fill:#7289da;fill-opacity:1;stroke:none;stroke-width:13;stroke-linecap:round;stroke-linejoin:miter;stroke-miterlimit:4;stroke-dasharray:none;stroke-dashoffset:0;stroke-opacity:1"
       d="M 16 165.33398 L 16 234.66602 L 47.117188 234.66602 C 47.388331 233.96726 47.677104 233.24903 47.9375 232.67188 L 49.007812 230.30078 L 47.123047 227.86523 C 44.600628 224.60705 44.390333 224.15994 44.582031 222.45898 C 44.733326 221.11618 45.022829 220.74095 49.025391 216.72852 C 53.603962 212.13867 54.477175 211.60877 56.509766 212.16992 C 57.125088 212.33979 58.723824 213.35061 60.064453 214.41602 L 62.501953 216.35352 L 64.416016 215.33203 C 65.468313 214.77122 67.482055 213.90908 68.890625 213.41602 C 70.29935 212.92297 71.524195 212.44651 71.613281 212.35742 C 71.702291 212.26832 71.960226 210.76686 72.1875 209.01953 C 72.825556 204.11306 73.33404 203.24183 79.039062 203.19531 C 79.854043 203.18731 80.775764 203.2024 81.818359 203.2168 C 83.376402 203.24315 84.457267 203.2709 85.333984 203.30664 L 85.333984 165.33398 L 16 165.33398 z M 81.404297 232 C 78.279016 232.01073 75.202824 232.94279 72.580078 234.66602 L 85.333984 234.66602 L 85.333984 232.49609 C 84.036678 232.17099 82.717977 231.99543 81.404297 232 z "
       transform="translate(0,540.36216)"
       id="rect10982" />
    <path
       style="opacity:1;fill:#1da1f2;fill-opacity:1;stroke:none;stroke-width:13;stroke-linecap:round;stroke-linejoin:miter;stroke-miterlimit:4;stroke-dasharray:none;stroke-dashoffset:0;stroke-opacity:1"
       d="M 85.333984 165.33398 L 85.333984 203.30664 C 87.490973 203.39458 88.02977 203.55095 88.617188 203.98633 C 89.916921 204.9497 90.327411 206.00081 90.726562 209.41211 L 91.080078 212.43555 L 93.185547 213.12891 C 94.343521 213.51006 96.383595 214.36858 97.71875 215.03516 L 100.14648 216.24609 L 102.52734 214.3457 C 107.02271 210.75673 107.74343 210.89693 113.29102 216.42188 C 119.0167 222.12423 119.15399 222.73751 115.72461 227.32031 L 113.72266 229.99414 L 114.72852 232.19922 C 115.04335 232.89045 115.41096 233.78664 115.75586 234.66602 L 154.66602 234.66602 L 154.66602 165.33398 L 85.333984 165.33398 z M 85.333984 232.49609 L 85.333984 234.66602 L 90.277344 234.66602 C 88.719465 233.63038 87.045992 232.92512 85.333984 232.49609 z "
       transform="translate(0,540.36216)"
       id="rect10984" />
    <rect
       y="705.6955"
       x="154.66667"
       height="69.333336"
       width="69.333336"
       id="rect10986"
       style="opacity:1;fill:#3a589b;fill-opacity:1;stroke:none;stroke-width:13;stroke-linecap:round;stroke-linejoin:miter;stroke-miterlimit:4;stroke-dasharray:none;stroke-dashoffset:0;stroke-opacity:1" />
    <path
       style="opacity:1;fill:#1da1f2;fill-opacity:1;stroke:none;stroke-width:13;stroke-linecap:round;stroke-linejoin:miter;stroke-miterlimit:4;stroke-dasharray:none;stroke-dashoffset:0;stroke-opacity:1"
       d="M 16 234.66602 L 16 279.96094 C 16 293.27754 26.718681 303.99999 40.035156 304 L 73.708984 304 C 73.786954 303.9086 73.850603 303.823 73.935547 303.72852 C 77.361529 299.91807 79.443739 299.3377 82.189453 301.43359 C 83.622567 302.52753 83.781176 302.57626 84.697266 302.19727 C 84.806175 302.15221 85.162276 302.01914 85.333984 301.95117 L 85.333984 293.62109 C 84.302111 293.69925 83.092534 293.73482 81.509766 293.75 C 78.336779 293.7807 75.460466 293.72899 75.115234 293.63477 C 72.962521 293.04549 72.235199 291.64369 71.701172 287.05078 L 71.300781 283.61328 L 69.675781 283.08008 C 68.781587 282.78711 66.939585 281.9924 65.582031 281.31445 L 63.113281 280.08398 L 60.773438 281.93359 C 57.172604 284.78341 56.992093 284.88281 55.289062 284.88281 L 53.724609 284.88281 L 49.560547 280.79688 C 47.269143 278.54935 45.191046 276.31979 44.943359 275.84375 C 43.906159 273.85022 44.418072 272.42491 47.578125 268.51367 L 49.335938 266.33789 L 48.621094 264.95312 C 48.22799 264.19164 47.45407 262.41676 46.900391 261.00977 L 45.894531 258.45312 L 42.21875 257.93945 C 36.161365 257.09293 36 256.84455 36 248.3457 C 36 243.15414 36.073096 242.31004 36.580078 241.5625 C 37.438111 240.29868 38.920266 239.74035 42.494141 239.33398 L 45.697266 238.9707 L 46.283203 237.00781 C 46.462497 236.40599 46.775349 235.54695 47.117188 234.66602 L 16 234.66602 z M 72.580078 234.66602 C 69.52948 236.67036 67.096032 239.75047 65.951172 243.75391 C 63.355012 252.832 69.173315 262.14583 78.625 264.04297 C 80.799532 264.47945 82.749452 264.39736 85.234375 263.76172 C 85.268309 263.75304 85.300174 263.74128 85.333984 263.73242 L 85.333984 234.66602 L 72.580078 234.66602 z "
       transform="translate(0,540.36216)"
       id="rect10988" />
    <path
       style="opacity:1;fill:#3a589b;fill-opacity:1;stroke:none;stroke-width:13;stroke-linecap:round;stroke-linejoin:miter;stroke-miterlimit:4;stroke-dasharray:none;stroke-dashoffset:0;stroke-opacity:1"
       d="M 85.333984 234.66602 L 85.333984 263.73242 C 97.511684 260.54146 101.69998 245.64637 92.869141 236.79492 C 92.052974 235.97684 91.184005 235.26874 90.277344 234.66602 L 85.333984 234.66602 z M 115.75586 234.66602 C 116.01598 235.32923 116.27053 235.9957 116.4375 236.48828 L 117.14258 238.57227 L 120.43555 238.95898 C 123.99832 239.37812 124.93853 239.7958 125.91211 241.39258 C 126.4692 242.3066 126.53906 243.03209 126.53906 248.13672 C 126.54906 256.26313 126.27419 256.6885 120.68945 257.48242 C 118.88322 257.73923 117.30936 257.95177 117.19141 257.95508 C 117.07361 257.95508 116.6574 258.93321 116.26562 260.12305 C 115.87395 261.31287 115.06266 263.26812 114.46484 264.46484 L 113.37891 266.63867 L 115.36328 269.06641 C 119.12827 273.67409 119.01168 274.77465 114.25195 279.6875 C 107.92199 286.22128 107.2255 286.33064 101.37109 281.70312 L 99.582031 280.28906 L 97.435547 281.3125 C 96.255839 281.8749 94.280835 282.66755 93.046875 283.07617 L 90.804688 283.82031 L 90.392578 287.12695 C 89.767873 292.15688 89.377468 293.31484 85.333984 293.62109 L 85.333984 301.95117 C 86.010519 301.68338 86.892598 301.33879 87.84375 300.98438 C 90.124192 300.13482 90.059843 300.21832 90.492188 297.55273 C 90.63328 296.68301 91.049242 295.95221 91.814453 295.23047 C 92.924564 294.18397 92.953335 294.17773 96.146484 294.17773 C 101.00525 294.17773 102.32288 295.08668 102.78516 298.76367 C 102.97802 300.29758 103.01803 300.34577 104.58594 300.93945 C 105.46728 301.27316 106.78925 301.86484 107.52734 302.25586 L 108.87109 302.96875 L 110.33398 301.91797 C 113.18753 299.86879 115.01077 300.26821 118.1582 303.63281 C 118.27997 303.76304 118.37634 303.87707 118.48633 304 L 126.61719 304 L 126.79102 303.74219 L 125.54297 301.60938 C 124.85731 300.43597 124.14596 299.02191 123.96289 298.4668 L 123.63086 297.45703 L 120.67773 297.32422 C 115.83198 297.10623 115.17996 296.32581 114.64062 290.09961 C 114.11158 283.99229 114.70277 283.08739 119.96094 281.93555 C 121.75812 281.54196 121.8906 281.45011 122.1582 280.39648 C 122.31497 279.77958 122.8048 278.1427 123.24609 276.75977 L 124.04883 274.24414 L 122.7832 272.91406 C 120.62021 270.63925 120.12891 269.8194 120.12891 268.47852 C 120.12891 266.82608 120.59025 266.01704 123.39453 262.76758 C 127.04405 258.53857 128.47708 258.20585 132.24414 260.70703 L 134.05078 261.90625 L 135.34375 261.1582 C 136.05455 260.74635 137.64504 259.91404 138.87891 259.30859 C 140.11296 258.70314 141.19511 258.13892 141.2832 258.05664 C 141.3712 257.97454 141.52417 256.68837 141.62305 255.19727 C 141.90998 250.87858 142.84782 250.27966 150.0957 249.78711 C 151.2331 249.71001 151.97641 249.66471 152.51758 249.67773 C 153.41932 249.69933 153.75845 249.87868 154.42188 250.33008 C 154.51029 250.39022 154.58502 250.45139 154.66602 250.51172 L 154.66602 234.66602 L 115.75586 234.66602 z M 151.58789 273.38086 C 146.72613 273.45636 142.02864 276.34066 139.86133 280.91797 C 138.82579 283.1052 138.32528 286.65526 138.74219 288.85352 C 139.69809 293.89344 143.86224 298.29811 148.8125 299.50195 C 150.8908 300.00728 152.08457 300.02573 154.16602 299.58789 C 154.33662 299.55201 154.49831 299.49872 154.66602 299.45703 L 154.66602 273.72656 C 153.64727 273.48166 152.61424 273.365 151.58789 273.38086 z "
       transform="translate(0,540.36216)"
       id="rect10990" />
    <path
       style="opacity:1;fill:#7289da;fill-opacity:1;stroke:none;stroke-width:13;stroke-linecap:round;stroke-linejoin:miter;stroke-miterlimit:4;stroke-dasharray:none;stroke-dashoffset:0;stroke-opacity:1"
       d="M 154.66602 234.66602 L 154.66602 250.51172 C 155.81269 251.36585 156.25362 252.29084 156.75977 254.79102 L 157.16797 256.80469 L 159.24219 257.3418 C 160.38192 257.63694 162.08416 258.18717 163.02539 258.56641 L 164.73633 259.25586 L 166.61328 257.62891 C 170.02019 254.6774 171.27079 254.84542 176 258.89062 C 180.36771 262.6265 180.62662 263.68687 178.11914 267.56641 L 176.79492 269.61328 L 177.48242 270.75781 C 177.85991 271.38723 178.65916 272.94855 179.25781 274.22656 L 180.34766 276.54883 L 182.63867 276.54883 C 187.23432 276.54883 188.23289 277.84357 188.58203 284.25391 C 188.88421 289.80083 188.33303 290.7539 184.33984 291.60547 C 183.48454 291.78787 182.47453 292.00806 182.0957 292.09375 C 181.56898 292.21295 181.31511 292.64505 181.01367 293.93359 C 180.79693 294.86021 180.27986 296.46974 179.86328 297.50977 L 179.10742 299.40039 L 180.85938 301.39648 C 181.76791 302.43127 182.38564 303.25205 182.75195 304 L 199.96094 304 C 213.27742 303.99998 224 293.27754 224 279.96094 L 224 234.66602 L 154.66602 234.66602 z M 154.66602 273.72656 L 154.66602 299.45703 C 161.81509 297.67992 166.28933 290.70523 164.66602 283.66797 C 163.5807 278.96266 159.75188 275.06927 154.95117 273.79102 C 154.85654 273.76583 154.76093 273.74938 154.66602 273.72656 z "
       transform="translate(0,540.36216)"
       id="rect10992" />
    <rect
       ry="0"
       y="240"
       x="636.36218"
       height="16"
       width="335.99997"
       id="rect5804"
       style="opacity:1;fill:#b3b3b3;fill-opacity:1;stroke:none;stroke-width:25;stroke-linecap:round;stroke-linejoin:round;stroke-miterlimit:4;stroke-dasharray:none;stroke-dashoffset:0;stroke-opacity:1"
       transform="matrix(0,1,1,0,0,0)"
       inkscape:export-filename="/home/adrienpilleboue/Projects/france-insoumise/kitcampagne.fi/assets/icons/facebook-photo-generator.png"
       inkscape:export-xdpi="65.800003"
       inkscape:export-ydpi="65.800003" />
    <rect
       inkscape:export-ydpi="65.800003"
       inkscape:export-xdpi="65.800003"
       inkscape:export-filename="/home/adrienpilleboue/Projects/france-insoumise/kitcampagne.fi/assets/icons/facebook-photo-generator.png"
       transform="matrix(0,1,1,0,0,0)"
       style="opacity:1;fill:#b3b3b3;fill-opacity:1;stroke:none;stroke-width:25;stroke-linecap:round;stroke-linejoin:round;stroke-miterlimit:4;stroke-dasharray:none;stroke-dashoffset:0;stroke-opacity:1"
       id="rect10922"
       width="16.000025"
       height="176"
       x="636.36218"
       y="272"
       ry="0" />
    <rect
       ry="0"
       y="272"
       x="668.36218"
       height="208"
       width="16.000025"
       id="rect10924"
       style="opacity:1;fill:#b3b3b3;fill-opacity:1;stroke:none;stroke-width:25;stroke-linecap:round;stroke-linejoin:round;stroke-miterlimit:4;stroke-dasharray:none;stroke-dashoffset:0;stroke-opacity:1"
       transform="matrix(0,1,1,0,0,0)"
       inkscape:export-filename="/home/adrienpilleboue/Projects/france-insoumise/kitcampagne.fi/assets/icons/facebook-photo-generator.png"
       inkscape:export-xdpi="65.800003"
       inkscape:export-ydpi="65.800003" />
    <rect
       inkscape:export-ydpi="65.800003"
       inkscape:export-xdpi="65.800003"
       inkscape:export-filename="/home/adrienpilleboue/Projects/france-insoumise/kitcampagne.fi/assets/icons/facebook-photo-generator.png"
       transform="matrix(0,1,1,0,0,0)"
       style="opacity:1;fill:#b3b3b3;fill-opacity:1;stroke:none;stroke-width:25;stroke-linecap:round;stroke-linejoin:round;stroke-miterlimit:4;stroke-dasharray:none;stroke-dashoffset:0;stroke-opacity:1"
       id="rect10926"
       width="16.000025"
       height="160"
       x="700.36218"
       y="272"
       ry="0" />
    <rect
       ry="0"
       y="272"
       x="732.36218"
       height="184"
       width="16.000025"
       id="rect10928"
       style="opacity:1;fill:#b3b3b3;fill-opacity:1;stroke:none;stroke-width:25;stroke-linecap:round;stroke-linejoin:round;stroke-miterlimit:4;stroke-dasharray:none;stroke-dashoffset:0;stroke-opacity:1"
       transform="matrix(0,1,1,0,0,0)"
       inkscape:export-filename="/home/adrienpilleboue/Projects/france-insoumise/kitcampagne.fi/assets/icons/facebook-photo-generator.png"
       inkscape:export-xdpi="65.800003"
       inkscape:export-ydpi="65.800003" />
    <rect
       inkscape:export-ydpi="65.800003"
       inkscape:export-xdpi="65.800003"
       inkscape:export-filename="/home/adrienpilleboue/Projects/france-insoumise/kitcampagne.fi/assets/icons/facebook-photo-generator.png"
       transform="matrix(0,1,1,0,0,0)"
       style="opacity:1;fill:#b3b3b3;fill-opacity:1;stroke:none;stroke-width:25;stroke-linecap:round;stroke-linejoin:round;stroke-miterlimit:4;stroke-dasharray:none;stroke-dashoffset:0;stroke-opacity:1"
       id="rect10930"
       width="16"
       height="220"
       x="828.36218"
       y="272"
       ry="0" />
    <rect
       ry="0"
       y="272"
       x="860.36212"
       height="212"
       width="16"
       id="rect10932"
       style="opacity:1;fill:#b3b3b3;fill-opacity:1;stroke:none;stroke-width:25;stroke-linecap:round;stroke-linejoin:round;stroke-miterlimit:4;stroke-dasharray:none;stroke-dashoffset:0;stroke-opacity:1"
       transform="matrix(0,1,1,0,0,0)"
       inkscape:export-filename="/home/adrienpilleboue/Projects/france-insoumise/kitcampagne.fi/assets/icons/facebook-photo-generator.png"
       inkscape:export-xdpi="65.800003"
       inkscape:export-ydpi="65.800003" />
    <rect
       inkscape:export-ydpi="65.800003"
       inkscape:export-xdpi="65.800003"
       inkscape:export-filename="/home/adrienpilleboue/Projects/france-insoumise/kitcampagne.fi/assets/icons/facebook-photo-generator.png"
       transform="matrix(0,1,1,0,0,0)"
       style="opacity:1;fill:#b3b3b3;fill-opacity:1;stroke:none;stroke-width:25;stroke-linecap:round;stroke-linejoin:round;stroke-miterlimit:4;stroke-dasharray:none;stroke-dashoffset:0;stroke-opacity:1"
       id="rect10934"
       width="16"
       height="192"
       x="892.36212"
       y="272"
       ry="0" />
    <rect
       ry="0"
       y="272"
       x="924.36212"
       height="216"
       width="16"
       id="rect10936"
       style="opacity:1;fill:#b3b3b3;fill-opacity:1;stroke:none;stroke-width:25;stroke-linecap:round;stroke-linejoin:round;stroke-miterlimit:4;stroke-dasharray:none;stroke-dashoffset:0;stroke-opacity:1"
       transform="matrix(0,1,1,0,0,0)"
       inkscape:export-filename="/home/adrienpilleboue/Projects/france-insoumise/kitcampagne.fi/assets/icons/facebook-photo-generator.png"
       inkscape:export-xdpi="65.800003"
       inkscape:export-ydpi="65.800003" />
    <rect
       inkscape:export-ydpi="65.800003"
       inkscape:export-xdpi="65.800003"
       inkscape:export-filename="/home/adrienpilleboue/Projects/france-insoumise/kitcampagne.fi/assets/icons/facebook-photo-generator.png"
       transform="matrix(0,1,1,0,0,0)"
       style="opacity:1;fill:#b3b3b3;fill-opacity:1;stroke:none;stroke-width:25;stroke-linecap:round;stroke-linejoin:round;stroke-miterlimit:4;stroke-dasharray:none;stroke-dashoffset:0;stroke-opacity:1"
       id="rect10938"
       width="16"
       height="64"
       x="956.36212"
       y="272"
       ry="0" />
    <rect
       ry="0"
       y="272"
       x="796.36218"
       height="192"
       width="16"
       id="rect10940"
       style="opacity:1;fill:#b3b3b3;fill-opacity:1;stroke:none;stroke-width:25;stroke-linecap:round;stroke-linejoin:round;stroke-miterlimit:4;stroke-dasharray:none;stroke-dashoffset:0;stroke-opacity:1"
       transform="matrix(0,1,1,0,0,0)"
       inkscape:export-filename="/home/adrienpilleboue/Projects/france-insoumise/kitcampagne.fi/assets/icons/facebook-photo-generator.png"
       inkscape:export-xdpi="65.800003"
       inkscape:export-ydpi="65.800003" />
  </g>
  <style
     id="style10573">.st0{fill:#7289DA;}</style>
  <style
     id="style10573-1">.st0{fill:#7289DA;}</style>
</svg>
