<?xml version="1.0" encoding="UTF-8" standalone="no"?>
<svg
   xmlns:dc="http://purl.org/dc/elements/1.1/"
   xmlns:cc="http://creativecommons.org/ns#"
   xmlns:rdf="http://www.w3.org/1999/02/22-rdf-syntax-ns#"
   xmlns:svg="http://www.w3.org/2000/svg"
   xmlns="http://www.w3.org/2000/svg"
   width="512"
   height="512"
   viewBox="0 0 512.00001 512.00001"
   id="svg9705"
   version="1.1">
  <defs
     id="defs9707" />
  <metadata
     id="metadata9710">
    <rdf:RDF>
      <cc:Work
         rdf:about="">
        <dc:format>image/svg+xml</dc:format>
        <dc:type
           rdf:resource="http://purl.org/dc/dcmitype/StillImage" />
        <dc:title></dc:title>
      </cc:Work>
    </rdf:RDF>
  </metadata>
  <path
     style="fill:#1da1f2;fill-opacity:1"
     d="M 42.492188,16 C 27.85877,16 16,27.858767 16,42.492188 L 16,325.50586 C 16,340.13556 27.85691,352 42.492188,352 L 469.5,352 c 14.62783,0 26.49023,-11.86254 26.49023,-26.49414 l 0,-283.013672 C 495.99023,27.858767 484.1297,16 469.5,16 Z M 64,48 448,48 c 8.864,0 16,7.135999 16,16 l 0,240 c 0,8.864 -7.136,16 -16,16 l -384,0 c -8.864001,0 -16,-7.136 -16,-16 L 48,64 c 0,-8.864001 7.135999,-16 16,-16 z"
     id="Blue_1_" />
  <rect
     style="opacity:1;fill:#00afcc;fill-opacity:1;stroke:none;stroke-width:16;stroke-linecap:round;stroke-linejoin:round;stroke-miterlimit:4;stroke-dasharray:none;stroke-dashoffset:0;stroke-opacity:1"
     id="rect10448"
     width="384"
     height="96.000008"
     x="64"
     y="63.999992"
     ry="3.44922e-06" />
  <rect
     style="opacity:1;fill:#1da1f2;fill-opacity:1;stroke:none;stroke-width:16;stroke-linecap:round;stroke-linejoin:round;stroke-miterlimit:4;stroke-dasharray:none;stroke-dashoffset:0;stroke-opacity:1"
     id="rect4812"
     width="64"
     height="172"
     x="32"
     y="324"
     ry="32" />
  <rect
     ry="26.046513"
     y="324"
     x="128"
     height="124.00001"
     width="52.093018"
     id="rect4814"
     style="opacity:1;fill:#1da1f2;fill-opacity:1;stroke:none;stroke-width:16;stroke-linecap:round;stroke-linejoin:round;stroke-miterlimit:4;stroke-dasharray:none;stroke-dashoffset:0;stroke-opacity:1" />
  <rect
     style="opacity:1;fill:#1da1f2;fill-opacity:1;stroke:none;stroke-width:16;stroke-linecap:round;stroke-linejoin:round;stroke-miterlimit:4;stroke-dasharray:none;stroke-dashoffset:0;stroke-opacity:1"
     id="rect4816"
     width="58.046509"
     height="92.000008"
     x="224"
     y="324"
     ry="29.023256" />
  <rect
     ry="32"
     y="324"
     x="400"
     height="124.00001"
     width="64"
     id="rect4818"
     style="opacity:1;fill:#1da1f2;fill-opacity:1;stroke:none;stroke-width:16;stroke-linecap:round;stroke-linejoin:round;stroke-miterlimit:4;stroke-dasharray:none;stroke-dashoffset:0;stroke-opacity:1" />
  <rect
     style="opacity:1;fill:#1da1f2;fill-opacity:1;stroke:none;stroke-width:16;stroke-linecap:round;stroke-linejoin:round;stroke-miterlimit:4;stroke-dasharray:none;stroke-dashoffset:0;stroke-opacity:1"
     id="rect4820"
     width="48"
     height="156"
     x="336"
     y="324"
     ry="23.999998" />
  <path
     style="fill:#1da1f2;fill-opacity:1;fill-rule:evenodd;stroke:none;stroke-width:1px;stroke-linecap:butt;stroke-linejoin:miter;stroke-opacity:1"
     d="m 32,336 0,28 48,4 c 10.532034,26.33009 64,0 64,0 l 16,0 c 31.0695,-7.89903 66.57166,9.47883 80,0 0,0 36,23.99999 32,8 33.96581,-13.95495 71.31107,18.26873 80,8 l 16,0 c 18.43106,12.90174 48,-16 48,-16 l 32,16 0,-48 z"
     id="path4822" />
  <rect
     style="opacity:1;fill:#c9452e;fill-opacity:1;stroke:none;stroke-width:16;stroke-linecap:round;stroke-linejoin:round;stroke-miterlimit:4;stroke-dasharray:none;stroke-dashoffset:0;stroke-opacity:1"
     id="rect10446"
     width="80"
     height="80.000008"
     x="80"
     y="95.999992"
     ry="3.44922e-06" />
  <style
     id="style10573">.st0{fill:#7289DA;}</style>
  <rect
     ry="3.44922e-06"
     y="176"
     x="192"
     height="48"
     width="48"
     id="rect4793"
     style="opacity:1;fill:#b3b3b3;fill-opacity:1;stroke:none;stroke-width:16;stroke-linecap:round;stroke-linejoin:round;stroke-miterlimit:4;stroke-dasharray:none;stroke-dashoffset:0;stroke-opacity:1" />
  <rect
     ry="3.44922e-06"
     y="176"
     x="256"
     height="16.000002"
     width="176"
     id="rect4795"
     style="opacity:1;fill:#b3b3b3;fill-opacity:1;stroke:none;stroke-width:16;stroke-linecap:round;stroke-linejoin:round;stroke-miterlimit:4;stroke-dasharray:none;stroke-dashoffset:0;stroke-opacity:1" />
  <rect
     ry="3.44922e-06"
     y="208"
     x="256"
     height="16"
     width="128"
     id="rect4799"
     style="opacity:1;fill:#b3b3b3;fill-opacity:1;stroke:none;stroke-width:16;stroke-linecap:round;stroke-linejoin:round;stroke-miterlimit:4;stroke-dasharray:none;stroke-dashoffset:0;stroke-opacity:1" />
  <rect
     ry="3.44922e-06"
     y="240"
     x="192"
     height="48"
     width="48"
     id="rect4801"
     style="opacity:1;fill:#b3b3b3;fill-opacity:1;stroke:none;stroke-width:16;stroke-linecap:round;stroke-linejoin:round;stroke-miterlimit:4;stroke-dasharray:none;stroke-dashoffset:0;stroke-opacity:1" />
  <rect
     ry="3.44922e-06"
     y="240"
     x="256"
     height="16"
     width="176"
     id="rect4803"
     style="opacity:1;fill:#b3b3b3;fill-opacity:1;stroke:none;stroke-width:16;stroke-linecap:round;stroke-linejoin:round;stroke-miterlimit:4;stroke-dasharray:none;stroke-dashoffset:0;stroke-opacity:1" />
  <rect
     ry="3.44922e-06"
     y="272"
     x="256"
     height="16"
     width="32"
     id="rect4805"
     style="opacity:1;fill:#b3b3b3;fill-opacity:1;stroke:none;stroke-width:16;stroke-linecap:round;stroke-linejoin:round;stroke-miterlimit:4;stroke-dasharray:none;stroke-dashoffset:0;stroke-opacity:1" />
  <rect
     ry="3.44922e-06"
     y="192"
     x="80"
     height="16"
     width="80"
     id="rect4807"
     style="opacity:1;fill:#b3b3b3;fill-opacity:1;stroke:none;stroke-width:16;stroke-linecap:round;stroke-linejoin:round;stroke-miterlimit:4;stroke-dasharray:none;stroke-dashoffset:0;stroke-opacity:1" />
  <rect
     ry="3.44922e-06"
     y="224"
     x="80"
     height="16"
     width="64"
     id="rect4809"
     style="opacity:1;fill:#b3b3b3;fill-opacity:1;stroke:none;stroke-width:16;stroke-linecap:round;stroke-linejoin:round;stroke-miterlimit:4;stroke-dasharray:none;stroke-dashoffset:0;stroke-opacity:1" />
  <rect
     ry="3.44922e-06"
     y="256"
     x="80"
     height="24"
     width="24"
     id="rect4817"
     style="opacity:1;fill:#b3b3b3;fill-opacity:1;stroke:none;stroke-width:16;stroke-linecap:round;stroke-linejoin:round;stroke-miterlimit:4;stroke-dasharray:none;stroke-dashoffset:0;stroke-opacity:1" />
  <rect
     ry="3.44922e-06"
     y="256"
     x="136"
     height="24"
     width="24"
     id="rect4819"
     style="opacity:1;fill:#b3b3b3;fill-opacity:1;stroke:none;stroke-width:16;stroke-linecap:round;stroke-linejoin:round;stroke-miterlimit:4;stroke-dasharray:none;stroke-dashoffset:0;stroke-opacity:1" />
  <rect
     ry="3.44922e-06"
     y="256"
     x="108"
     height="24"
     width="24"
     id="rect4821"
     style="opacity:1;fill:#b3b3b3;fill-opacity:1;stroke:none;stroke-width:16;stroke-linecap:round;stroke-linejoin:round;stroke-miterlimit:4;stroke-dasharray:none;stroke-dashoffset:0;stroke-opacity:1" />
  <rect
     ry="3.44922e-06"
     y="284"
     x="80"
     height="24"
     width="24"
     id="rect4823"
     style="opacity:1;fill:#b3b3b3;fill-opacity:1;stroke:none;stroke-width:16;stroke-linecap:round;stroke-linejoin:round;stroke-miterlimit:4;stroke-dasharray:none;stroke-dashoffset:0;stroke-opacity:1" />
  <rect
     ry="3.44922e-06"
     y="284"
     x="108"
     height="24"
     width="24"
     id="rect4825"
     style="opacity:1;fill:#b3b3b3;fill-opacity:1;stroke:none;stroke-width:16;stroke-linecap:round;stroke-linejoin:round;stroke-miterlimit:4;stroke-dasharray:none;stroke-dashoffset:0;stroke-opacity:1" />
</svg>
